<svg width="24" height="24" viewBox="0 0 24 24" fill="none" xmlns="http://www.w3.org/2000/svg">
<g clip-path="url(#clip0_4057_9136)">
<path d="M20.8606 0.404297H3.14188C1.63103 0.404297 0.40625 1.62908 0.40625 3.13992V20.8568C0.40625 22.3676 1.63103 23.5924 3.14188 23.5924H20.8606C22.3715 23.5924 23.5962 22.3676 23.5962 20.8568V3.13992C23.5962 1.62908 22.3715 0.404297 20.8606 0.404297Z" fill="url(#paint0_linear_4057_9136)"/>
<path d="M9.86703 11.3025C9.86703 11.3025 11.8358 11.1562 11.8358 8.84809C11.8358 6.53996 10.2252 5.41309 8.18516 5.41309H1.47266V18.3131H8.18516C8.18516 18.3131 12.282 18.4425 12.282 14.505C12.282 14.505 12.462 11.3025 9.86703 11.3025ZM4.42953 7.70621H8.17953C8.17953 7.70621 9.09266 7.70621 9.09266 9.04871C9.09266 10.3912 8.55641 10.5862 7.94703 10.5862H4.43141L4.42953 7.70621ZM8.01078 16.02H4.43141V12.5737H8.18141C8.18141 12.5737 9.54078 12.555 9.54078 14.3456C9.54453 15.8362 8.55078 16.005 8.01266 16.02H8.01078ZM17.7477 8.69621C12.7864 8.69621 12.792 13.6518 12.792 13.6518C12.792 13.6518 12.4508 18.5831 17.7477 18.5831C17.7477 18.5831 22.1614 18.8343 22.1614 15.1537H19.8927C19.8927 15.1537 19.9677 16.5412 17.8302 16.5412C17.8302 16.5412 15.5595 16.6931 15.5595 14.2912H22.2439C22.2439 14.2912 22.9695 8.69621 17.7477 8.69621ZM19.7652 12.5737H15.5277C15.5277 12.5737 15.8052 10.5862 17.7983 10.5862C19.7914 10.5862 19.7652 12.5737 19.7652 12.5737ZM14.9727 6.17434H20.2939V7.76246H14.9727V6.17434Z" fill="white"/>
</g>
<defs>
<linearGradient id="paint0_linear_4057_9136" x1="12.0012" y1="0.404297" x2="12.0012" y2="23.5943" gradientUnits="userSpaceOnUse">
<stop stop-color="#005CFF"/>
<stop offset="1" stop-color="#0047AD"/>
</linearGradient>
<clipPath id="clip0_4057_9136">
<rect width="24" height="24" fill="white"/>
</clipPath>
</defs>
</svg>
