<svg width="24" height="24" viewBox="0 0 24 24" fill="none" xmlns="http://www.w3.org/2000/svg">
<g clip-path="url(#clip0_4056_9050)">
<path d="M23.827 19.7291H18.232C18.138 19.7291 18.062 19.7871 18.062 19.9011V21.4161C18.062 21.5101 18.12 21.5861 18.234 21.5861H23.828C23.924 21.5861 24 21.5421 24 21.4221V19.9071C24 19.8021 23.943 19.7411 23.827 19.7411V19.7271V19.7291ZM16.463 2.46306C16.479 2.49706 16.493 2.53006 16.51 2.58306V21.3731C16.51 21.4331 16.49 21.4691 16.473 21.4871C16.4566 21.5067 16.4359 21.5223 16.4125 21.5327C16.3891 21.5431 16.3636 21.548 16.338 21.5471H0.153026C0.115026 21.5471 0.0780261 21.5471 0.0560261 21.5271C0.0379452 21.5098 0.023635 21.489 0.0139969 21.4659C0.00435888 21.4429 -0.000397986 21.4181 2.60497e-05 21.3931V2.56406C2.60497e-05 2.48806 0.040026 2.43006 0.096026 2.41406H16.338C16.378 2.41406 16.434 2.43106 16.453 2.44806V2.46406L16.463 2.46306ZM1.81803 19.5731C1.81803 19.6451 1.85603 19.7081 1.91403 19.7251H14.557C14.615 19.7061 14.653 19.6491 14.653 19.5711V4.40206C14.653 4.32906 14.614 4.26806 14.555 4.25206H1.91503C1.85903 4.27206 1.81903 4.32506 1.81903 4.40206L1.81603 19.5721L1.81803 19.5731ZM6.99203 11.1981C7.64203 11.1981 8.00603 11.3751 8.38803 11.8181C8.44602 11.8921 8.54103 11.9111 8.61803 11.8521L9.65203 10.9321C9.72703 10.8881 9.71003 10.7681 9.67203 10.7081C9.03703 9.94406 8.11803 9.46406 6.93203 9.46406C5.34203 9.46406 4.14203 10.2591 3.67703 11.6701C3.51203 12.1651 3.43703 12.7961 3.43703 13.6501C3.43703 14.5041 3.51203 15.1331 3.69203 15.6301C4.15703 17.0551 5.35703 17.8341 6.94703 17.8341C8.14703 17.8341 9.06203 17.3541 9.69203 16.6181C9.73703 16.5441 9.75203 16.4531 9.67703 16.3921L8.64003 15.4771C8.56703 15.4301 8.47703 15.4301 8.41603 15.5041C8.02603 15.9541 7.62103 16.1941 6.96203 16.1941C6.25603 16.1941 5.71703 15.8491 5.49203 15.1591C5.35603 14.7691 5.32603 14.2891 5.32603 13.6761C5.32603 13.0611 5.37103 12.6081 5.50603 12.2061C5.74603 11.5461 6.27203 11.1981 6.99203 11.1981Z" fill="black"/>
</g>
<defs>
<clipPath id="clip0_4056_9050">
<rect width="24" height="24" fill="white"/>
</clipPath>
</defs>
</svg>
