<svg width="24" height="24" viewBox="0 0 24 24" fill="none" xmlns="http://www.w3.org/2000/svg">
<g clip-path="url(#clip0_4057_9088)">
<path d="M24 4.00293H19.985C16.535 4.00293 14.685 4.19993 13.237 5.95993C11.9631 4.85544 10.3727 4.18191 8.69297 4.03558C7.01329 3.88925 5.33033 4.27762 3.88462 5.14518C2.43891 6.01275 1.30444 7.3151 0.643333 8.86613C-0.0177754 10.4172 -0.171682 12.1375 0.203608 13.7812C0.578898 15.425 1.46418 16.908 2.73293 18.0184C4.00168 19.1288 5.58897 19.8098 7.26795 19.9639C8.94693 20.1181 10.6317 19.7375 12.0814 18.8767C13.5311 18.0159 14.6717 16.7189 15.34 15.1709C18.522 14.9399 20.73 13.0369 21.425 9.99793C21.425 9.99793 19.026 10.5829 16.995 9.99793C21.013 9.22093 23.328 6.96093 24 4.00293ZM5.61 11.9989C5.60842 11.5702 5.72214 11.1489 5.93926 10.7792C6.15638 10.4095 6.46891 10.105 6.84413 9.89758C7.21934 9.69014 7.64343 9.5874 8.07197 9.60013C8.50052 9.61286 8.91776 9.74059 9.28 9.96993C9.38645 9.25587 9.74967 8.60515 10.3016 8.13976C10.8535 7.67437 11.5562 7.42625 12.278 7.44193H12.286C11.366 9.21993 10.879 10.7939 10.288 12.7049C10.1194 13.2523 9.75995 13.721 9.27503 14.0259C8.79012 14.3307 8.21192 14.4514 7.64554 14.366C7.07917 14.2807 6.56222 13.9949 6.18868 13.5607C5.81514 13.1265 5.60981 12.5727 5.61 11.9999V11.9989ZM7.996 4.00293C6.41454 4.00293 4.8686 4.47189 3.55366 5.3505C2.23873 6.22911 1.21386 7.47792 0.608663 8.93899C0.00346452 10.4001 -0.154883 12.0078 0.153645 13.5589C0.462172 15.1099 1.22372 16.5347 2.34198 17.653C3.46024 18.7712 4.88499 19.5328 6.43606 19.8413C7.98713 20.1498 9.59486 19.9915 11.0559 19.3863C12.517 18.7811 13.7658 17.7562 14.6444 16.4413C15.523 15.1263 15.992 13.5804 15.992 11.9989C15.992 9.87826 15.1496 7.84444 13.65 6.3449C12.1505 4.84536 10.1167 4.00293 7.996 4.00293ZM7.996 14.3969C7.52144 14.3969 7.05754 14.2562 6.66298 13.9925C6.26843 13.7288 5.96094 13.354 5.77943 12.9155C5.59791 12.477 5.55052 11.9946 5.64325 11.5292C5.73598 11.0638 5.96466 10.6363 6.30036 10.3009C6.63607 9.96545 7.06372 9.73712 7.52921 9.64478C7.9947 9.55244 8.47712 9.60024 8.91545 9.78212C9.35377 9.964 9.72831 10.2718 9.99167 10.6666C10.255 11.0613 10.3954 11.5254 10.395 11.9999C10.3953 12.315 10.3334 12.627 10.2129 12.9181C10.0924 13.2093 9.91571 13.4738 9.69288 13.6965C9.47005 13.9193 9.20547 14.0959 8.9143 14.2162C8.62312 14.3366 8.31107 14.3973 7.996 14.3969Z" fill="black"/>
</g>
<defs>
<clipPath id="clip0_4057_9088">
<rect width="24" height="24" fill="white"/>
</clipPath>
</defs>
</svg>
