<svg width="24" height="24" viewBox="0 0 24 24" fill="none" xmlns="http://www.w3.org/2000/svg">
<g clip-path="url(#clip0_4052_8923)">
<path d="M12 24C18.6274 24 24 18.6274 24 12C24 5.37258 18.6274 0 12 0C5.37258 0 0 5.37258 0 12C0 18.6274 5.37258 24 12 24Z" fill="#FF4500"/>
<path d="M19.9812 12.1139C19.9812 11.1412 19.1946 10.3686 18.2359 10.3686C17.783 10.3679 17.3474 10.5422 17.02 10.855C15.8183 9.99656 14.173 9.43875 12.3418 9.36722L13.1428 5.619L15.7466 6.17681C15.7753 6.83494 16.3188 7.36434 16.9914 7.36434C17.678 7.36434 18.2359 6.80653 18.2359 6.11953C18.2359 5.43291 17.6781 4.875 16.9914 4.875C16.505 4.875 16.0756 5.16113 15.8754 5.57606L12.9714 4.96088C12.8855 4.94644 12.7996 4.96088 12.7423 5.00381C12.6708 5.04675 12.628 5.11819 12.6138 5.20406L11.7266 9.38137C9.86684 9.43875 8.19294 9.99656 6.977 10.8694C6.6495 10.5566 6.21385 10.3823 5.76097 10.383C4.78813 10.383 4.01562 11.1697 4.01562 12.1283C4.01562 12.8436 4.44472 13.4443 5.04575 13.7164C5.01656 13.8913 5.0022 14.0684 5.00281 14.2457C5.00281 16.935 8.13594 19.1241 11.9985 19.1241C15.8612 19.1241 18.9943 16.9494 18.9943 14.2457C18.9942 14.0684 18.9799 13.8914 18.9514 13.7164C19.5522 13.4443 19.9812 12.8291 19.9812 12.1139ZM7.99269 13.3584C7.99269 12.6718 8.5505 12.1139 9.2375 12.1139C9.92413 12.1139 10.482 12.6717 10.482 13.3584C10.482 14.0452 9.92422 14.6032 9.2375 14.6032C8.55059 14.6173 7.99269 14.0452 7.99269 13.3584ZM14.9599 16.6632C14.1015 17.5217 12.4706 17.579 11.9985 17.579C11.5122 17.579 9.88128 17.5072 9.03697 16.6632C8.90844 16.5345 8.90844 16.3342 9.03697 16.2054C9.16578 16.0769 9.36603 16.0769 9.49484 16.2054C10.0386 16.7492 11.1831 16.935 11.9985 16.935C12.8141 16.935 13.9727 16.7491 14.502 16.2054C14.6308 16.0769 14.8311 16.0769 14.9599 16.2054C15.0743 16.3342 15.0743 16.5345 14.9599 16.6632ZM14.7309 14.6174C14.0442 14.6174 13.4863 14.0596 13.4863 13.3729C13.4863 12.6862 14.0442 12.1283 14.7309 12.1283C15.4178 12.1283 15.9756 12.6862 15.9756 13.3729C15.9756 14.0451 15.4178 14.6174 14.7309 14.6174Z" fill="white"/>
</g>
<defs>
<clipPath id="clip0_4052_8923">
<rect width="24" height="24" fill="white"/>
</clipPath>
</defs>
</svg>
