<svg width="20" height="21" viewBox="0 0 20 21" fill="none" xmlns="http://www.w3.org/2000/svg">
<path d="M16.811 0.497314C18.5699 0.497314 20 1.92197 20 3.68636V17.3138C20 19.0727 18.5753 20.5028 16.811 20.5028H3.18904C1.43014 20.5028 0 19.0781 0 17.3138V3.68636C0 1.92745 1.42466 0.497314 3.18904 0.497314H16.811Z" fill="#FFFC00"/>
<path d="M10.0707 17.3741C10.0323 17.3741 9.99399 17.3741 9.96112 17.3686C9.9392 17.3686 9.9118 17.3741 9.88988 17.3741C9.02413 17.3741 8.46523 16.9795 7.92824 16.6015C7.55564 16.3384 7.20495 16.0919 6.79399 16.0206C6.59125 15.9878 6.39399 15.9713 6.19673 15.9713C5.84605 15.9713 5.57207 16.0261 5.36934 16.0645C5.24879 16.0864 5.1392 16.1083 5.06249 16.1083C4.98029 16.1083 4.88714 16.0919 4.84879 15.9549C4.81591 15.8398 4.78851 15.7247 4.7666 15.6152C4.70632 15.3357 4.66249 15.1604 4.54194 15.1439C3.1666 14.9302 2.77208 14.6398 2.6844 14.4371C2.67345 14.4097 2.66249 14.3768 2.66249 14.3494C2.65701 14.2727 2.7118 14.2015 2.79399 14.1905C4.90906 13.8398 5.85701 11.6809 5.90084 11.5878L5.90632 11.5823C6.03783 11.3193 6.05975 11.0946 5.98303 10.9028C5.83509 10.5631 5.36386 10.4097 5.05153 10.311C4.97481 10.2891 4.90358 10.2617 4.84331 10.2398C4.21865 9.99324 4.16386 9.74118 4.19125 9.60967C4.23509 9.3905 4.5255 9.23707 4.7666 9.23707C4.83235 9.23707 4.88714 9.24803 4.93646 9.26995C5.21591 9.40145 5.47344 9.46721 5.69262 9.46721C5.99399 9.46721 6.1255 9.34118 6.14194 9.32474C6.13646 9.18228 6.1255 9.03433 6.11454 8.87543C6.04879 7.87269 5.97207 6.63433 6.28988 5.922C7.23783 3.79598 9.24879 3.63159 9.84605 3.63159C9.86249 3.63159 10.1091 3.63159 10.1091 3.63159H10.1419C10.7392 3.63159 12.7556 3.79598 13.7036 5.92748C14.0214 6.63981 13.9392 7.88365 13.8789 8.88091V8.92474C13.868 9.06173 13.8625 9.19871 13.857 9.33022C13.8734 9.34666 13.994 9.46173 14.268 9.47269C14.4762 9.46721 14.7173 9.39598 14.9803 9.27543C15.057 9.23707 15.1447 9.23159 15.1995 9.23159C15.2871 9.23159 15.3803 9.24803 15.4515 9.28091H15.457C15.6707 9.35762 15.8077 9.50556 15.8132 9.65899C15.8187 9.80693 15.7036 10.0261 15.1556 10.2453C15.1008 10.2672 15.0241 10.2891 14.9474 10.3165C14.6351 10.4152 14.1584 10.5686 14.0159 10.9083C13.9392 11.0946 13.9611 11.3247 14.0926 11.5878L14.0981 11.5932C14.1365 11.6864 15.0844 13.8453 17.205 14.196C17.2817 14.2069 17.3365 14.2782 17.3365 14.3604C17.3365 14.3878 17.3255 14.4206 17.3145 14.448C17.2269 14.6508 16.8323 14.9412 15.457 15.1549C15.3419 15.1713 15.3036 15.3193 15.2323 15.6261C15.2104 15.7357 15.183 15.8453 15.1502 15.9658C15.1228 16.0645 15.057 16.1138 14.9529 16.1138H14.9365C14.8652 16.1138 14.7611 16.1028 14.6296 16.0754C14.394 16.0316 14.1365 15.9878 13.8022 15.9878C13.6104 15.9878 13.4077 16.0042 13.205 16.0371C12.794 16.1083 12.4433 16.3549 12.0707 16.6179C11.5008 16.9795 10.9419 17.3741 10.0707 17.3741Z" fill="white"/>
<path d="M10.1254 3.77389C10.6898 3.77389 12.6295 3.92732 13.5446 5.97663C13.8459 6.6506 13.7692 7.87252 13.7089 8.85882C13.698 9.01225 13.687 9.16567 13.6815 9.30814L13.6761 9.36841L13.7199 9.41225C13.7363 9.42868 13.8952 9.59307 14.2405 9.60951H14.2459H14.2514C14.4815 9.59855 14.7391 9.52731 15.024 9.39581C15.0679 9.37389 15.1226 9.36841 15.1774 9.36841C15.2432 9.36841 15.3144 9.37937 15.3747 9.40677L15.3857 9.41225C15.5336 9.46156 15.6377 9.56019 15.6377 9.64786C15.6377 9.69718 15.5994 9.878 15.0788 10.0862C15.0295 10.1081 14.9583 10.1301 14.8815 10.152C14.5418 10.2616 14.0268 10.4259 13.8514 10.8314C13.7528 11.0616 13.7802 11.3355 13.9281 11.6369C13.9884 11.7794 14.9637 13.9712 17.15 14.3328C17.15 14.3438 17.1446 14.3547 17.1391 14.3657C17.1007 14.4533 16.8651 14.7547 15.4021 14.9794C15.172 15.0122 15.1172 15.2698 15.0514 15.5711C15.0295 15.6807 15.0021 15.7848 14.9692 15.8999C14.9583 15.9328 14.9583 15.9383 14.9199 15.9383C14.9144 15.9383 14.9089 15.9383 14.9035 15.9383C14.8377 15.9383 14.7391 15.9273 14.624 15.8999C14.4158 15.8616 14.1309 15.8068 13.7692 15.8068C13.5665 15.8068 13.3583 15.8232 13.1446 15.8616C12.6952 15.9383 12.3281 16.1958 11.9446 16.4698C11.424 16.8369 10.887 17.215 10.0706 17.215C10.0377 17.215 9.99936 17.215 9.96648 17.2095H9.95552H9.94456C9.92264 17.2095 9.90621 17.2095 9.88429 17.2095C9.06785 17.2095 8.53086 16.8314 8.01032 16.4643C7.62127 16.1903 7.25963 15.9328 6.81032 15.8561C6.6021 15.8232 6.3884 15.8013 6.18566 15.8013C5.82401 15.8013 5.53908 15.8561 5.33086 15.8999C5.2158 15.9218 5.11717 15.9438 5.05141 15.9438C4.99662 15.9438 4.99662 15.9383 4.98566 15.8999C4.95278 15.7903 4.93086 15.6753 4.90347 15.5711C4.83771 15.2698 4.78292 15.0122 4.55278 14.9794C3.08429 14.7547 2.84867 14.4479 2.8158 14.3657C2.81032 14.3547 2.80484 14.3383 2.80484 14.3273C4.99114 13.9657 5.96648 11.7794 6.02675 11.6314C6.1747 11.3246 6.2021 11.0561 6.10347 10.8259C5.92812 10.4205 5.41306 10.2561 5.07333 10.1465C4.99662 10.1246 4.92538 10.1027 4.87607 10.0807C4.43223 9.9054 4.29525 9.73005 4.31717 9.62595C4.33908 9.5054 4.55278 9.37937 4.73908 9.37937C4.78292 9.37937 4.8158 9.38485 4.84319 9.40129C5.14456 9.54375 5.41853 9.61499 5.66511 9.61499C6.04319 9.61499 6.21306 9.43964 6.23497 9.41773L6.27881 9.37389L6.27333 9.31362C6.26785 9.17115 6.25689 9.01773 6.24593 8.8643C6.18566 7.88348 6.10895 6.66156 6.41032 5.98211C7.31991 3.93827 9.25415 3.77937 9.82401 3.77937C9.84045 3.77937 10.087 3.77937 10.087 3.77937C10.1035 3.77389 10.1144 3.77389 10.1254 3.77389ZM10.1254 3.46704C10.1144 3.46704 10.098 3.46704 10.087 3.46704C10.087 3.46704 9.84593 3.46704 9.82949 3.46704C9.21032 3.46704 7.12264 3.6369 6.13634 5.8506C5.8021 6.59581 5.88429 7.86156 5.95004 8.87526C5.95552 8.99581 5.96648 9.12184 5.97196 9.2369C5.92264 9.2643 5.82949 9.30266 5.68155 9.30266C5.48429 9.30266 5.25415 9.24238 4.99114 9.11636C4.91991 9.08348 4.84319 9.06704 4.75552 9.06704C4.44867 9.06704 4.08703 9.26978 4.02675 9.56567C3.9884 9.77937 4.08155 10.0972 4.77744 10.3712C4.83771 10.3985 4.91443 10.4205 4.99662 10.4424C5.28155 10.5355 5.71443 10.6725 5.83497 10.9465C5.89525 11.089 5.87333 11.2753 5.76374 11.4944C5.76374 11.4999 5.75826 11.5054 5.75826 11.5109C5.71991 11.5985 4.80484 13.6862 2.77196 14.0205C2.61306 14.0479 2.50347 14.1848 2.51443 14.3438C2.51443 14.3931 2.53086 14.4369 2.5473 14.4807C2.70073 14.8369 3.34182 15.0999 4.51443 15.2807C4.55278 15.3355 4.59662 15.5218 4.61854 15.6369C4.64045 15.752 4.66785 15.867 4.70621 15.9876C4.73908 16.1081 4.83223 16.2506 5.06785 16.2506C5.161 16.2506 5.27607 16.2287 5.40758 16.2013C5.60484 16.1629 5.86785 16.1136 6.20758 16.1136C6.39388 16.1136 6.58566 16.1301 6.77744 16.1629C7.15552 16.2287 7.47881 16.4533 7.85141 16.7164C8.38292 17.0944 8.98566 17.5218 9.90621 17.5218C9.9336 17.5218 9.95552 17.5218 9.98292 17.5218C10.0103 17.5218 10.0487 17.5218 10.0925 17.5218C11.0076 17.5218 11.6158 17.0944 12.1473 16.7164C12.5199 16.4533 12.8432 16.2232 13.2213 16.1629C13.4131 16.1301 13.6048 16.1136 13.7911 16.1136C14.1089 16.1136 14.361 16.152 14.5911 16.1958C14.7336 16.2232 14.8487 16.2396 14.9309 16.2396H14.9418H14.9528C15.1281 16.2396 15.2487 16.1465 15.298 15.9821C15.3309 15.8616 15.3583 15.7465 15.3857 15.6369C15.4131 15.5218 15.4514 15.3355 15.4898 15.2862C16.6624 15.1054 17.3035 14.8424 17.4569 14.4862C17.4788 14.4424 17.4898 14.3931 17.4898 14.3438C17.5007 14.1848 17.3857 14.0479 17.2322 14.0205C15.1994 13.6862 14.2843 11.5985 14.2459 11.5109C14.2459 11.5054 14.2405 11.4999 14.2405 11.4944C14.1309 11.2753 14.1089 11.089 14.1692 10.9465C14.2843 10.6725 14.7172 10.5301 15.0076 10.4424C15.0898 10.415 15.161 10.3931 15.2268 10.3712C15.7363 10.1684 15.9884 9.92731 15.9829 9.64238C15.9774 9.41773 15.8021 9.22047 15.5281 9.12183C15.435 9.08348 15.3254 9.06156 15.2158 9.06156C15.1391 9.06156 15.0295 9.07252 14.9309 9.12183C14.6898 9.2369 14.4706 9.29718 14.2843 9.30266C14.1583 9.29718 14.0815 9.2643 14.0322 9.24238C14.0377 9.13827 14.0432 9.03416 14.0542 8.92458V8.88074C14.1199 7.86156 14.1966 6.60129 13.8679 5.85608C12.8377 3.6369 10.7446 3.46704 10.1254 3.46704Z" fill="#030303"/>
</svg>
