<svg width="18" height="21" viewBox="0 0 18 21" fill="none" xmlns="http://www.w3.org/2000/svg">
<g clip-path="url(#clip0_181_819)">
<path d="M13.0841 7.70154C14.3723 8.62189 15.9503 9.16341 17.6547 9.16341V5.88547C17.3321 5.88554 17.0104 5.85189 16.6948 5.78506V8.36527C14.9906 8.36527 13.4127 7.82382 12.1243 6.90354V13.5929C12.1243 16.9393 9.41012 19.6519 6.06226 19.6519C4.81309 19.6519 3.65198 19.2744 2.6875 18.6271C3.78833 19.7521 5.3235 20.45 7.02184 20.45C10.37 20.45 13.0843 17.7374 13.0843 14.3909V7.70154H13.0841ZM14.2683 4.39451C13.6099 3.67568 13.1776 2.74672 13.0841 1.71968V1.2981H12.1745C12.4035 2.60341 13.1845 3.71858 14.2683 4.39451ZM4.80502 16.0592C4.43722 15.5772 4.2384 14.9875 4.23929 14.3813C4.23929 12.8508 5.48074 11.6098 7.0124 11.6098C7.29779 11.6097 7.58151 11.6535 7.85357 11.7397V8.38844C7.53564 8.34492 7.21481 8.32637 6.89412 8.3332V10.9416C6.62193 10.8553 6.33807 10.8116 6.05253 10.8118C4.52095 10.8118 3.27957 12.0526 3.27957 13.5833C3.27957 14.6657 3.90005 15.6027 4.80502 16.0592Z" fill="#FF004F"/>
<path d="M12.1245 6.90348C13.413 7.82375 14.9907 8.3652 16.695 8.3652V5.78499C15.7437 5.58244 14.9015 5.08561 14.2684 4.39451C13.1846 3.71851 12.4037 2.60334 12.1747 1.2981H9.78555V14.3907C9.7801 15.9171 8.54079 17.1529 7.01244 17.1529C6.11189 17.1529 5.31175 16.7239 4.80506 16.0591C3.90024 15.6027 3.27969 14.6656 3.27969 13.5834C3.27969 12.0529 4.52106 10.8119 6.05265 10.8119C6.3461 10.8119 6.62893 10.8575 6.89424 10.9417V8.33327C3.60513 8.4012 0.959961 11.0873 0.959961 14.3908C0.959961 16.0399 1.61865 17.5349 2.68775 18.6272C3.65224 19.2744 4.81327 19.652 6.06251 19.652C9.41044 19.652 12.1246 16.9393 12.1246 13.5929V6.90354L12.1245 6.90348Z" fill="black"/>
<path d="M16.6948 5.78483V5.08731C15.837 5.08861 14.996 4.84849 14.2682 4.39441C14.9125 5.09939 15.7609 5.58554 16.6948 5.78497V5.78483ZM12.1745 1.29793C12.1527 1.17321 12.1359 1.04766 12.1243 0.921586V0.5H8.82538V13.5928C8.82014 15.119 7.58083 16.3548 6.05241 16.3548C5.61912 16.3555 5.19175 16.2542 4.80483 16.0592C5.31152 16.7238 6.11166 17.1528 7.01221 17.1528C8.54048 17.1528 9.77993 15.917 9.78531 14.3907V1.298H12.1745V1.29793ZM6.89421 8.3331V7.59041C6.61855 7.55273 6.34064 7.53389 6.06241 7.534C2.71414 7.534 0 10.2467 0 13.5928C0 15.6906 1.06669 17.5394 2.68766 18.627C1.61855 17.5347 0.959862 16.0397 0.959862 14.3906C0.959862 11.0872 3.60497 8.40103 6.89421 8.3331Z" fill="#00F2EA"/>
</g>
<defs>
<clipPath id="clip0_181_819">
<rect width="17.6552" height="20" fill="white" transform="translate(0 0.5)"/>
</clipPath>
</defs>
</svg>
