<svg width="20" height="17" viewBox="0 0 20 17" fill="none" xmlns="http://www.w3.org/2000/svg">
<g clip-path="url(#clip0_154_11594)">
<path d="M20 2.25926C19.2511 2.59453 18.4567 2.8146 17.6433 2.91215C18.4905 2.39899 19.1411 1.58639 19.4474 0.618178C18.642 1.10117 17.7608 1.44146 16.8419 1.62436C16.0934 0.818547 15.027 0.314941 13.8468 0.314941C11.5807 0.314941 9.74344 2.17147 9.74344 4.46126C9.74344 4.78628 9.77977 5.1027 9.84969 5.40626C6.43953 5.23328 3.41609 3.58257 1.39227 1.07394C1.03914 1.68634 0.836797 2.39868 0.836797 3.15847C0.836797 4.59705 1.56125 5.86613 2.66219 6.60973C2.01059 6.58911 1.37332 6.41126 0.803594 6.09105C0.803359 6.10842 0.803359 6.12578 0.803359 6.14323C0.803359 8.1522 2.21773 9.8281 4.09477 10.209C3.49054 10.3751 2.85674 10.3994 2.2418 10.2801C2.76391 11.9274 4.2793 13.1261 6.07477 13.1597C4.67047 14.2717 2.90117 14.9347 0.978828 14.9347C0.647578 14.9347 0.321016 14.915 0 14.8767C1.81586 16.0532 3.97266 16.7396 6.28984 16.7396C13.8373 16.7396 17.9644 10.4214 17.9644 4.94213C17.9644 4.76228 17.9605 4.58347 17.9525 4.40568C18.7558 3.81885 19.4492 3.09201 20 2.25926Z" fill="#55ACEE"/>
</g>
<defs>
<clipPath id="clip0_154_11594">
<rect width="20" height="16.5" fill="white" transform="translate(0 0.25)"/>
</clipPath>
</defs>
</svg>
