<svg width="24" height="22" viewBox="0 0 24 22" fill="none" xmlns="http://www.w3.org/2000/svg">
<g clip-path="url(#clip0_4056_9010)">
<path d="M23.9884 5.39015C23.8816 7.7309 22.2498 10.9361 19.0938 15.0042C15.8307 19.2536 13.07 21.3782 10.8116 21.3782C9.41306 21.3782 8.22872 20.0845 7.26197 17.4964C6.61584 15.1239 5.97056 12.7517 5.32472 10.3793C4.60631 7.79259 3.83616 6.49753 3.01275 6.49753C2.83322 6.49753 2.20491 6.87609 1.12922 7.63012L0 6.17259C1.1755 5.13846 2.34304 4.0953 3.5025 3.04322C5.08219 1.6754 6.26813 0.956154 7.05844 0.883404C8.92641 0.703685 10.076 1.9829 10.5075 4.72134C10.9738 7.67578 11.2964 9.51347 11.4778 10.2327C12.0161 12.6838 12.6084 13.9078 13.2558 13.9078C13.7581 13.9078 14.5127 13.113 15.5187 11.5232C16.5239 9.9329 17.0622 8.72306 17.135 7.89197C17.2779 6.51965 16.7393 5.83181 15.5187 5.83181C14.9442 5.83181 14.3518 5.96428 13.7425 6.22612C14.9219 2.35518 17.1755 0.475216 20.5019 0.582466C22.9679 0.654935 24.1304 2.2575 23.9884 5.39015Z" fill="#32B8E8"/>
</g>
<defs>
<clipPath id="clip0_4056_9010">
<rect width="24" height="20.9062" fill="white" transform="translate(0 0.546875)"/>
</clipPath>
</defs>
</svg>
