<svg width="32" height="33" viewBox="0 0 32 33" fill="none" xmlns="http://www.w3.org/2000/svg">
<path d="M4 30.1545H28" stroke="white" stroke-width="1.5" stroke-linecap="round" stroke-linejoin="round"/>
<path d="M7.46663 11.9946H5.33333C4.6 11.9946 4 12.5946 4 13.328V24.8213C4 25.5546 4.6 26.1546 5.33333 26.1546H7.46663C8.19997 26.1546 8.79997 25.5546 8.79997 24.8213V13.328C8.79997 12.5946 8.19997 11.9946 7.46663 11.9946Z" stroke="white" stroke-width="1.5" stroke-linecap="round" stroke-linejoin="round"/>
<path d="M17.0667 7.74146H14.9334C14.2 7.74146 13.6 8.34146 13.6 9.07479V24.8215C13.6 25.5548 14.2 26.1548 14.9334 26.1548H17.0667C17.8 26.1548 18.4 25.5548 18.4 24.8215V9.07479C18.4 8.34146 17.8 7.74146 17.0667 7.74146Z" stroke="white" stroke-width="1.5" stroke-linecap="round" stroke-linejoin="round"/>
<path d="M26.6667 3.48804H24.5334C23.8 3.48804 23.2 4.08804 23.2 4.82137V24.8214C23.2 25.5547 23.8 26.1547 24.5334 26.1547H26.6667C27.4 26.1547 28 25.5547 28 24.8214V4.82137C28 4.08804 27.4 3.48804 26.6667 3.48804Z" stroke="white" stroke-width="1.5" stroke-linecap="round" stroke-linejoin="round"/>
</svg>
