<svg width="18" height="18" viewBox="0 0 18 18" fill="none" xmlns="http://www.w3.org/2000/svg">
<path d="M4.0965 13.8671V11.6771C4.0965 10.9496 4.6665 10.2971 5.4765 10.2971C6.204 10.2971 6.8565 10.8671 6.8565 11.6771V13.7846C6.8565 15.2471 5.6415 16.4621 4.179 16.4621C2.7165 16.4621 1.5015 15.2396 1.5015 13.7846V9.16461C1.419 4.94961 4.749 1.53711 8.964 1.53711C13.179 1.53711 16.5015 4.94961 16.5015 9.08211V13.7021C16.5015 15.1646 15.2865 16.3796 13.824 16.3796C12.3615 16.3796 11.1465 15.1646 11.1465 13.7021V11.5946C11.1465 10.8671 11.7165 10.2146 12.5265 10.2146C13.254 10.2146 13.9065 10.7846 13.9065 11.5946V13.8671" stroke="#475467" stroke-width="1.2" stroke-linecap="round" stroke-linejoin="round"/>
</svg>
