<svg width="18" height="18" viewBox="0 0 18 18" fill="none" xmlns="http://www.w3.org/2000/svg">
<path d="M2.37891 5.58008L9.0014 9.41257L15.5789 5.60255" stroke="#475467" stroke-width="1.2" stroke-linecap="round" stroke-linejoin="round"/>
<path d="M9 16.2078V9.40527" stroke="#475467" stroke-width="1.2" stroke-linecap="round" stroke-linejoin="round"/>
<path d="M16.2079 6.8775V11.1225C16.2079 11.16 16.208 11.19 16.2005 11.2275C15.6755 10.77 15.0005 10.5 14.2505 10.5C13.5455 10.5 12.893 10.7475 12.3755 11.16C11.6855 11.7075 11.2505 12.555 11.2505 13.5C11.2505 14.0625 11.4079 14.595 11.6854 15.045C11.7529 15.165 11.8355 15.2775 11.9255 15.3825L10.553 16.14C9.69796 16.62 8.30295 16.62 7.44795 16.14L3.44296 13.92C2.53545 13.4175 1.79297 12.1575 1.79297 11.1225V6.8775C1.79297 5.8425 2.53545 4.58252 3.44296 4.08002L7.44795 1.86C8.30295 1.38 9.69796 1.38 10.553 1.86L14.558 4.08002C15.4655 4.58252 16.2079 5.8425 16.2079 6.8775Z" stroke="#475467" stroke-width="1.2" stroke-linecap="round" stroke-linejoin="round"/>
<path d="M17.25 13.5C17.25 14.4 16.8525 15.2025 16.23 15.75C15.6975 16.215 15.0075 16.5 14.25 16.5C12.5925 16.5 11.25 15.1575 11.25 13.5C11.25 12.555 11.685 11.7075 12.375 11.16C12.8925 10.7475 13.545 10.5 14.25 10.5C15.9075 10.5 17.25 11.8425 17.25 13.5Z" stroke="#475467" stroke-width="1.2" stroke-miterlimit="10" stroke-linecap="round" stroke-linejoin="round"/>
<path d="M14.4375 12.5625V13.6875L13.5 14.25" stroke="#475467" stroke-width="1.2" stroke-miterlimit="10" stroke-linecap="round" stroke-linejoin="round"/>
</svg>
