<svg width="24" height="24" viewBox="0 0 24 24" fill="none" xmlns="http://www.w3.org/2000/svg">
<path d="M19.79 4.22031C16.83 1.27031 12.03 1.27031 9.08999 4.22031C7.01999 6.27031 6.39999 9.22031 7.19999 11.8203L2.49999 16.5203C2.16999 16.8603 1.93999 17.5303 2.00999 18.0103L2.30999 20.1903C2.41999 20.9103 3.08999 21.5903 3.80999 21.6903L5.98999 21.9903C6.46999 22.0603 7.13999 21.8403 7.47999 21.4903L8.29999 20.6703C8.49999 20.4803 8.49999 20.1603 8.29999 19.9603L6.35999 18.0203C6.06999 17.7303 6.06999 17.2503 6.35999 16.9603C6.64999 16.6703 7.12999 16.6703 7.41999 16.9603L9.36999 18.9103C9.55999 19.1003 9.87999 19.1003 10.07 18.9103L12.19 16.8003C14.78 17.6103 17.73 16.9803 19.79 14.9303C22.74 11.9803 22.74 7.17031 19.79 4.22031ZM14.5 12.0003C13.12 12.0003 12 10.8803 12 9.50031C12 8.12031 13.12 7.00031 14.5 7.00031C15.88 7.00031 17 8.12031 17 9.50031C17 10.8803 15.88 12.0003 14.5 12.0003Z" fill="#845A31"/>
</svg>
