<svg width="18" height="20" viewBox="0 0 18 20" fill="none" xmlns="http://www.w3.org/2000/svg">
<g clip-path="url(#clip0_6543_10654)">
<path d="M13.5037 3.24514C12.7655 2.40371 11.431 2.04297 9.72387 2.04297H4.76917C4.60026 2.04298 4.43689 2.10324 4.30844 2.21292C4.17999 2.3226 4.09487 2.4745 4.0684 2.64133L2.00535 15.7257C1.96435 15.9837 2.16414 16.2173 2.42565 16.2173H5.48451L6.25272 11.3447L6.22888 11.4973C6.28361 11.1529 6.57817 10.8988 6.927 10.8988H8.38056C11.2361 10.8988 13.472 9.73897 14.1251 6.38379C14.1445 6.28456 14.1613 6.18798 14.1758 6.09362C14.0934 6.04996 14.0934 6.04996 14.1758 6.09362C14.3703 4.85351 14.1745 4.00938 13.5037 3.24514Z" fill="#27346A"/>
<path d="M7.42316 5.64689C7.50678 5.60707 7.59824 5.58644 7.69086 5.58649H11.5753C12.0352 5.58649 12.4643 5.61643 12.8563 5.67952C12.966 5.69702 13.0752 5.7179 13.1836 5.74215C13.3372 5.77605 13.4891 5.81755 13.6387 5.86649C13.8314 5.93086 14.0109 6.00583 14.1759 6.09362C14.3703 4.85303 14.1745 4.00938 13.5037 3.24514C12.7651 2.40371 11.431 2.04297 9.72387 2.04297H4.76874C4.41987 2.04297 4.12308 2.29696 4.0684 2.64133L2.00535 15.7252C1.96435 15.9836 2.16414 16.217 2.42522 16.217H5.48451L7.07831 6.10994C7.09398 6.01059 7.13355 5.91654 7.19362 5.83588C7.2537 5.75522 7.33247 5.69036 7.42316 5.64689Z" fill="#27346A"/>
<path d="M14.1261 6.38392C13.473 9.73862 11.2371 10.8989 8.38152 10.8989H6.92753C6.57871 10.8989 6.28409 11.153 6.22989 11.4974L5.27418 17.5559C5.23847 17.7817 5.41309 17.9864 5.64154 17.9864H8.22009C8.36779 17.9863 8.51064 17.9336 8.62294 17.8376C8.73523 17.7417 8.80961 17.6088 8.83269 17.4629L8.85781 17.3315L9.34379 14.2515L9.37511 14.0812C9.39819 13.9354 9.47256 13.8025 9.58484 13.7065C9.69713 13.6106 9.83996 13.5579 9.98766 13.5578H10.3736C12.8714 13.5578 14.8273 12.543 15.3988 9.60813C15.6374 8.38164 15.514 7.35764 14.8829 6.63839C14.6915 6.42053 14.4537 6.24061 14.1768 6.09375C14.1618 6.18858 14.1455 6.28469 14.1261 6.38392Z" fill="#2790C3"/>
<path d="M13.4935 5.82156C13.3916 5.79183 13.2888 5.7655 13.1852 5.74262C13.0768 5.71877 12.9676 5.69803 12.858 5.68043C12.4655 5.6169 12.0368 5.58692 11.5764 5.58692H7.69246C7.59976 5.58671 7.50823 5.60752 7.42475 5.64779C7.33395 5.69113 7.2551 5.75595 7.195 5.83663C7.1349 5.91732 7.09538 6.01144 7.07985 6.11084L6.25431 11.3452L6.23047 11.4978C6.28477 11.1533 6.57934 10.8993 6.92822 10.8993H8.3822C11.2377 10.8993 13.4736 9.73945 14.1267 6.38427C14.1462 6.28503 14.1625 6.18888 14.1775 6.09409C14.0121 6.00678 13.8331 5.93134 13.6403 5.86739C13.5916 5.85127 13.5427 5.83599 13.4935 5.82156" fill="#1F264F"/>
</g>
<defs>
<clipPath id="clip0_6543_10654">
<rect width="13.5629" height="16" fill="white" transform="translate(2 2)"/>
</clipPath>
</defs>
</svg>
