<svg width="32" height="33" viewBox="0 0 32 33" fill="none" xmlns="http://www.w3.org/2000/svg">
<path d="M13.9867 3.79462L7.33333 6.30129C5.79999 6.87462 4.54666 8.68795 4.54666 10.3146V20.2213C4.54666 21.7946 5.58666 23.8613 6.85333 24.808L12.5867 29.088C14.4667 30.5013 17.56 30.5013 19.44 29.088L25.1733 24.808C26.44 23.8613 27.48 21.7946 27.48 20.2213V10.3146C27.48 8.67462 26.2267 6.86129 24.6933 6.28795L18.04 3.79462C16.9067 3.38129 15.0933 3.38129 13.9867 3.79462Z" stroke="white" stroke-width="1.5" stroke-linecap="round" stroke-linejoin="round"/>
<path d="M16 17.4879C17.4728 17.4879 18.6667 16.294 18.6667 14.8212C18.6667 13.3484 17.4728 12.1545 16 12.1545C14.5273 12.1545 13.3333 13.3484 13.3333 14.8212C13.3333 16.294 14.5273 17.4879 16 17.4879Z" stroke="white" stroke-width="1.5" stroke-miterlimit="10" stroke-linecap="round" stroke-linejoin="round"/>
<path d="M16 17.488V21.488" stroke="white" stroke-width="1.5" stroke-miterlimit="10" stroke-linecap="round" stroke-linejoin="round"/>
</svg>
