<svg width="20" height="20" viewBox="0 0 20 20" fill="none" xmlns="http://www.w3.org/2000/svg">
<path d="M18.3337 6.29165C18.3337 6.84165 17.8837 7.29165 17.3337 7.29165H2.66699C2.11699 7.29165 1.66699 6.84165 1.66699 6.29165V6.28331C1.66699 4.37498 3.20866 2.83331 5.11699 2.83331H14.8753C16.7837 2.83331 18.3337 4.38331 18.3337 6.29165Z" fill="#292D32"/>
<path d="M1.66699 9.54169V13.7167C1.66699 15.625 3.20866 17.1667 5.11699 17.1667H14.8753C16.7837 17.1667 18.3337 15.6167 18.3337 13.7084V9.54169C18.3337 8.99169 17.8837 8.54169 17.3337 8.54169H2.66699C2.11699 8.54169 1.66699 8.99169 1.66699 9.54169ZM6.66699 14.375H5.00033C4.65866 14.375 4.37533 14.0917 4.37533 13.75C4.37533 13.4084 4.65866 13.125 5.00033 13.125H6.66699C7.00866 13.125 7.29199 13.4084 7.29199 13.75C7.29199 14.0917 7.00866 14.375 6.66699 14.375ZM12.0837 14.375H8.75033C8.40866 14.375 8.12533 14.0917 8.12533 13.75C8.12533 13.4084 8.40866 13.125 8.75033 13.125H12.0837C12.4253 13.125 12.7087 13.4084 12.7087 13.75C12.7087 14.0917 12.4253 14.375 12.0837 14.375Z" fill="#292D32"/>
</svg>
