<svg width="25" height="24" viewBox="0 0 25 24" fill="none" xmlns="http://www.w3.org/2000/svg">
<path d="M12.5 9.52C12.0095 9.52 11.53 9.66545 11.1222 9.93795C10.7144 10.2105 10.3965 10.5978 10.2088 11.0509C10.0211 11.5041 9.97196 12.0028 10.0677 12.4838C10.1633 12.9649 10.3995 13.4068 10.7464 13.7536C11.0932 14.1005 11.5351 14.3367 12.0162 14.4323C12.4972 14.528 12.9959 14.4789 13.4491 14.2912C13.9022 14.1035 14.2895 13.7856 14.562 13.3778C14.8346 12.97 14.98 12.4905 14.98 12C14.98 11.6743 14.9159 11.3518 14.7912 11.0509C14.6666 10.7501 14.4839 10.4767 14.2536 10.2464C14.0233 10.0161 13.7499 9.83341 13.4491 9.70878C13.1482 9.58415 12.8257 9.52 12.5 9.52ZM22.43 7.07C22.4247 6.29776 22.2825 5.53257 22.01 4.81C21.8093 4.28126 21.4987 3.80109 21.0988 3.40119C20.6989 3.00128 20.2187 2.69072 19.69 2.49C18.9674 2.21746 18.2022 2.07526 17.43 2.07C16.14 2 15.76 2 12.5 2C9.24 2 8.86 2 7.57 2.07C6.79776 2.07526 6.03257 2.21746 5.31 2.49C4.78126 2.69072 4.30109 3.00128 3.90119 3.40119C3.50128 3.80109 3.19072 4.28126 2.99 4.81C2.71746 5.53257 2.57526 6.29776 2.57 7.07C2.5 8.36 2.5 8.74 2.5 12C2.5 15.26 2.5 15.64 2.57 16.93C2.58076 17.705 2.72277 18.4725 2.99 19.2C3.18983 19.7263 3.50013 20.2037 3.9 20.6C4.29819 21.0023 4.77939 21.3129 5.31 21.51C6.03257 21.7825 6.79776 21.9247 7.57 21.93C8.86 22 9.24 22 12.5 22C15.76 22 16.14 22 17.43 21.93C18.2022 21.9247 18.9674 21.7825 19.69 21.51C20.2206 21.3129 20.7018 21.0023 21.1 20.6C21.4999 20.2037 21.8102 19.7263 22.01 19.2C22.2823 18.4739 22.4244 17.7055 22.43 16.93C22.5 15.64 22.5 15.26 22.5 12C22.5 8.74 22.5 8.36 22.43 7.07ZM19.89 15.07C19.8579 15.6871 19.7262 16.295 19.5 16.87C19.3059 17.3497 19.0173 17.7854 18.6514 18.1514C18.2854 18.5173 17.8497 18.8059 17.37 19C16.7895 19.2136 16.1783 19.3318 15.56 19.35H9.44C8.82173 19.3318 8.21049 19.2136 7.63 19C7.1341 18.8157 6.68628 18.5217 6.32 18.14C5.95767 17.7813 5.67784 17.3479 5.5 16.87C5.28556 16.2901 5.17061 15.6782 5.16 15.06V8.94C5.17061 8.32183 5.28556 7.70988 5.5 7.13C5.68428 6.6341 5.97827 6.18628 6.36 5.82C6.72033 5.45962 7.15326 5.18009 7.63 5C8.21049 4.78641 8.82173 4.66821 9.44 4.65H15.56C16.1783 4.66821 16.7895 4.78641 17.37 5C17.8659 5.18428 18.3137 5.47827 18.68 5.86C19.0423 6.21875 19.3222 6.65213 19.5 7.13C19.7136 7.71049 19.8318 8.32173 19.85 8.94V12C19.85 14.06 19.92 14.27 19.89 15.06V15.07ZM18.29 7.63C18.1709 7.30698 17.9832 7.01364 17.7398 6.77021C17.4964 6.52678 17.203 6.33906 16.88 6.22C16.4365 6.06626 15.9693 5.99179 15.5 6H9.5C9.02827 6.00461 8.56107 6.09263 8.12 6.26C7.80193 6.37366 7.51169 6.55371 7.26858 6.7882C7.02547 7.02269 6.83506 7.30624 6.71 7.62C6.56478 8.06537 6.49383 8.5316 6.5 9V15C6.50991 15.4712 6.59777 15.9375 6.76 16.38C6.87906 16.703 7.06678 16.9964 7.31021 17.2398C7.55364 17.4832 7.84698 17.6709 8.17 17.79C8.59667 17.9469 9.04565 18.0347 9.5 18.05H15.5C15.9717 18.0454 16.4389 17.9574 16.88 17.79C17.203 17.6709 17.4964 17.4832 17.7398 17.2398C17.9832 16.9964 18.1709 16.703 18.29 16.38C18.4574 15.9389 18.5454 15.4717 18.55 15V9C18.5503 8.5278 18.4621 8.05972 18.29 7.62V7.63ZM12.5 15.82C11.9988 15.82 11.5026 15.7211 11.0397 15.529C10.5768 15.3369 10.1563 15.0554 9.80238 14.7005C9.44846 14.3457 9.16803 13.9245 8.97714 13.4611C8.78626 12.9977 8.68868 12.5012 8.69 12C8.69 11.2441 8.9143 10.5051 9.33449 9.87669C9.75468 9.24828 10.3519 8.75866 11.0505 8.46983C11.7491 8.181 12.5177 8.10594 13.2589 8.25415C14.0002 8.40236 14.6808 8.76717 15.2147 9.30241C15.7485 9.83764 16.1116 10.5192 16.2578 11.2609C16.4041 12.0026 16.327 12.771 16.0363 13.4688C15.7457 14.1666 15.2545 14.7625 14.625 15.1811C13.9955 15.5996 13.2559 15.822 12.5 15.82ZM16.5 8.93C16.2789 8.9066 16.0744 8.80222 15.9257 8.63697C15.777 8.47172 15.6947 8.25729 15.6947 8.035C15.6947 7.81271 15.777 7.59828 15.9257 7.43303C16.0744 7.26778 16.2789 7.1634 16.5 7.14C16.7211 7.1634 16.9256 7.26778 17.0743 7.43303C17.223 7.59828 17.3053 7.81271 17.3053 8.035C17.3053 8.25729 17.223 8.47172 17.0743 8.63697C16.9256 8.80222 16.7211 8.9066 16.5 8.93Z" fill="url(#paint0_linear_1630_6826)"/>
<defs>
<linearGradient id="paint0_linear_1630_6826" x1="10.7976" y1="15.125" x2="18.6607" y2="15.1915" gradientUnits="userSpaceOnUse">
<stop stop-color="#7CCA68"/>
<stop offset="1" stop-color="#62CA9E"/>
</linearGradient>
</defs>
</svg>
