<svg width="25" height="24" viewBox="0 0 25 24" fill="none" xmlns="http://www.w3.org/2000/svg">
<path d="M21.4727 6.7174C21.0083 7.33692 20.4469 7.87733 19.8102 8.31776C19.8102 8.47959 19.8102 8.64142 19.8102 8.81225C19.8153 11.7511 18.6414 14.5691 16.5517 16.6345C14.4619 18.6999 11.6311 19.8399 8.69393 19.7989C6.99587 19.8046 5.31955 19.4169 3.7963 18.6661C3.71416 18.6302 3.66119 18.549 3.6615 18.4593V18.3604C3.6615 18.2313 3.76611 18.1267 3.89515 18.1267C5.5643 18.0716 7.1739 17.4929 8.49622 16.4724C6.98541 16.4419 5.62607 15.5469 5.00048 14.1707C4.96889 14.0956 4.97872 14.0093 5.02645 13.9432C5.07417 13.8771 5.15288 13.8407 5.23413 13.8471C5.6933 13.8932 6.15706 13.8505 6.60008 13.7212C4.93227 13.375 3.67909 11.9904 3.49974 10.2957C3.49337 10.2144 3.5298 10.1357 3.59588 10.0879C3.66195 10.0402 3.74812 10.0303 3.82326 10.062C4.27082 10.2595 4.75397 10.3635 5.24312 10.3676C3.78172 9.40846 3.15049 7.58405 3.70643 5.92622C3.76382 5.76513 3.90169 5.64612 4.06938 5.61294C4.23706 5.57975 4.40984 5.63728 4.5242 5.76439C6.49627 7.86325 9.20592 9.11396 12.0818 9.25279C12.0082 8.95885 11.972 8.65676 11.974 8.35372C12.0009 6.76472 12.9841 5.34921 14.4633 4.76987C15.9424 4.19054 17.6248 4.56203 18.7229 5.71044C19.4713 5.56785 20.1949 5.31645 20.8706 4.96421C20.9201 4.93331 20.9829 4.93331 21.0324 4.96421C21.0633 5.01373 21.0633 5.07652 21.0324 5.12604C20.7051 5.87552 20.1522 6.50412 19.4508 6.92419C20.065 6.85296 20.6684 6.70807 21.2481 6.49264C21.2969 6.45942 21.361 6.45942 21.4098 6.49264C21.4507 6.51134 21.4813 6.54711 21.4934 6.59042C21.5055 6.63373 21.4979 6.68018 21.4727 6.7174Z" fill="url(#paint0_linear_1630_6824)"/>
<defs>
<linearGradient id="paint0_linear_1630_6824" x1="10.9668" y1="14.5406" x2="18.0434" y2="14.611" gradientUnits="userSpaceOnUse">
<stop stop-color="#7CCA68"/>
<stop offset="1" stop-color="#62CA9E"/>
</linearGradient>
</defs>
</svg>
