<svg width="72" height="72" viewBox="0 0 72 72" fill="none" xmlns="http://www.w3.org/2000/svg">
<rect width="72" height="72" rx="36" fill="#F0F3F4"/>
<path d="M49.7142 51.4286V48C49.7142 46.1814 48.9918 44.4373 47.7058 43.1513C46.4198 41.8654 44.6757 41.1429 42.8571 41.1429H29.1428C27.3242 41.1429 25.58 41.8654 24.2941 43.1513C23.0081 44.4373 22.2856 46.1814 22.2856 48V51.4286M42.8571 27.4286C42.8571 31.2157 39.787 34.2858 35.9999 34.2858C32.2128 34.2858 29.1428 31.2157 29.1428 27.4286C29.1428 23.6415 32.2128 20.5715 35.9999 20.5715C39.787 20.5715 42.8571 23.6415 42.8571 27.4286Z" stroke="#475467" stroke-width="3.42857" stroke-linecap="round" stroke-linejoin="round"/>
</svg>
