<svg width="431" height="437" viewBox="0 0 431 437" fill="none" xmlns="http://www.w3.org/2000/svg">
<path opacity="0.96" d="M265.262 41.1161C271.253 42.1786 276.647 44.3336 281.442 47.5069C286.007 51.4205 290.034 56.0959 293.559 61.2996C296.984 66.6964 300.007 72.2058 302.692 77.6027C305.433 82.6014 307.928 87.1958 310.215 91.2857C313.871 96.1417 321.147 102.707 325.056 105.054C328.121 106.43 331.362 108.021 334.868 109.969C338.924 112.166 343.349 114.958 348.177 118.423C353.541 122.368 359.264 127.039 365.263 132.389C371.484 138.204 377.677 144.573 383.589 151.349C389.085 158.337 393.797 165.499 397.438 172.653C399.941 179.7 400.96 186.531 400.36 193.019C398.404 199.233 394.921 205.07 390.111 210.508C384.627 215.818 378.547 220.911 372.348 225.88C366.832 231.069 362.136 236.393 358.673 241.932C356.934 247.987 356.786 254.346 358.183 260.969C361.041 268.015 364.682 274.94 368.557 281.57C372.379 288.177 375.362 294.156 377.093 299.395C377.501 304.221 376.166 308.164 373.099 311.213C368.543 313.831 362.571 315.691 355.528 316.929C347.787 318.047 339.676 318.835 331.547 319.477C323.695 320.444 316.342 321.577 309.648 323.042C303.737 325.201 298.564 327.906 294.041 331.252C290.212 335.449 286.786 340.349 283.57 345.931C280.671 352.256 277.672 359.107 274.438 366.334C271.206 373.859 267.589 381.36 263.585 388.564C259.516 395.349 255.106 401.296 250.456 406.077C245.878 409.718 241.212 411.77 236.556 412.079C232.101 410.951 227.728 408.108 223.485 403.695C219.37 398.38 215.276 392.123 211.151 385.361C206.865 378.953 202.325 372.981 197.446 367.903C192.1 364.408 186.265 362.399 179.931 362.007C173.077 363.411 165.975 366.053 158.773 369.503C151.362 373.595 144.108 377.504 137.131 380.737C130.338 383.181 124.017 384.177 118.217 383.502C112.781 381.313 107.865 377.335 103.405 371.727C99.2284 364.839 95.3634 356.769 91.7204 347.86C88.1334 338.5 84.6004 328.927 81.0831 319.455C77.4589 310.351 73.7907 301.783 70.1044 293.89C66.3222 286.813 62.5986 280.53 59.0313 275.011C55.5155 270.336 52.2972 266.294 49.4685 262.773C43.561 254.984 40.1436 244.119 40.3127 239.653C40.2663 236.39 40.2675 232.682 40.2412 228.507C39.8015 224.123 39.2766 219.293 38.6927 214.054C37.7764 208.658 36.9374 202.945 36.3064 196.974C35.6814 190.982 35.5276 184.846 35.9962 178.631C36.8629 172.523 38.5132 166.547 40.9453 160.708C43.8534 155.015 47.4701 149.431 51.6734 143.943C56.106 138.506 60.8989 133.077 65.9028 127.636C70.7623 122.131 75.6232 116.544 80.3887 110.879C84.761 105.114 88.9614 99.2767 92.9834 93.4177C96.5904 87.5341 100.086 81.7297 103.512 76.1125C106.679 70.6497 109.911 65.524 113.238 60.8625C116.51 56.57 119.998 52.8877 123.696 49.9102C127.481 47.4468 131.525 45.7539 135.807 44.8481C140.242 44.4086 144.912 44.6663 149.792 45.5548C154.868 46.6334 160.148 48.0819 165.614 49.7547C171.314 51.1843 177.217 52.5248 183.307 53.6307C189.669 54.1047 196.222 54.1458 202.939 53.7013C209.896 52.5564 216.969 51.0086 224.083 49.169C231.315 46.9939 238.482 44.8957 245.48 43.0967C252.399 41.6226 259.019 40.8983 265.253 41.1209M258.366 31.0728C264.755 31.7983 270.66 33.7273 276.062 36.7831C281.273 40.6259 286.025 45.2854 290.325 50.4942C294.534 55.8578 298.359 61.2842 301.813 66.5438C305.289 71.2925 308.427 75.5545 311.254 79.2341C315.462 83.319 322.779 88.2097 326.122 89.8282C329.913 91.4197 339.017 97.2607 344.976 102.187C349.821 106.314 355.213 111.242 361.126 116.92C367.554 123.145 374.251 129.98 380.965 137.276C387.509 144.856 393.486 152.64 398.53 160.471C402.477 168.241 404.91 175.816 405.597 183.067C404.725 190.071 402.072 196.677 397.804 202.886C392.615 208.919 386.587 214.7 380.267 220.315C374.572 226.065 369.717 231.894 366.18 237.882C364.579 244.286 364.776 250.946 366.706 257.825C370.302 265.061 374.728 272.15 379.343 278.937C383.824 285.673 387.233 291.817 389.128 297.235C389.427 302.268 387.716 306.448 384.053 309.772C378.782 312.701 372.047 314.872 364.3 316.411C356.013 317.828 347.577 318.856 339.407 319.658C331.84 320.735 325.082 321.863 319.256 323.183C314.477 325.142 310.602 327.528 307.458 330.463C305.09 334.254 303.061 338.728 301.127 343.913C299.375 349.972 297.316 356.685 294.78 363.963C292.018 371.752 288.606 379.757 284.561 387.699C280.218 395.41 275.32 402.457 270.003 408.477C264.589 413.358 258.953 416.636 253.245 418.084C247.656 417.893 242.131 415.784 236.75 411.854C231.486 406.772 226.325 400.529 221.215 393.614C216.012 386.961 210.68 380.739 205.162 375.487C199.264 371.968 193.028 370.157 186.454 370.191C179.438 372.251 172.326 375.706 165.219 380.049C157.951 385.04 150.912 389.746 144.202 393.593C137.657 396.437 131.583 397.558 126.009 396.761C120.708 394.214 115.858 389.707 111.402 383.463C107.082 375.911 102.976 367.228 98.9834 357.85C94.9104 348.201 90.7894 338.571 86.5777 329.299C82.1466 320.641 77.5863 312.754 72.9387 305.713C68.142 299.671 63.3691 294.499 58.7373 290.09C54.1641 286.559 49.919 283.563 46.1172 280.938C41.1148 277.815 34.6693 271.739 33.1992 268.133C32.4441 264.005 32.2108 253.118 32.0967 246.309C31.5786 241.382 30.9465 236.038 30.207 230.316C29.0851 224.446 27.9951 218.292 27.0585 211.931C26.1069 205.538 25.6123 199.048 25.7243 192.505C26.246 186.051 27.5761 179.756 29.6993 173.624C32.3254 167.585 35.6572 161.677 39.5713 155.864C43.6859 150.065 48.1332 144.272 52.7467 138.45C57.1708 132.528 61.5449 126.502 65.7964 120.369C69.621 114.094 73.2799 107.711 76.7812 101.25C79.9045 94.7227 82.9871 88.2152 86.0975 81.8157C89.0514 75.5352 92.1994 69.5361 95.5884 63.9373C99.0524 58.6961 102.864 54.0379 107.014 50.0697C111.349 46.6572 116.044 44.0409 121.036 42.2729C126.225 41.0774 131.666 40.6696 137.313 40.9959C143.116 41.6393 149.086 42.7614 155.172 44.2208C161.426 45.5058 167.802 46.7659 174.286 47.8243C180.954 48.2319 187.741 48.1858 194.644 47.5981C201.718 46.2189 208.881 44.3507 216.086 42.1209C223.383 39.4675 230.645 36.836 237.8 34.501C244.886 32.4854 251.767 31.2608 258.359 31.0713M220.482 2.17984C227.762 1.58324 235.077 2.47814 242.391 4.75774C249.699 7.91084 256.986 11.9729 264.187 16.5889C271.331 21.1623 278.327 25.6435 285.066 29.7695C291.643 33.0646 297.85 35.7277 303.581 37.7517C311.421 39.2359 323.196 40.3864 326.967 41.3522C329.716 43.3477 333.444 52.388 335.745 59.5678C338.302 65.2348 341.682 71.5837 346.121 78.4651C351.902 85.7016 358.862 93.2507 366.901 100.992C375.828 108.803 385.203 116.651 394.485 124.448C403.22 132.161 410.72 139.766 416.387 147.244C420.044 154.587 421.216 161.824 419.831 168.975C416.564 176.006 411.522 183.008 405.407 190.01C399.541 196.948 394.378 203.943 390.756 211.017C389.663 218.061 391.04 225.227 394.84 232.499C400.905 239.771 408 246.979 415.094 254.102C421.649 261.204 426.337 268.17 428.545 274.931C428.304 281.614 425.215 288.005 419.604 294.02C412.211 299.85 403.469 305.198 394.165 309.97C385.11 314.451 376.801 318.272 369.699 321.39C359.537 327.646 358.272 333.682 358.5 336.679C358.017 339.903 356.49 344.079 353.869 349.384C350.468 356.024 345.979 363.815 340.546 372.613C334.46 382.201 327.663 392.143 320.356 401.929C312.707 411.118 304.781 419.072 296.735 425.215C288.589 429.369 280.464 431.038 272.446 430.101C264.45 427.118 256.602 422.104 248.932 415.635C241.312 408.945 233.862 402.426 226.59 396.936C219.346 393.613 212.251 392.562 205.327 394.046C198.395 398.279 191.776 404.322 185.449 411.395C179.114 419.051 173.056 425.918 167.275 431.194C161.466 434.667 155.905 435.505 150.586 433.602C145.195 429.355 139.99 422.8 134.947 414.484C129.756 405.132 124.65 395.239 119.579 385.432C114.267 376.306 108.919 368.182 103.486 361.315C97.7624 355.974 91.9244 352.005 85.9734 349.228C79.7877 347.744 73.5665 346.991 67.3808 346.622C61.1595 346.771 55.1585 346.742 49.4912 346.281C44.0867 345.656 39.2148 344.257 34.9821 342.02C31.2039 339.3 28.1359 335.685 25.771 331.261C23.7682 326.354 22.3124 320.758 21.2968 314.6C20.2599 308.124 19.3722 301.25 18.5058 294.112C17.2132 286.812 15.7431 279.369 14.0955 271.884C11.965 264.343 9.76336 256.829 7.63276 249.401C5.42406 241.958 3.63446 234.629 2.46266 227.428C1.73116 220.235 1.86606 213.325 2.87456 206.706C4.38016 200.052 6.61006 193.646 9.39406 187.446C12.2845 181.176 15.3881 175.054 18.5555 169.039C21.3536 162.875 24.0026 156.732 26.4598 150.554C28.42 144.155 30.2593 137.636 32.0632 130.975C33.6327 124.036 35.4153 116.921 37.5316 109.627C39.7971 102.128 42.6166 94.5357 46.0255 86.9231C49.8321 79.3386 54.292 71.9387 59.3414 64.8869C64.7815 58.2185 70.7257 52.1608 77.0606 46.8772C83.6085 42.2896 90.4054 38.6323 97.3574 35.9834C104.324 34.0233 111.334 32.9368 118.343 32.6243C125.246 32.5249 132.114 32.7664 138.939 33.1001C145.629 32.9226 152.297 32.3616 158.98 31.2324C165.542 29.1232 172.161 26.3323 178.865 22.9448C185.506 18.8543 192.281 14.6147 199.205 10.5668C206.101 6.77454 213.189 3.87004 220.475 2.17984M236.394 11.1464C243.458 11.033 250.35 12.3385 257.057 14.948C263.689 18.4278 270.123 22.7978 276.337 27.7432C282.472 32.7186 288.352 37.6688 293.91 42.333C299.363 46.2706 304.418 49.6034 309.005 52.2981C315.331 54.7597 324.766 57.0634 327.886 58.0385C330.496 59.5968 335.293 66.8698 338.671 72.9817C341.998 77.9866 346.139 83.7681 351.237 90.2147C357.438 97.1677 364.545 104.611 372.381 112.404C380.727 120.434 389.128 128.602 397.108 136.79C404.271 144.942 410.048 152.961 413.946 160.775C415.943 168.384 415.672 175.741 413.149 182.846C409.093 189.771 403.597 196.516 397.325 203.157C391.483 209.778 386.399 216.439 382.797 223.183C381.533 230.085 382.5 237.158 385.643 244.379C390.854 251.745 397.011 259.014 403.233 266.082C409.073 273.101 413.331 279.759 415.426 285.973C415.381 291.957 412.734 297.38 407.737 302.203C400.965 306.751 392.75 310.677 383.766 313.987C374.718 317.099 366.094 319.651 358.355 321.675C349.393 324.466 340.247 328.868 339.027 331.224C339.178 334.83 337.988 346.542 335.241 355.397C332.455 362.675 328.637 370.771 323.871 379.49C318.472 388.591 312.314 397.654 305.566 406.204C298.488 413.884 291.082 420.153 283.539 424.54C275.953 427.016 268.409 427.173 261.009 424.992C253.696 421.087 246.553 415.471 239.612 408.701C232.68 401.918 225.855 395.42 219.121 389.968C212.257 386.55 205.388 385.225 198.519 386.207C191.481 389.696 184.616 394.864 177.979 401.031C171.277 407.819 164.873 414.016 158.826 418.893C152.829 422.257 147.208 423.305 141.955 421.88C136.748 418.288 131.841 412.466 127.154 404.838C122.388 396.015 117.706 386.394 113.027 376.538C108.098 366.992 103.053 358.085 97.8634 350.129C92.3434 343.403 86.6537 337.876 80.8333 333.492C74.7894 330.36 68.7213 328.073 62.7468 326.377C56.793 325.394 51.1369 324.532 45.9093 323.55C38.8552 322.02 28.7523 315.874 25.8141 310.904C24.4084 307.017 23.5193 302.469 23.026 297.358C22.455 291.936 21.9949 286.051 21.5259 279.789C20.6226 273.325 19.5461 266.592 18.2903 259.676C16.5785 252.664 14.8095 245.555 13.1275 238.423C11.3827 231.273 10.063 224.154 9.34996 217.112C9.06916 210.101 9.63196 203.342 11.0315 196.834C12.943 190.334 15.5666 184.034 18.7479 177.901C22.0754 171.714 25.6539 165.602 29.3149 159.532C32.6662 153.311 35.8929 147.039 38.94 140.69C41.5047 134.115 43.922 127.409 46.2572 120.554C48.3004 113.501 50.4729 106.329 52.8853 99.0877C55.3527 91.7727 58.2725 84.5032 61.6944 77.3836C65.4302 70.4569 69.746 63.8845 74.6169 57.8212C79.8373 52.2524 85.541 47.4012 91.6414 43.3896C97.9634 40.0628 104.555 37.6522 111.309 36.1785C118.137 35.2583 125.041 35.0909 131.959 35.5225C138.851 36.0235 145.744 36.7097 152.618 37.366C159.448 37.4284 166.295 37.0576 173.168 36.1121C180.023 34.2183 186.942 31.7027 193.927 28.672C200.905 25.0356 207.953 21.3116 215.062 17.8269C222.137 14.6246 229.257 12.3011 236.387 11.1459M248.978 20.9608C255.739 21.2893 262.154 22.9388 268.209 25.8139C274.125 29.5157 279.695 34.0865 284.912 39.224C290.044 44.4571 294.842 49.7145 299.278 54.7483C303.66 59.1504 307.673 63.0125 311.267 66.2483C316.372 69.548 324.338 73.0531 327.358 74.2205C330.381 75.6109 337.132 81.7695 341.802 87.1164C345.93 91.5897 350.773 96.8897 356.377 102.936C362.798 109.55 369.81 116.75 377.188 124.396C384.712 132.336 391.947 140.485 398.474 148.678C404.007 156.844 408.057 164.843 410.268 172.566C410.733 180.049 409.167 187.193 405.671 193.977C400.957 200.56 395.128 206.905 388.785 213.084C382.993 219.32 378.007 225.591 374.431 231.984C372.987 238.672 373.556 245.574 376.079 252.66C380.452 260.009 385.725 267.228 391.123 274.17C396.27 281.062 400.107 287.438 402.109 293.188C402.251 298.609 400.08 303.286 395.751 307.205C389.715 310.766 382.201 313.623 373.765 315.847C365.013 317.926 356.371 319.532 348.31 320.783C341.195 322.191 335.192 323.454 330.36 324.698C325.542 327.407 321.063 335.665 319.772 341.93C318.909 347.302 317.489 353.463 315.353 360.375C312.761 368.07 309.303 376.258 305.006 384.7C300.209 393.179 294.713 401.271 288.665 408.554C282.372 414.783 275.781 419.478 269.063 422.283C262.377 423.299 255.749 422.186 249.265 418.999C242.898 414.387 236.681 408.354 230.606 401.431C224.503 394.654 218.397 388.25 212.245 382.872C205.832 379.386 199.25 377.799 192.495 378.296C185.417 381.057 178.387 385.36 171.479 390.613C164.452 396.508 157.706 401.985 151.329 406.387C145.063 409.543 139.248 410.69 133.881 409.641C128.679 406.622 123.862 401.491 119.35 394.574C114.849 386.361 110.489 377.156 106.157 367.453C101.634 357.73 97.0084 348.323 92.2214 339.552C87.1384 331.701 81.8929 324.845 76.5105 319.002C70.9362 314.309 65.3587 310.498 59.9074 307.414C54.504 305.155 49.4364 303.259 44.8198 301.521C38.6944 299.346 30.3944 293.642 28.2476 289.564C27.2746 286.463 26.7693 282.798 26.6139 278.587C26.3298 274.121 26.1326 269.144 25.919 263.727C25.2632 258.089 24.4595 252.079 23.5029 245.782C22.1213 239.345 20.7244 232.713 19.44 225.946C18.1224 219.16 17.2346 212.328 16.9474 205.508C17.0901 198.743 18.0566 192.188 19.8348 185.827C22.1212 179.524 25.1158 173.386 28.682 167.365C32.424 161.319 36.4482 155.306 40.603 149.282C44.5116 143.123 48.3327 136.873 51.989 130.521C55.1992 123.976 58.2426 117.292 61.1573 110.505C63.7405 103.577 66.3658 96.6037 69.1237 89.6577C71.8335 82.7477 74.8698 76.0131 78.294 69.5774C81.9123 63.4419 86.0122 57.8051 90.5684 52.7926C95.4064 48.3221 100.677 44.6447 106.306 41.8287C112.145 39.6523 118.263 38.3474 124.563 37.8789C130.98 37.8431 137.519 38.4199 144.121 39.4647C150.784 40.432 157.508 41.4726 164.266 42.3746C171.093 42.6408 177.985 42.443 184.943 41.6877C191.983 40.0475 199.095 37.8509 206.256 35.2093C213.46 32.0575 220.69 28.8805 227.881 25.9707C235.022 23.3693 242.072 21.6086 248.971 20.9598M269.528 50.7306C275.073 52.0743 279.971 54.3911 284.231 57.6229C288.219 61.5496 291.634 66.1731 294.529 71.3019C297.32 76.6724 299.734 82.184 301.844 87.6592C304.057 92.8547 306.099 97.7297 308.042 102.199C311.389 107.849 318.946 116.35 323.438 119.69C326.996 121.68 330.816 123.804 334.95 126.203C339.586 128.741 344.54 131.752 349.778 135.306C355.396 139.204 361.167 143.696 366.974 148.746C372.779 154.112 378.291 159.924 383.307 166.037C387.732 172.251 391.239 178.558 393.603 184.8C394.863 190.879 394.721 196.714 393.112 202.198C390.365 207.422 386.332 212.295 381.236 216.829C375.686 221.28 369.734 225.59 363.785 229.849C358.538 234.403 354.068 239.168 350.711 244.221C348.881 249.851 348.438 255.847 349.333 262.155C351.519 268.944 354.409 275.653 357.553 282.121C360.715 288.582 363.234 294.465 364.731 299.632C365.139 304.405 364.068 308.302 361.481 311.345C357.545 313.938 352.271 315.788 345.905 317.048C338.741 318.151 331.019 318.964 323.047 319.671C315.081 320.675 307.314 321.896 299.935 323.502C293.075 325.753 286.742 328.591 280.927 332.074C275.705 336.335 270.884 341.251 266.344 346.762C262.208 352.882 258.154 359.397 254.084 366.117C250.222 372.975 246.242 379.637 242.13 385.835C238.178 391.517 234.135 396.272 230.055 399.834C224.324 402.802 213.734 399.171 208.941 392.845C205.906 387.521 202.833 381.434 199.632 374.975C196.219 368.929 192.447 363.304 188.213 358.462C183.433 355.038 178.049 352.891 172.044 352.119C165.452 352.925 158.505 354.796 151.341 357.382C143.937 360.598 136.609 363.69 129.504 366.26C122.583 368.246 116.111 369.013 110.166 368.369C104.644 366.451 99.6924 362.941 95.2764 357.934C91.2524 351.74 87.6464 344.367 84.387 336.093C81.3339 327.259 78.4587 318.043 75.7326 308.732C73.0266 299.571 70.3733 290.741 67.7946 282.407C65.1832 274.696 62.6766 267.667 60.3348 261.342C58.0301 255.78 55.9839 250.873 54.2589 246.553C52.048 241.23 49.7624 232.716 49.6173 228.894C49.6469 225.091 50.1034 216.035 50.1494 210.46C49.7685 206.415 49.3401 201.944 48.8992 197.076C48.164 192.061 47.5556 186.721 47.1933 181.125C46.8584 175.515 47.0179 169.755 47.7979 163.913C48.9535 158.201 50.8672 152.609 53.5332 147.173C56.6591 141.907 60.4733 136.764 64.8725 131.739C69.5183 126.805 74.5359 121.908 79.8022 117.036C84.9703 112.142 90.1664 107.213 95.3004 102.246C100.084 97.2257 104.695 92.1797 109.102 87.1729C113.088 82.1618 116.896 77.2823 120.547 72.6249C123.86 68.1234 127.113 63.9929 130.342 60.338C134.969 55.6388 144.692 50.09 149.945 49.3666C153.609 49.466 157.495 50.1542 161.588 51.3498C165.885 52.6281 170.43 54.1791 175.21 55.87C180.285 57.2756 185.627 58.5523 191.233 59.5856C197.167 60.0358 203.35 60.0938 209.754 59.7406C216.436 58.7939 223.258 57.528 230.136 56.0482C237.144 54.3206 244.069 52.7141 250.791 51.4114C257.416 50.436 263.695 50.1509 269.522 50.7281M273.069 60.1371C278.178 61.7129 282.629 64.1608 286.433 67.4392C289.939 71.3463 292.88 75.9026 295.319 80.9496C297.639 86.2621 299.614 91.7697 301.343 97.3067C303.188 102.67 304.948 107.824 306.7 112.686C308.778 117.119 310.978 121.193 313.351 124.934C316.191 128.245 319.282 131.326 322.66 134.288C326.541 137.033 330.727 139.844 335.22 142.84C340.149 145.87 345.314 149.239 350.645 153.002C356.206 156.947 361.74 161.331 367.118 166.096C372.318 171.015 377.056 176.233 381.121 181.615C384.536 186.968 386.949 192.315 388.223 197.53C388.483 202.523 387.454 207.247 385.131 211.645C381.885 215.791 377.582 219.64 372.425 223.222C367.007 226.779 361.323 230.287 355.73 233.836C350.818 237.738 346.628 241.942 343.408 246.497C341.527 251.678 340.83 257.291 341.273 263.278C342.83 269.765 345.02 276.25 347.457 282.565C349.962 288.903 351.966 294.743 353.16 299.946C353.464 304.771 352.508 308.796 350.239 312.019C346.779 314.791 342.069 316.861 336.275 318.365C329.647 319.663 322.32 320.679 314.563 321.595C306.589 322.717 298.575 324.046 290.693 325.724C283.104 327.945 275.835 330.701 268.939 334.029C262.521 338.008 256.465 342.548 250.725 347.581C245.43 353.063 240.358 358.809 235.461 364.634C230.927 370.466 226.511 376.001 222.212 380.982C216.36 387.179 206.028 392.706 201.66 391.355C199.158 388.99 196.811 385.363 194.578 380.619C192.463 375.422 190.26 369.625 187.861 363.553C185.211 357.936 182.112 352.693 178.465 348.131C174.24 344.819 169.314 342.578 163.684 341.468C157.436 341.747 150.736 342.928 143.742 344.709C136.474 347.099 129.216 349.415 122.126 351.324C115.203 352.826 108.707 353.328 102.729 352.646C97.2044 350.922 92.2884 347.812 87.9694 343.375C84.129 337.877 80.8152 331.26 77.9637 323.738C75.4468 315.611 73.2531 306.991 71.3267 298.14C69.5554 289.274 67.9492 280.56 66.5029 272.183C65.1063 264.249 63.8557 256.856 62.7795 250.078C61.7319 243.929 60.8977 238.413 60.3194 233.487C59.6382 227.199 59.6435 217.155 60.2212 212.828C60.7136 208.672 61.6194 199.431 61.7957 193.988C61.5097 190.074 61.2023 185.792 60.9154 181.154C60.3753 176.386 59.9953 171.331 59.8983 166.046C59.8331 160.76 60.2688 155.364 61.312 149.899C62.7114 144.594 64.8289 139.442 67.6653 134.457C70.9327 129.674 74.8519 125.053 79.3464 120.589C84.0848 116.258 89.2084 112.022 94.5924 107.85C99.9134 103.711 105.296 99.5927 110.635 95.5007C115.662 91.3777 120.525 87.2899 125.171 83.2838C129.395 79.2821 133.394 75.4517 137.161 71.8596C142.171 66.8407 151.149 59.2863 155.369 57.0743C159.499 55.9118 168.391 56.8158 173.357 58.569C176.944 59.841 180.805 61.3148 184.946 62.8599C189.405 64.0807 194.192 65.1768 199.284 66.0444C204.746 66.3852 210.51 66.4023 216.524 66.0882C222.839 65.2788 229.319 64.2401 235.874 63.0713C242.54 61.7422 249.125 60.5562 255.502 59.6966C261.758 59.1565 267.642 59.2513 273.063 60.1342M276.353 69.5886C281.037 71.3588 285.088 73.9172 288.517 77.213C291.632 81.0905 294.208 85.581 296.325 90.5507C298.306 95.8017 299.984 101.301 301.466 106.896C303.061 112.415 304.633 117.842 306.256 123.085C308.208 128.015 310.363 132.689 312.753 137.12C315.602 141.193 318.761 145.078 322.239 148.852C326.188 152.38 330.438 155.932 334.952 159.578C339.821 163.149 344.846 166.925 349.927 170.941C355.106 174.969 360.132 179.253 364.856 183.754C369.304 188.228 373.172 192.833 376.294 197.464C379.482 204.114 379.274 216.163 375.679 221.285C372.209 224.362 367.869 227.212 362.864 229.89C357.744 232.587 352.454 235.329 347.3 238.209C342.801 241.49 338.926 245.14 335.88 249.227C333.985 253.949 333.07 259.157 333.101 264.811C334.088 270.979 335.608 277.224 337.346 283.376C339.197 289.589 340.656 295.406 341.448 300.679C341.535 305.613 340.567 309.841 338.453 313.35C335.315 316.411 331.023 318.811 325.696 320.679C319.54 322.287 312.613 323.592 305.12 324.762C297.282 326.021 289.195 327.412 281.049 329.062C272.99 331.105 265.09 333.572 257.425 336.489C250.113 339.885 243.119 343.711 236.452 347.89C230.229 352.381 224.333 357.015 218.756 361.611C213.647 366.144 208.851 370.322 204.371 373.928C193.932 379.255 183.231 373.304 180.906 366.699C179.492 361.712 177.967 356.272 176.214 350.643C174.169 345.479 171.636 340.64 168.503 336.375C164.773 333.206 160.301 330.905 155.09 329.529C149.236 329.348 142.886 329.907 136.191 330.975C129.2 332.608 122.161 334.209 115.25 335.498C108.486 336.529 102.108 336.751 96.2374 336.003C90.8284 334.44 86.0358 331.7 81.8973 327.821C78.2915 323.026 75.2913 317.211 72.8632 310.542C70.863 303.273 69.3109 295.47 68.1497 287.346C67.2434 279.093 66.6194 270.854 66.2471 262.808C65.9841 255.037 65.9217 247.674 66.0448 240.805C66.1978 234.42 66.5252 228.58 67.0428 223.286C67.8589 216.298 70.1462 204.852 71.4951 199.917C72.5319 195.216 74.0963 185.309 74.4979 179.751C74.3844 175.795 74.2602 171.559 74.1667 167.041C73.8605 162.409 73.739 157.553 73.8959 152.525C74.1028 147.524 74.7884 142.457 76.065 137.386C77.6573 132.493 79.9206 127.792 82.8478 123.31C86.1685 119.057 90.0994 115.019 94.5704 111.19C99.2744 107.528 104.361 104.023 109.699 100.653C115.015 97.3517 120.405 94.1387 125.757 91.0107C130.849 87.8868 135.779 84.838 140.487 81.9192C144.8 78.9981 148.864 76.2569 152.643 73.7583C157.628 70.279 166.112 65.4079 169.845 64.2392C173.359 63.8234 180.697 65.3998 184.808 67.1115C189.471 68.8621 200.783 72.1334 207.548 73.1843C212.542 73.3465 217.863 73.2739 223.471 72.9525C229.365 72.2361 235.44 71.3758 241.603 70.4737C247.855 69.4662 254.034 68.6535 260.025 68.1752C265.857 68.0066 271.329 68.4342 276.347 69.5852M279.954 79.5255C284.244 81.4581 287.938 84.1063 291.064 87.4282C293.855 91.2777 296.164 95.7047 298.044 100.61C299.774 105.805 301.243 111.28 302.557 116.935C303.947 122.588 305.349 128.248 306.842 133.831C308.638 139.202 310.65 144.417 312.92 149.475C315.613 154.238 318.618 158.853 321.924 163.364C325.647 167.627 329.626 171.859 333.821 176.093C338.285 180.169 342.821 184.316 347.324 188.543C351.839 192.643 356.114 196.818 359.999 201.024C365.05 207.068 370.641 218.328 370.638 223.234C368.576 227.409 359.001 234.149 352.208 236.995C347.504 238.944 342.705 241.017 338.037 243.308C333.983 246.037 330.451 249.189 327.592 252.843C325.709 257.122 324.616 261.943 324.269 267.261C324.735 273.086 325.617 279.064 326.688 285.036C327.883 291.103 328.758 296.867 329.078 302.204C328.868 307.239 327.76 311.673 325.672 315.478C322.712 318.841 318.722 321.602 313.759 323.841C308.026 325.769 301.503 327.365 294.337 328.756C286.749 330.123 278.793 331.502 270.629 333.009C262.428 334.746 254.24 336.742 246.186 339.033C238.381 341.633 230.832 344.505 223.604 347.588C216.806 350.842 210.39 354.128 204.382 357.302C198.899 360.363 193.862 363.05 189.289 365.191C179.298 366.903 170.362 358.074 168.793 351.509C167.856 346.774 166.803 341.704 165.516 336.512C163.908 331.788 161.805 327.341 159.109 323.366C155.8 320.348 151.761 318.02 146.982 316.434C141.562 315.862 135.638 315.887 129.348 316.345C122.751 317.315 116.072 318.282 109.489 319.017C103.019 319.613 96.9124 319.582 91.2824 318.784C86.092 317.358 81.5348 314.971 77.6348 311.638C74.2997 307.545 71.6312 302.571 69.6023 296.825C68.0606 290.522 67.0736 283.687 66.5747 276.506C66.4038 269.112 66.615 261.632 67.1494 254.239C67.8563 246.972 68.8041 239.974 69.9637 233.347C71.1509 227.047 72.4982 221.185 73.9846 215.781C75.3907 210.729 76.8894 206.089 78.4659 201.817C80.5626 195.9 84.3295 185.098 85.8575 179.787C86.764 174.276 87.7144 162.214 87.9424 155.585C87.9314 151.006 88.0844 146.288 88.5174 141.486C89.0044 136.718 89.9304 131.96 91.3894 127.277C93.1414 122.781 95.4974 118.54 98.4404 114.578C101.736 110.856 105.584 107.417 109.912 104.256C114.473 101.284 119.379 98.5387 124.515 95.9977C129.668 93.5517 134.892 91.2597 140.084 89.124C145.065 86.9893 149.895 84.9864 154.505 83.1463C160.772 80.4391 171.344 76.1099 175.693 74.6682C182.659 73.5539 192.226 75.3544 195.764 76.8696C199.836 78.2439 209.954 80.5947 216.126 81.2391C220.719 81.2199 225.642 81.0234 230.851 80.6801C236.324 80.0251 241.982 79.3185 247.728 78.6432C253.541 77.917 259.292 77.4209 264.855 77.2761C270.257 77.4247 275.318 78.139 279.948 79.5217M284.12 90.4137C288.036 92.4857 291.417 95.2127 294.278 98.5617C296.803 102.379 298.879 106.746 300.574 111.583C302.1 116.71 303.395 122.161 304.542 127.838C305.738 133.569 306.948 139.389 308.247 145.23C309.793 150.928 311.534 156.566 313.513 162.106C315.853 167.409 318.456 172.605 321.327 177.69C324.532 182.537 327.946 187.29 331.498 191.977C335.248 196.43 339.01 200.831 342.67 205.166C346.296 209.273 349.64 213.296 352.56 217.2C357.755 227.118 355.868 238.233 351.726 240.625C348.37 241.973 344.471 243.221 340.166 244.444C335.957 245.789 331.675 247.329 327.512 249.15C323.91 251.419 320.715 254.155 318.042 257.425C316.189 261.308 314.935 265.755 314.247 270.725C314.231 276.198 314.531 281.887 314.953 287.639C315.514 293.501 315.8 299.162 315.63 304.495C315.056 309.575 313.73 314.155 311.569 318.181C308.699 321.792 304.917 324.845 300.255 327.392C294.913 329.58 288.805 331.397 282.05 332.942C274.855 334.329 267.233 335.615 259.32 336.888C251.292 338.209 243.189 339.634 235.129 341.178C227.252 342.858 219.586 344.657 212.219 346.518C205.242 348.437 198.662 350.295 192.554 351.98C186.967 353.52 181.899 354.701 177.383 355.398C171.745 355.568 163.975 351.736 161.637 347.581C160.55 344.206 159.711 340.219 159.023 335.727C158.354 331.222 157.59 326.497 156.599 321.711C155.269 317.372 153.474 313.282 151.115 309.587C148.15 306.69 144.504 304.359 140.159 302.607C135.193 301.711 129.746 301.299 123.951 301.24C117.827 301.652 111.618 302.072 105.484 302.354C99.4284 302.579 93.7024 302.331 88.4344 301.496C83.5513 300.212 79.2946 298.171 75.6945 295.371C72.643 291.97 70.2823 287.833 68.6048 283.044C67.4356 277.757 66.8828 271.979 66.8922 265.857C67.2702 259.487 68.1027 252.965 69.3259 246.441C70.7537 239.925 72.4641 233.565 74.4096 227.449C76.3979 221.514 78.5311 215.897 80.7767 210.619C82.9249 205.569 85.1115 200.838 87.3134 196.41C89.2984 192.121 91.2294 188.049 93.0914 184.129C95.3684 178.318 98.8274 166.587 100.028 160.452C100.499 156.195 100.936 151.817 101.407 147.331C101.726 142.777 102.204 138.164 102.915 133.556C103.692 129.004 104.852 124.54 106.473 120.231C108.355 116.105 110.75 112.312 113.644 108.861C116.856 105.66 120.54 102.8 124.633 100.283C128.943 97.9617 133.553 95.9407 138.373 94.1977C143.217 92.5527 148.132 91.1357 153.02 89.9101C157.75 88.709 162.337 87.6768 166.727 86.8168C172.743 85.5573 182.941 83.9113 187.127 83.6155C193.772 83.9569 202.716 86.4226 205.98 87.679C209.751 88.6653 219.162 90.1257 224.924 90.4077C229.203 90.2247 233.797 89.9384 238.661 89.5855C243.746 88.9905 249.014 88.4238 254.358 87.9572C259.739 87.4747 265.061 87.2654 270.216 87.4269C275.181 87.8458 279.839 88.8142 284.115 90.4097M288.766 102.579C292.338 104.771 295.424 107.565 298.038 110.937C300.317 114.713 302.184 119.006 303.71 123.755C306.219 134.032 308.134 145.434 310.026 157.358C312.618 168.973 315.95 180.453 320.076 191.537C325.242 201.64 330.775 211.235 336.042 220.167C341.14 227.863 344.732 234.677 346.068 240.328C345.883 244.534 342.907 247.569 337.28 249.579C330.905 251.109 323.298 252.805 315.537 255.414C310.907 258.542 304.436 268.282 302.732 274.963C302.286 280.067 302.047 285.421 301.877 290.891C301.845 296.496 301.57 301.969 300.912 307.2C298.608 316.942 293.457 324.803 285.277 330.655C274.834 334.981 261.853 337.885 247.262 339.94C232.102 341.623 216.82 343.165 202.35 344.531C189.237 345.727 177.901 346.16 168.813 345.169C161.851 343.049 157.115 338.785 154.335 332.223C152.665 324.871 151.593 316.171 150.174 306.99C148.192 301.079 140.953 291.757 135.383 288.714C130.87 287.541 125.927 286.775 120.665 286.307C115.078 286.252 109.409 286.24 103.81 286.146C92.8044 285.863 83.4426 283.845 76.4312 279.669C71.3801 273.682 69.0719 265.47 69.2933 255.699C71.064 244.896 74.585 233.681 79.3482 222.814C84.3485 212.14 89.7644 202.314 95.2314 193.425C99.8614 184.72 104.044 176.484 107.665 168.45C110.056 159.975 111.993 151.301 113.781 142.462C114.47 137.938 115.282 133.444 116.287 129.031C117.353 124.678 118.734 120.491 120.492 116.541C123.686 111.09 132.503 102.527 138.027 99.4217C146.182 96.1417 155.094 94.1397 164.113 93.2177C172.742 92.3827 180.707 92.2607 187.684 92.8177C193.679 93.0047 198.739 93.8327 203.049 95.3087C206.98 96.2017 210.899 97.5797 215.22 99.2417C220.248 99.8747 226.358 100.422 233.669 100.74C242.052 99.9297 251.432 99.1087 261.332 98.6657C266.315 98.4307 271.227 98.4887 275.993 98.9267C280.551 99.5977 284.829 100.795 288.756 102.58M293.47 116.113C299.621 121.059 304.019 128.178 306.914 137.143C308.97 147.107 310.36 158.247 311.569 170.026C313.18 181.651 315.257 193.256 317.827 204.48C321.137 214.757 324.6 224.33 327.672 232.943C330.611 240.191 332.222 246.246 331.936 250.909C330.627 254.151 327.126 256.209 321.583 257.358C315.761 258.224 309.018 259.389 302.139 261.566C296.954 265.423 292.763 271.339 289.678 279.394C288.378 289.2 287.113 299.617 285.012 309.691C282.132 319.141 276.915 326.945 269.204 332.871C259.695 337.253 247.985 339.993 234.817 341.473C221.098 342.154 207.202 342.135 194.033 341.475C181.994 340.342 171.649 338.314 163.451 335.019C157.098 330.888 152.864 325.165 150.472 317.846C148.911 310.208 147.909 301.756 146.64 293.171C143.979 286.086 139.607 280.088 133.159 275.556C124.489 273.28 114.724 272.04 104.787 271.128C94.7814 270.417 86.2813 268.557 79.9506 265.173C75.3095 260.463 73.3131 254.03 73.8152 246.316C75.8142 237.604 79.6409 228.346 84.7837 219.126C90.2364 209.702 96.1494 200.691 102.092 192.236C107.316 183.593 112.076 175.23 116.234 167.004C119.353 158.265 121.994 149.477 124.429 140.765C126.517 131.881 129.142 123.514 132.741 116.132C137.121 109.506 142.768 104.639 149.492 101.505C156.953 99.2027 164.979 98.3307 173.058 98.6437C180.961 99.0637 188.305 100.237 194.821 102.001C200.669 103.29 205.718 104.988 210.152 107.029C214.383 108.283 218.625 109.718 223.23 111.2C228.502 111.626 234.707 111.931 241.931 112.112C250.029 111.36 258.937 110.796 268.218 110.795C277.374 110.922 285.978 112.525 293.465 116.108M297.644 130.779C303.178 135.82 307.066 142.792 309.51 151.423C311.065 160.915 311.843 171.542 312.245 182.806C312.776 194.002 313.468 205.217 314.345 216.021C315.723 225.956 317.066 235.068 317.975 243.037C318.699 252.307 312.593 262.038 305.209 263.425C299.851 264.005 293.831 264.952 287.675 266.912C282.961 270.469 278.862 275.909 275.404 283.296C273.368 292.278 271.23 301.872 268.361 311.241C265.027 320.15 259.834 327.622 252.68 333.329C244.212 337.553 233.95 340.008 222.52 340.918C210.651 340.755 198.64 339.476 187.297 337.206C176.859 334.278 167.946 330.36 160.972 325.333C155.449 319.694 151.811 312.918 149.805 305.114C148.299 297.285 147.288 289.083 146.054 281.004C143.446 274.245 139.411 268.456 133.672 263.891C125.88 261.143 117.22 259.344 108.458 257.986C99.4674 256.916 91.8214 255.168 86.1152 252.451C81.7699 248.786 79.8806 243.867 80.3405 237.958C82.1505 231.111 85.7918 223.685 90.7624 216.079C96.1194 207.978 102.016 199.95 108.001 192.129C113.439 183.862 118.506 175.658 123.016 167.511C126.73 158.807 129.995 150.131 133.018 141.697C135.802 133.142 138.937 125.284 142.757 118.553C147.236 112.567 152.596 108.411 158.696 106.045C165.467 104.49 172.62 104.436 179.793 105.607C186.968 106.919 193.71 108.984 199.811 111.579C205.55 113.668 210.69 116.003 215.375 118.467C220.053 120.064 224.782 121.635 229.854 123.11C235.542 123.567 241.991 123.899 249.259 124.19C257.201 123.722 265.722 123.576 274.45 124.091C282.936 124.773 290.834 126.859 297.644 130.779ZM300.572 146.022C305.503 151.11 308.86 157.834 310.786 165.959C311.82 174.813 311.944 184.661 311.489 195.05C310.95 205.424 310.282 215.78 309.537 225.685C309.094 234.83 308.469 243.095 307.425 250.16C306.397 256.031 304.539 260.552 301.596 263.659C298.442 265.755 294.157 266.866 288.841 267.344C283.822 267.917 278.335 268.885 272.739 270.795C268.332 274.174 264.26 279.193 260.515 285.886C257.875 294.022 255.061 302.677 251.668 311.149C248.022 319.314 242.995 326.202 236.542 331.454C229.186 335.376 220.5 337.481 210.999 337.893C201.187 337.13 191.344 334.985 182.127 331.636C173.612 327.533 166.394 322.392 160.833 316.283C156.325 309.717 153.377 302.348 151.763 294.36C150.35 286.53 149.312 278.618 148.078 271.009C145.526 264.518 141.805 258.896 136.714 254.334C129.775 251.189 122.17 248.939 114.525 247.221C106.53 245.816 99.6984 244.119 94.5284 241.882C90.3924 238.985 88.4344 235.242 88.5904 230.765C89.9084 225.458 92.9784 219.588 97.3454 213.402C102.143 206.565 107.583 199.548 113.216 192.481C118.512 184.787 123.577 177.002 128.231 169.183C132.311 160.802 136.032 152.49 139.518 144.501C142.859 136.453 146.418 129.179 150.412 123.101C154.951 117.723 160.035 114.165 165.587 112.36C171.721 111.326 178.104 111.784 184.473 113.46C190.991 115.308 197.207 117.907 202.972 120.977C208.649 123.596 213.937 126.36 218.946 129.124C224.109 131.071 229.382 132.872 234.966 134.505C241.111 135.235 247.852 135.857 255.186 136.47C263.012 136.511 271.188 136.926 279.372 138.017C287.236 139.298 294.442 141.845 300.572 146.022ZM301.72 161.047C306.057 166.106 308.855 172.47 310.259 179.943C310.771 187.988 310.276 196.825 309.034 206.054C307.548 215.273 305.688 224.416 303.554 233.067C301.563 241.096 299.303 248.24 296.651 254.238C294.084 259.269 290.922 263.051 287.026 265.581C283.166 267.39 278.572 268.372 273.344 268.871C268.517 269.617 263.397 270.742 258.202 272.684C253.955 275.956 249.871 280.585 245.931 286.565C242.819 293.812 239.553 301.457 235.883 308.902C232.118 316.18 227.409 322.31 221.758 326.962C215.554 330.48 208.484 332.237 200.944 332.289C193.228 331.198 185.606 328.614 178.583 324.733C172.066 320.083 166.625 314.409 162.521 307.859C159.102 300.968 156.881 293.482 155.685 285.651C154.426 278.049 153.407 270.526 152.189 263.399C149.73 257.176 146.335 251.725 141.856 247.185C135.737 243.719 129.126 241.106 122.515 239.072C115.463 237.338 109.378 235.586 104.677 233.609C99.6304 229.717 100.035 218.267 104.656 210.883C108.589 205.137 113.237 199.056 118.216 192.755C123.047 185.778 127.831 178.576 132.386 171.296C136.578 163.481 140.543 155.748 144.316 148.38C148.037 140.987 151.879 134.382 155.99 128.944C160.546 124.166 165.387 121.096 170.491 119.675C176.097 118.976 181.84 119.695 187.568 121.563C193.537 123.656 199.331 126.476 204.862 129.734C210.5 132.64 215.939 135.67 221.266 138.645C226.862 140.933 232.612 143.042 238.635 144.971C245.157 146.162 252.11 147.255 259.44 148.381C267.109 149.078 274.906 150.15 282.528 151.857C289.776 153.735 296.29 156.717 301.72 161.047ZM300.689 174.95C304.428 179.894 306.689 185.786 307.586 192.47C307.64 199.596 306.617 207.256 304.742 215.127C302.522 223.005 299.765 230.713 296.592 237.913C293.452 244.638 289.973 250.544 286.167 255.419C282.465 259.584 278.354 262.69 273.797 264.744C269.401 266.374 264.597 267.353 259.441 267.983C254.705 268.981 249.819 270.307 244.91 272.299C240.726 275.464 236.626 279.689 232.581 284.952C229.156 291.3 225.651 297.896 221.93 304.256C218.22 310.561 213.951 315.86 209.171 319.833C204.102 322.917 198.575 324.377 192.885 324.233C187.126 323.068 181.587 320.442 176.61 316.529C171.968 311.907 168.198 306.287 165.448 299.889C163.063 293.211 161.555 286.065 160.755 278.714C159.709 271.577 158.765 264.593 157.618 258.001C155.323 252.104 152.274 246.853 148.37 242.369C143.058 238.686 137.374 235.774 131.71 233.448C125.556 231.38 120.17 229.459 115.886 227.528C110.89 224.042 109.551 214.55 112.722 208.386C115.647 203.494 119.328 198.208 123.462 192.626C127.592 186.387 131.869 179.885 136.098 173.272C140.155 166.193 144.13 159.201 148.009 152.573C151.895 145.957 155.884 140.09 160.038 135.296C164.531 131.101 169.17 128.455 173.929 127.281C179.103 126.771 184.357 127.56 189.603 129.405C195.155 131.518 200.624 134.322 205.992 137.558C211.586 140.569 217.141 143.715 222.698 146.836C228.592 149.425 234.66 151.875 240.958 154.171C247.668 155.908 254.671 157.587 261.854 159.311C269.238 160.742 276.563 162.5 283.558 164.787C290.157 167.239 295.969 170.567 300.689 174.95ZM297.471 186.88C300.615 191.606 302.377 196.948 302.833 202.768C302.526 208.902 301.136 215.321 298.846 221.782C296.169 228.254 292.861 234.474 289.062 240.188C285.207 245.584 281.001 250.257 276.496 254.05C272.098 257.408 267.427 259.905 262.509 261.583C257.798 263.085 252.887 264.116 247.823 264.905C243.146 266.132 238.423 267.64 233.739 269.647C229.584 272.67 225.492 276.472 221.463 281.006C217.864 286.461 214.31 292.012 210.726 297.302C207.206 302.625 203.465 307.07 199.552 310.386C193.447 313.657 181.343 311.881 176.22 307.141C173.175 302.989 170.811 297.901 169.195 292.105C167.705 286.076 166.808 279.64 166.365 273.036C165.541 266.605 164.718 260.292 163.674 254.311C161.614 248.835 158.939 243.855 155.6 239.481C151.061 235.675 146.254 232.53 141.458 229.923C136.165 227.528 131.448 225.37 127.581 223.297C122.721 219.84 119.854 211.273 121.642 205.86C123.556 201.573 126.246 196.919 129.467 191.958C132.782 186.434 136.404 180.662 140.159 174.772C143.864 168.528 147.647 162.366 151.452 156.547C155.296 150.779 159.269 145.682 163.385 141.531C167.762 137.916 172.204 135.63 176.707 134.635C181.531 134.235 186.417 134.976 191.335 136.661C196.534 138.645 201.762 141.283 206.987 144.348C212.49 147.319 218.062 150.47 223.71 153.648C229.699 156.484 235.865 159.244 242.203 161.906C248.858 164.19 255.676 166.452 262.524 168.762C269.458 170.891 276.194 173.278 282.485 176.057C288.377 178.985 293.458 182.558 297.471 186.88ZM292.298 196.189C294.886 200.614 296.2 205.346 296.324 210.276C295.775 215.43 294.192 220.652 291.733 225.759C288.886 230.888 285.381 235.717 281.368 240.065C277.235 244.224 272.753 247.78 268.009 250.646C263.341 253.276 258.476 255.266 253.491 256.655C248.696 258.061 243.819 259.141 238.934 260.064C234.338 261.454 229.787 263.055 225.323 265.018C221.219 267.824 217.209 271.165 213.298 274.994C209.679 279.57 206.221 284.129 202.9 288.413C198.063 294.616 188.707 301.934 184.417 302.35C180.473 300.665 174.882 291.222 173.451 284.195C172.639 279.107 172.192 273.625 172.007 267.956C171.39 262.411 170.701 256.894 169.79 251.593C168 246.635 165.723 242.012 162.926 237.813C159.149 233.997 155.161 230.712 151.177 227.869C144.695 223.957 134.689 216.739 131.99 212.891C130.779 208.363 133.374 197.355 136.634 190.823C139.132 185.953 142.047 180.882 145.237 175.734C148.466 170.334 151.893 165.032 155.467 160.047C159.103 155.144 162.919 150.819 166.913 147.301C171.092 144.237 175.323 142.303 179.602 141.449C184.127 141.109 188.725 141.754 193.374 143.217C198.285 144.998 203.274 147.389 208.333 150.194C213.664 153.031 219.121 156.093 224.681 159.244C230.538 162.218 236.544 165.203 242.658 168.153C249 170.884 255.391 173.627 261.7 176.41C268.003 179.103 274.022 181.984 279.523 185.12C284.65 188.372 288.981 192.048 292.298 196.189ZM285.67 202.584C289.149 210.873 288.273 219.319 283.915 227.137C278.086 235.057 270.059 241.481 260.899 245.795C251.827 249.866 242.291 252.372 232.906 254.027C224.322 257.418 216.071 261.83 208.473 267.436C201.607 275.395 195.63 282.312 190.665 286.794C185.798 290.249 182.058 289.776 179.948 285.672C177.873 280.197 177.182 272.142 177.433 262.834C175.994 253.762 173.676 244.71 169.963 236.554C163.123 229.363 156.231 223.445 150.564 218.328C144.768 212.895 141.909 207.172 142.063 200.899C143.115 193.38 146.64 184.988 151.837 176.328C157.305 167.078 163.928 158.674 171.383 152.54C179.324 147.942 187.672 147.041 196.263 149.196C205.64 152.563 215.582 157.815 225.873 163.903C237.048 169.82 248.613 175.988 259.733 182.182C270.639 188.287 279.798 195.04 285.67 202.584ZM278.167 206.172C280.832 213.497 279.832 220.349 275.871 226.272C270.636 232.304 263.406 237.018 255.148 240.15C246.799 243.427 238.049 245.683 229.54 247.408C221.493 250.636 213.826 254.512 206.934 259.022C200.466 265.33 195.214 270.666 191.261 274.113C186.166 277.048 182.441 267.389 182.601 257.123C181.396 249.922 179.471 242.299 176.545 234.918C171.206 228.105 165.844 222.028 161.349 216.505C156.482 210.799 153.748 204.913 153.385 198.753C153.589 191.804 156.001 184.35 160.159 176.937C164.603 169.252 170.405 162.408 177.292 157.476C184.472 153.787 192.199 153.078 200.249 154.89C208.825 157.79 217.982 162.442 227.403 168.032C237.379 173.783 247.529 179.989 257.011 186.272C266.135 192.617 273.589 199.304 278.167 206.172ZM270.367 207.452C272.328 213.746 271.366 219.262 268.032 223.773C263.651 228.396 257.573 231.913 250.584 234.296C243.374 236.996 235.772 239.055 228.371 240.757C221.165 243.658 214.31 246.912 208.23 250.415C195.26 260.774 187.676 258.103 187.674 250.535C186.569 245.045 184.987 238.834 182.786 232.349C178.81 226.151 174.885 220.219 171.593 214.594C167.846 208.87 165.624 203.014 165.191 197.098C165.048 190.755 166.756 184.241 170.099 178.009C173.654 171.75 178.601 166.315 184.752 162.492C191.059 159.636 198.014 159.135 205.314 160.673C212.903 163.112 220.998 167.118 229.231 172.065C237.709 177.325 246.164 183.15 253.868 189.096C261.147 195.169 266.947 201.395 270.367 207.452ZM262.74 207.187C264.112 212.433 263.285 216.857 260.658 220.381C257.247 223.984 252.47 226.747 246.913 228.703C241.081 230.998 234.847 232.88 228.732 234.488C222.63 236.964 216.783 239.574 211.607 242.181C200.378 249.705 193.349 248.471 192.939 243.06C191.861 239.015 190.569 234.112 189.004 228.62C186.215 223.246 183.591 217.8 181.462 212.459C178.9 207.071 177.421 201.586 177.246 196.176C177.156 190.601 178.512 185.08 181.249 180.02C184.109 175.049 188.232 170.876 193.517 168.053C198.873 165.922 204.865 165.637 211.173 166.943C217.585 168.931 224.379 172.239 231.16 176.419C237.985 180.922 244.64 186.004 250.547 191.246C256.045 196.611 260.322 202.044 262.74 207.187ZM255.522 206.29C256.61 214.686 251.708 220.478 243.723 223.696C234.735 227.956 224.529 231.643 216.085 234.635C205.236 241.033 197.611 235.77 195.56 223.913C191.247 215.111 188.683 205.31 189.202 196.229C189.618 187.022 194.302 178.812 202.941 174.517C211.623 172.053 222.422 175.073 232.86 181.432C243.012 188.791 251.729 197.954 255.522 206.29ZM248.659 205.606C249.327 211.877 246.02 216.494 240.545 219.4C234.365 222.91 227.032 225.85 220.616 227.848C212.03 231.662 204.322 227.486 202.711 218.764C200.251 212.068 199.412 204.41 200.648 197.455C201.624 190.586 205.468 184.794 212.063 182.08C218.612 180.43 226.519 182.654 233.842 187.294C240.779 192.526 246.444 199.257 248.659 205.606ZM241.957 205.76C241.909 214.068 232.978 219.946 224.374 221.614C215.511 225.412 210.559 222.668 210.586 214.007C207.639 204.977 210.901 193.964 219.854 190.657C228.573 189.274 239.229 197.107 241.957 205.76Z" stroke="url(#paint0_radial_3014_12495)" stroke-width="3" stroke-linecap="round"/>
<defs>
<radialGradient id="paint0_radial_3014_12495" cx="0" cy="0" r="1" gradientUnits="userSpaceOnUse" gradientTransform="translate(215 218) rotate(118.67) scale(231.366 228.129)">
<stop stop-color="#8DBF2D"/>
<stop offset="0.385155" stop-color="#93C337" stop-opacity="0.87"/>
<stop offset="1" stop-color="#9DCA47" stop-opacity="0"/>
</radialGradient>
</defs>
</svg>
