<svg width="90" height="28" viewBox="0 0 90 28" fill="none" xmlns="http://www.w3.org/2000/svg">
<path d="M10.2 16.0859H5.688V0.00585938H10.2V16.0859ZM15.864 4.06186H0V0.00585938H15.864V4.06186Z" fill="#1D2939"/>
<path d="M21.4657 16.0859H16.9538V3.98986H21.1777V7.44586L21.4657 7.56586V16.0859ZM21.4657 8.86186H20.6257V7.15786H21.4177C21.5297 6.48586 21.7458 5.89386 22.0658 5.38186C22.3857 4.86986 22.8177 4.46986 23.3617 4.18186C23.9217 3.89386 24.6017 3.74986 25.4018 3.74986C26.2978 3.74986 27.0177 3.93386 27.5618 4.30186C28.1058 4.65386 28.4978 5.14186 28.7378 5.76586C28.9938 6.38986 29.1217 7.10986 29.1217 7.92586V10.3259H24.6098V8.90986C24.6098 8.39786 24.4977 8.04586 24.2738 7.85386C24.0498 7.64586 23.6418 7.54186 23.0497 7.54186C22.4417 7.54186 22.0257 7.64586 21.8018 7.85386C21.5778 8.04586 21.4657 8.38186 21.4657 8.86186Z" fill="#1D2939"/>
<path d="M35.0467 16.3259C33.9268 16.3259 32.9987 16.1259 32.2627 15.7259C31.5267 15.3259 30.9748 14.7819 30.6068 14.0939C30.2548 13.4059 30.0788 12.6219 30.0788 11.7419V3.98986H34.5908V10.0859C34.5908 10.9179 34.7828 11.4939 35.1668 11.8139C35.5668 12.1339 36.2787 12.2939 37.3027 12.2939C38.3428 12.2939 39.0308 12.1499 39.3667 11.8619C39.7188 11.5579 39.8947 11.0139 39.8947 10.2299H40.3507L40.7348 12.4139H39.9427C39.8627 13.0859 39.6468 13.7179 39.2948 14.3099C38.9427 14.9019 38.4227 15.3899 37.7347 15.7739C37.0467 16.1419 36.1507 16.3259 35.0467 16.3259ZM44.4067 16.0859H40.1828V12.3659L39.8947 12.2459V3.98986H44.4067V16.0859Z" fill="#1D2939"/>
<path d="M52.2624 16.3259C50.1344 16.3259 48.5104 15.9339 47.3904 15.1499C46.2704 14.3659 45.7104 13.2779 45.7104 11.8859V11.7899H50.2224V12.0299C50.2224 12.3659 50.3584 12.5739 50.6304 12.6539C50.9184 12.7339 51.4704 12.7739 52.2864 12.7739C53.0704 12.7739 53.5664 12.7339 53.7744 12.6539C53.9824 12.5579 54.0864 12.4059 54.0864 12.1979C54.0864 12.0059 54.0064 11.8779 53.8464 11.8139C53.6864 11.7339 53.3264 11.6619 52.7664 11.5979L49.2624 11.2139C48.0144 11.0859 47.0624 10.7339 46.4064 10.1579C45.7504 9.56586 45.4224 8.75786 45.4224 7.73386C45.4224 7.01386 45.6224 6.35786 46.0224 5.76586C46.4384 5.15786 47.1024 4.66986 48.0144 4.30186C48.9424 3.93386 50.1584 3.74986 51.6624 3.74986C53.0704 3.74986 54.2464 3.91786 55.1904 4.25386C56.1504 4.58986 56.8704 5.09386 57.3504 5.76586C57.8464 6.42186 58.0944 7.24586 58.0944 8.23786V8.33386H53.5824V8.18986C53.5824 7.98186 53.5344 7.81386 53.4384 7.68586C53.3584 7.54186 53.1664 7.43786 52.8624 7.37386C52.5744 7.30986 52.1264 7.27786 51.5184 7.27786C50.7824 7.27786 50.3184 7.33386 50.1264 7.44586C49.9504 7.54186 49.8624 7.70186 49.8624 7.92586C49.8624 8.08586 49.9504 8.21386 50.1264 8.30986C50.3184 8.40586 50.7664 8.49386 51.4704 8.57386L53.8704 8.83786C55.6304 9.02986 56.8464 9.42186 57.5184 10.0139C58.1904 10.6059 58.5264 11.4139 58.5264 12.4379C58.5264 13.1899 58.2784 13.8619 57.7824 14.4539C57.3024 15.0299 56.5984 15.4859 55.6704 15.8219C54.7424 16.1579 53.6064 16.3259 52.2624 16.3259Z" fill="#1D2939"/>
<path d="M68.658 16.0859H65.49C63.986 16.0859 62.802 15.7099 61.938 14.9579C61.09 14.2059 60.666 13.0459 60.666 11.4779V3.98986H65.178V10.8299C65.178 11.3099 65.266 11.6299 65.442 11.7899C65.634 11.9499 65.986 12.0299 66.498 12.0299H68.658V16.0859ZM68.658 7.68586H58.89V3.98986H68.658V7.68586Z" fill="#1D2939"/>
<path d="M74.247 16.0859H69.735V0.00585938H74.247V16.0859Z" fill="#1D2939"/>
<path d="M82.4321 16.3259C81.0721 16.3259 79.8641 16.1179 78.8081 15.7019C77.7521 15.2859 76.9281 14.6139 76.3361 13.6859C75.7441 12.7579 75.4481 11.5419 75.4481 10.0379C75.4481 8.72586 75.7441 7.60586 76.3361 6.67786C76.9281 5.73386 77.7361 5.01386 78.7601 4.51786C79.8001 4.00586 80.9921 3.74986 82.3361 3.74986C83.7281 3.74986 84.9361 3.98186 85.9601 4.44586C86.9841 4.89386 87.7761 5.56586 88.3361 6.46186C88.8961 7.34186 89.1761 8.42986 89.1761 9.72586C89.1761 9.93386 89.1681 10.1259 89.1521 10.3019C89.1521 10.4619 89.1361 10.6539 89.1041 10.8779H78.4001V8.59786H85.8401L84.8561 10.0139C84.8561 9.86986 84.8561 9.73386 84.8561 9.60586C84.8561 9.46186 84.8561 9.31786 84.8561 9.17386C84.8561 8.43786 84.6641 7.92586 84.2801 7.63786C83.9121 7.34986 83.2321 7.20586 82.2401 7.20586C81.2161 7.20586 80.5201 7.36586 80.1521 7.68586C79.8001 8.00586 79.6241 8.58186 79.6241 9.41386V10.5659C79.6241 11.4139 79.8081 11.9899 80.1761 12.2939C80.5441 12.5979 81.2401 12.7499 82.2641 12.7499C83.1761 12.7499 83.7841 12.6699 84.0881 12.5099C84.4081 12.3339 84.5681 12.0699 84.5681 11.7179V11.4539H89.0801V11.7419C89.0801 12.6379 88.8081 13.4299 88.2641 14.1179C87.7201 14.8059 86.9521 15.3499 85.9601 15.7499C84.9681 16.1339 83.7921 16.3259 82.4321 16.3259Z" fill="#1D2939"/>
<path d="M60.6401 3.08594H65.1781V0H60.6401V3.08594Z" fill="url(#paint0_linear_3792_19636)"/>
<path d="M70.9946 27.1262C70.4146 27.1262 69.958 27.0028 69.6246 26.7562C69.298 26.5028 69.088 26.1295 68.9946 25.6362H68.7146L68.8246 24.5562H69.0146C69.0146 24.8428 69.068 25.0762 69.1746 25.2562C69.288 25.4295 69.4513 25.5562 69.6646 25.6362C69.8846 25.7162 70.1546 25.7562 70.4746 25.7562C70.8013 25.7562 71.068 25.7162 71.2746 25.6362C71.4813 25.5562 71.6346 25.4262 71.7346 25.2462C71.8346 25.0662 71.8846 24.8262 71.8846 24.5262C71.8846 24.2128 71.8346 23.9695 71.7346 23.7962C71.6346 23.6162 71.4813 23.4862 71.2746 23.4062C71.068 23.3262 70.8046 23.2862 70.4846 23.2862C69.998 23.2862 69.6313 23.3762 69.3846 23.5562C69.138 23.7362 69.0146 24.0428 69.0146 24.4762H68.8246V23.3462H69.0946C69.1813 22.9262 69.3813 22.5828 69.6946 22.3162C70.0146 22.0495 70.4713 21.9162 71.0646 21.9162C71.5646 21.9162 71.988 22.0228 72.3346 22.2362C72.6813 22.4495 72.9446 22.7528 73.1246 23.1462C73.3113 23.5328 73.4046 23.9928 73.4046 24.5262C73.4046 25.0528 73.3113 25.5128 73.1246 25.9062C72.9446 26.2928 72.6746 26.5928 72.3146 26.8062C71.9546 27.0195 71.5146 27.1262 70.9946 27.1262ZM68.9046 27.0262H67.5146V20.3262H69.0146V25.4162L68.9046 25.5462V27.0262Z" fill="#344054"/>
<path d="M76.6883 27.1262C76.135 27.1262 75.645 27.0328 75.2183 26.8462C74.7917 26.6595 74.4617 26.3728 74.2283 25.9862C73.995 25.5995 73.8783 25.1128 73.8783 24.5262C73.8783 23.9928 73.995 23.5328 74.2283 23.1462C74.4617 22.7528 74.785 22.4495 75.1983 22.2362C75.6183 22.0228 76.105 21.9162 76.6583 21.9162C77.205 21.9162 77.6817 22.0095 78.0883 22.1962C78.5017 22.3828 78.8217 22.6595 79.0483 23.0262C79.275 23.3862 79.3883 23.8262 79.3883 24.3462C79.3883 24.4328 79.385 24.5128 79.3783 24.5862C79.3717 24.6595 79.3617 24.7395 79.3483 24.8262H74.8483V24.0362H78.2883L77.9483 24.5262C77.9483 24.4595 77.9483 24.3962 77.9483 24.3362C77.9483 24.2762 77.9483 24.2162 77.9483 24.1562C77.9483 23.7762 77.845 23.5028 77.6383 23.3362C77.4317 23.1695 77.095 23.0862 76.6283 23.0862C76.1217 23.0862 75.7683 23.1862 75.5683 23.3862C75.3683 23.5795 75.2683 23.8895 75.2683 24.3162V24.6962C75.2683 25.1228 75.3683 25.4362 75.5683 25.6362C75.7683 25.8295 76.125 25.9262 76.6383 25.9262C77.0783 25.9262 77.3883 25.8695 77.5683 25.7562C77.7483 25.6428 77.8383 25.4795 77.8383 25.2662V25.1662H79.3383V25.2762C79.3383 25.6362 79.2283 25.9562 79.0083 26.2362C78.7883 26.5162 78.4783 26.7362 78.0783 26.8962C77.685 27.0495 77.2217 27.1262 76.6883 27.1262Z" fill="#344054"/>
<path d="M83.5544 27.0262H82.3144C81.7277 27.0262 81.2677 26.8828 80.9344 26.5962C80.6011 26.3095 80.4344 25.8495 80.4344 25.2162V21.0462H81.9344V25.0462C81.9344 25.2995 81.9877 25.4695 82.0944 25.5562C82.2077 25.6362 82.3944 25.6762 82.6544 25.6762H83.5544V27.0262ZM83.5544 23.2562H79.6444V22.0162H83.5544V23.2562Z" fill="#344054"/>
<path d="M89.1762 27.0262H87.7762V25.8362L87.6962 25.8162V24.0662C87.6962 23.7395 87.6129 23.5195 87.4462 23.4062C87.2862 23.2928 87.0062 23.2362 86.6062 23.2362C86.2262 23.2362 85.9529 23.2928 85.7862 23.4062C85.6195 23.5195 85.5362 23.7195 85.5362 24.0062V24.0462H84.0262V24.0162C84.0262 23.6028 84.1362 23.2395 84.3562 22.9262C84.5762 22.6062 84.8862 22.3595 85.2862 22.1862C85.6929 22.0062 86.1695 21.9162 86.7162 21.9162C87.2762 21.9162 87.7362 22.0062 88.0962 22.1862C88.4629 22.3662 88.7329 22.6195 88.9062 22.9462C89.0862 23.2662 89.1762 23.6462 89.1762 24.0862V27.0262ZM85.6562 27.1262C85.1162 27.1262 84.6929 27.0062 84.3862 26.7662C84.0795 26.5262 83.9262 26.1995 83.9262 25.7862C83.9262 25.5328 83.9862 25.3162 84.1062 25.1362C84.2262 24.9562 84.4062 24.8128 84.6462 24.7062C84.8862 24.5928 85.1862 24.5162 85.5462 24.4762L87.7962 24.2462V25.1062L85.9562 25.3162C85.7762 25.3295 85.6429 25.3662 85.5562 25.4262C85.4762 25.4795 85.4362 25.5662 85.4362 25.6862C85.4362 25.8195 85.4895 25.9162 85.5962 25.9762C85.7029 26.0362 85.8662 26.0662 86.0862 26.0662C86.4462 26.0662 86.7429 26.0328 86.9762 25.9662C87.2095 25.8995 87.3862 25.7928 87.5062 25.6462C87.6329 25.4928 87.6962 25.2895 87.6962 25.0362L87.8362 25.0262V25.8762H87.6962C87.5829 26.2628 87.3529 26.5695 87.0062 26.7962C86.6662 27.0162 86.2162 27.1262 85.6562 27.1262Z" fill="#344054"/>
<defs>
<linearGradient id="paint0_linear_3792_19636" x1="62.5229" y1="2.02515" x2="64.3068" y2="2.04734" gradientUnits="userSpaceOnUse">
<stop stop-color="#7CCA68"/>
<stop offset="1" stop-color="#62CA9E"/>
</linearGradient>
</defs>
</svg>
