<svg width="90" height="18" viewBox="0 0 90 18" fill="none" xmlns="http://www.w3.org/2000/svg">
<path d="M10.2 16.9229H5.688V0.842896H10.2V16.9229ZM15.864 4.8989H0V0.842896H15.864V4.8989Z" fill="white"/>
<path d="M21.4657 16.9229H16.9538V4.8269H21.1777V8.2829L21.4657 8.40289V16.9229ZM21.4657 9.69889H20.6257V7.9949H21.4177C21.5297 7.3229 21.7458 6.73089 22.0658 6.21889C22.3857 5.70689 22.8177 5.30689 23.3617 5.01889C23.9217 4.73089 24.6017 4.58689 25.4018 4.58689C26.2978 4.58689 27.0177 4.7709 27.5618 5.1389C28.1058 5.4909 28.4978 5.9789 28.7378 6.6029C28.9938 7.2269 29.1217 7.9469 29.1217 8.7629V11.1629H24.6098V9.74689C24.6098 9.23489 24.4977 8.88289 24.2738 8.6909C24.0498 8.4829 23.6418 8.37889 23.0497 8.37889C22.4417 8.37889 22.0257 8.4829 21.8018 8.6909C21.5778 8.88289 21.4657 9.21889 21.4657 9.69889Z" fill="white"/>
<path d="M35.0467 17.1629C33.9268 17.1629 32.9987 16.9629 32.2627 16.5629C31.5267 16.1629 30.9748 15.6189 30.6068 14.9309C30.2548 14.2429 30.0788 13.4589 30.0788 12.5789V4.8269H34.5908V10.9229C34.5908 11.7549 34.7828 12.3309 35.1668 12.6509C35.5668 12.9709 36.2787 13.1309 37.3027 13.1309C38.3428 13.1309 39.0308 12.9869 39.3667 12.6989C39.7188 12.3949 39.8947 11.8509 39.8947 11.0669H40.3507L40.7348 13.2509H39.9427C39.8627 13.9229 39.6468 14.5549 39.2948 15.1469C38.9427 15.7389 38.4227 16.2269 37.7347 16.6109C37.0467 16.9789 36.1507 17.1629 35.0467 17.1629ZM44.4067 16.9229H40.1828V13.2029L39.8947 13.0829V4.8269H44.4067V16.9229Z" fill="white"/>
<path d="M52.2624 17.1629C50.1344 17.1629 48.5104 16.7709 47.3904 15.9869C46.2704 15.2029 45.7104 14.1149 45.7104 12.7229V12.6269H50.2224V12.8669C50.2224 13.2029 50.3584 13.4109 50.6304 13.4909C50.9184 13.5709 51.4704 13.6109 52.2864 13.6109C53.0704 13.6109 53.5664 13.5709 53.7744 13.4909C53.9824 13.3949 54.0864 13.2429 54.0864 13.0349C54.0864 12.8429 54.0064 12.7149 53.8464 12.6509C53.6864 12.5709 53.3264 12.4989 52.7664 12.4349L49.2624 12.0509C48.0144 11.9229 47.0624 11.5709 46.4064 10.9949C45.7504 10.4029 45.4224 9.5949 45.4224 8.5709C45.4224 7.8509 45.6224 7.1949 46.0224 6.6029C46.4384 5.9949 47.1024 5.5069 48.0144 5.1389C48.9424 4.7709 50.1584 4.58689 51.6624 4.58689C53.0704 4.58689 54.2464 4.7549 55.1904 5.09089C56.1504 5.42689 56.8704 5.9309 57.3504 6.6029C57.8464 7.2589 58.0944 8.0829 58.0944 9.0749V9.17089H53.5824V9.0269C53.5824 8.8189 53.5344 8.6509 53.4384 8.5229C53.3584 8.3789 53.1664 8.2749 52.8624 8.2109C52.5744 8.1469 52.1264 8.11489 51.5184 8.11489C50.7824 8.11489 50.3184 8.1709 50.1264 8.2829C49.9504 8.3789 49.8624 8.5389 49.8624 8.7629C49.8624 8.9229 49.9504 9.0509 50.1264 9.1469C50.3184 9.2429 50.7664 9.3309 51.4704 9.4109L53.8704 9.6749C55.6304 9.8669 56.8464 10.2589 57.5184 10.8509C58.1904 11.4429 58.5264 12.2509 58.5264 13.2749C58.5264 14.0269 58.2784 14.6989 57.7824 15.2909C57.3024 15.8669 56.5984 16.3229 55.6704 16.6589C54.7424 16.9949 53.6064 17.1629 52.2624 17.1629Z" fill="white"/>
<path d="M68.658 16.9229H65.49C63.986 16.9229 62.802 16.5469 61.938 15.7949C61.09 15.0429 60.666 13.8829 60.666 12.3149V4.8269H65.178V11.6669C65.178 12.1469 65.266 12.4669 65.442 12.6269C65.634 12.7869 65.986 12.8669 66.498 12.8669H68.658V16.9229ZM68.658 8.5229H58.89V4.8269H68.658V8.5229Z" fill="white"/>
<path d="M74.247 16.9229H69.735V0.842896H74.247V16.9229Z" fill="white"/>
<path d="M82.4321 17.1629C81.0721 17.1629 79.8641 16.9549 78.8081 16.5389C77.7521 16.1229 76.9281 15.4509 76.3361 14.5229C75.7441 13.5949 75.4481 12.3789 75.4481 10.8749C75.4481 9.5629 75.7441 8.4429 76.3361 7.5149C76.9281 6.5709 77.7361 5.8509 78.7601 5.3549C79.8001 4.8429 80.9921 4.58689 82.3361 4.58689C83.7281 4.58689 84.9361 4.8189 85.9601 5.2829C86.9841 5.7309 87.7761 6.40289 88.3361 7.29889C88.8961 8.17889 89.1761 9.2669 89.1761 10.5629C89.1761 10.7709 89.1681 10.9629 89.1521 11.1389C89.1521 11.2989 89.1361 11.4909 89.1041 11.7149H78.4001V9.43489H85.8401L84.8561 10.8509C84.8561 10.7069 84.8561 10.5709 84.8561 10.4429C84.8561 10.2989 84.8561 10.1549 84.8561 10.0109C84.8561 9.27489 84.6641 8.7629 84.2801 8.4749C83.9121 8.1869 83.2321 8.0429 82.2401 8.0429C81.2161 8.0429 80.5201 8.2029 80.1521 8.5229C79.8001 8.8429 79.6241 9.4189 79.6241 10.2509V11.4029C79.6241 12.2509 79.8081 12.8269 80.1761 13.1309C80.5441 13.4349 81.2401 13.5869 82.2641 13.5869C83.1761 13.5869 83.7841 13.5069 84.0881 13.3469C84.4081 13.1709 84.5681 12.9069 84.5681 12.5549V12.2909H89.0801V12.5789C89.0801 13.4749 88.8081 14.2669 88.2641 14.9549C87.7201 15.6429 86.9521 16.1869 85.9601 16.5869C84.9681 16.9709 83.7921 17.1629 82.4321 17.1629Z" fill="white"/>
<path d="M60.6401 3.92297H65.1781V0.837036H60.6401V3.92297Z" fill="url(#paint0_linear_951_4446)"/>
<defs>
<linearGradient id="paint0_linear_951_4446" x1="62.5229" y1="2.86218" x2="64.3068" y2="2.88438" gradientUnits="userSpaceOnUse">
<stop stop-color="#7CCA68"/>
<stop offset="1" stop-color="#62CA9E"/>
</linearGradient>
</defs>
</svg>
