<svg width="714" height="274" viewBox="0 0 714 274" fill="none" xmlns="http://www.w3.org/2000/svg">
<g clip-path="url(#clip0_6338_29464)">
<g filter="url(#filter0_d_6338_29464)">
<rect x="84" width="546" height="546" rx="273" fill="white" fill-opacity="0.32" shape-rendering="crispEdges"/>
<path d="M630 273C630 423.774 507.774 546 357 546C206.226 546 84 423.774 84 273C84 122.226 206.226 0 357 0C507.774 0 630 122.226 630 273ZM193.957 273C193.957 363.046 266.954 436.043 357 436.043C447.046 436.043 520.043 363.046 520.043 273C520.043 182.954 447.046 109.957 357 109.957C266.954 109.957 193.957 182.954 193.957 273Z" fill="url(#paint0_linear_6338_29464)"/>
<path d="M630 273C630 209.84 608.1 148.634 568.032 99.8106C527.964 50.9873 472.206 17.5675 410.26 5.24562C348.313 -7.07628 284.011 2.46208 228.309 32.2355C172.607 62.0089 128.951 110.175 104.781 168.527C80.6106 226.88 77.4209 291.807 95.7553 352.248C114.09 412.688 152.814 464.901 205.329 499.991C257.845 535.081 320.903 550.876 383.759 544.685C446.615 538.495 505.379 510.701 550.04 466.04L472.289 388.289C445.616 414.962 410.52 431.561 372.981 435.258C335.442 438.956 297.782 429.522 266.418 408.566C235.054 387.609 211.927 356.426 200.977 320.329C190.027 284.232 191.932 245.456 206.368 210.606C220.803 175.756 246.875 146.99 280.142 129.209C313.409 111.427 351.812 105.73 388.808 113.089C425.804 120.448 459.104 140.408 483.034 169.566C506.964 198.725 520.043 235.279 520.043 273H630Z" fill="url(#paint1_linear_6338_29464)"/>
<path d="M630 273C630 209.84 608.1 148.634 568.032 99.8106C527.964 50.9873 472.206 17.5675 410.26 5.24562C348.313 -7.07628 284.011 2.46208 228.309 32.2355C172.607 62.0089 128.951 110.175 104.781 168.527C80.6106 226.88 77.4209 291.807 95.7553 352.248C114.09 412.688 152.814 464.901 205.329 499.991C257.845 535.081 320.903 550.876 383.759 544.685C446.615 538.495 505.379 510.701 550.04 466.04L472.289 388.289C445.616 414.962 410.52 431.561 372.981 435.258C335.442 438.956 297.782 429.522 266.418 408.566C235.054 387.609 211.927 356.426 200.977 320.329C190.027 284.232 191.932 245.456 206.368 210.606C220.803 175.756 246.875 146.99 280.142 129.209C313.409 111.427 351.812 105.73 388.808 113.089C425.804 120.448 459.104 140.408 483.034 169.566C506.964 198.725 520.043 235.279 520.043 273H630Z" fill="url(#paint2_linear_6338_29464)"/>
<path d="M630 273C630 219.006 613.989 166.224 583.991 121.329C553.994 76.4347 511.357 41.4436 461.473 20.7809C411.588 0.118164 356.697 -5.28815 303.74 5.24562C250.784 15.7794 202.14 41.7801 163.96 79.9598C125.78 118.14 99.7794 166.784 89.2456 219.74C78.7119 272.697 84.1182 327.588 104.781 377.473C125.444 427.357 160.435 469.994 205.329 499.991C250.224 529.989 303.006 546 357 546V436.043C324.753 436.043 293.23 426.481 266.418 408.566C239.606 390.65 218.708 365.186 206.368 335.394C194.027 305.602 190.798 272.819 197.089 241.192C203.38 209.564 218.909 180.513 241.711 157.711C264.513 134.909 293.564 119.38 325.192 113.089C356.819 106.798 389.602 110.027 419.394 122.368C449.186 134.708 474.65 155.606 492.566 182.418C510.481 209.23 520.043 240.753 520.043 273H630Z" fill="url(#paint3_linear_6338_29464)"/>
<path d="M630 273C630 228.105 618.928 183.903 597.765 144.309C576.601 104.715 546 70.9512 508.671 46.0088C471.342 21.0664 428.438 5.71506 383.759 1.31457C339.08 -3.08592 294.005 3.60027 252.527 20.7809C211.05 37.9615 174.449 65.1062 145.968 99.8106C117.487 134.515 98.0042 175.708 89.2456 219.74C80.487 263.773 82.7229 309.286 95.7553 352.248C108.788 395.21 132.214 434.294 163.96 466.04L241.711 388.289C222.751 369.33 208.76 345.987 200.977 320.329C193.194 294.671 191.859 267.489 197.089 241.192C202.32 214.894 213.956 190.293 230.966 169.566C247.976 148.84 269.834 132.628 294.606 122.368C319.378 112.107 346.298 108.114 372.981 110.742C399.665 113.37 425.288 122.538 447.582 137.434C469.876 152.331 488.152 172.495 500.791 196.142C513.431 219.789 520.043 246.187 520.043 273H630Z" fill="url(#paint4_linear_6338_29464)"/>
<path d="M630 273C630 237.149 622.939 201.649 609.219 168.527C595.5 135.406 575.391 105.31 550.04 79.9598C524.69 54.6095 494.594 34.5004 461.473 20.7809C428.351 7.06135 392.851 -1.56709e-06 357 0C321.149 1.56709e-06 285.649 7.06136 252.527 20.7809C219.406 34.5004 189.31 54.6095 163.96 79.9599C138.609 105.31 118.5 135.406 104.781 168.527C91.0613 201.649 84 237.149 84 273L193.957 273C193.957 251.589 198.174 230.387 206.368 210.606C214.561 190.825 226.571 172.851 241.711 157.711C256.851 142.571 274.825 130.561 294.606 122.368C314.387 114.174 335.589 109.957 357 109.957C378.411 109.957 399.613 114.174 419.394 122.368C439.175 130.561 457.149 142.571 472.289 157.711C487.429 172.851 499.439 190.825 507.632 210.606C515.826 230.387 520.043 251.589 520.043 273H630Z" fill="url(#paint5_linear_6338_29464)"/>
<path d="M630 273C630 219.006 613.989 166.224 583.991 121.329C553.994 76.4347 511.357 41.4436 461.473 20.7809C411.588 0.118164 356.697 -5.28815 303.74 5.24562C250.784 15.7794 202.14 41.7801 163.96 79.9598L241.711 157.711C264.513 134.909 293.564 119.38 325.192 113.089C356.819 106.798 389.602 110.027 419.394 122.368C449.186 134.708 474.65 155.606 492.566 182.418C510.481 209.23 520.043 240.753 520.043 273H630Z" fill="url(#paint6_linear_6338_29464)"/>
<path d="M550.04 79.9598C498.843 28.7624 429.404 8.6341e-07 357 0V109.957C400.242 109.957 441.713 127.134 472.289 157.711L550.04 79.9598Z" fill="url(#paint7_linear_6338_29464)"/>
<path d="M630 273C630 237.149 622.939 201.649 609.219 168.527C595.5 135.406 575.391 105.31 550.04 79.9598L472.289 157.711C487.429 172.851 499.439 190.825 507.632 210.606C515.826 230.387 520.043 251.589 520.043 273H630Z" fill="url(#paint8_linear_6338_29464)"/>
<path d="M357.425 352.775C317.319 352.775 274.05 327.619 274.05 272.419C274.05 217.219 317.319 192.062 357.425 192.062C379.706 192.062 400.262 199.394 415.5 212.762C432.031 227.425 440.8 248.125 440.8 272.419C440.8 296.713 432.031 317.269 415.5 331.931C400.262 345.3 379.562 352.775 357.425 352.775Z" fill="url(#paint9_radial_6338_29464)"/>
<path d="M426.267 224.65C433.928 237.013 437.925 251.733 437.925 268.106C437.925 292.4 429.156 312.956 412.625 327.619C397.387 340.987 376.687 348.462 354.55 348.462C328.589 348.462 301.362 337.897 285.291 315.486C300.759 340.872 329.854 352.775 357.425 352.775C379.562 352.775 400.262 345.3 415.5 331.931C432.031 317.269 440.8 296.712 440.8 272.419C440.8 254.105 435.812 237.832 426.267 224.65Z" fill="#EB8F00"/>
<path d="M309.125 249.13C307.328 251.79 303.059 250.079 304.31 246.859C307.256 239.858 312.762 234.252 319.72 231.205C322.264 229.997 325.01 229.235 327.813 228.933C329.236 228.646 330.63 229.566 330.918 230.989C331.205 232.412 330.285 233.807 328.848 234.094H328.661C320.638 236.757 313.753 242.056 309.125 249.13ZM405.855 249.13C407.651 251.79 411.921 250.079 410.67 246.859C407.714 239.844 402.17 234.238 395.188 231.205C392.644 229.997 389.927 229.235 387.124 228.933C385.701 228.646 384.306 229.566 384.033 230.989C383.746 232.412 384.666 233.807 386.089 234.094H386.276C394.311 236.739 401.226 242.043 405.855 249.13ZM330.213 249.475C324.19 249.475 318.713 254.564 318.713 263.017C318.713 271.469 324.19 276.543 330.213 276.543C336.236 276.543 341.713 271.455 341.713 263.017C341.713 254.578 336.236 249.475 330.213 249.475Z" fill="#422B0D"/>
<path d="M329.653 255.121C328.669 254.653 327.54 254.593 326.511 254.954C325.482 255.314 324.638 256.067 324.162 257.048C323.4 258.643 323.745 260.555 325.025 261.791C327.066 262.769 329.524 261.906 330.516 259.865C331.278 258.269 330.933 256.358 329.653 255.121Z" fill="#896024"/>
<path d="M385.312 249.477C379.289 249.477 373.812 254.565 373.812 263.018C373.812 271.47 379.289 276.545 385.312 276.545C391.336 276.545 396.812 271.456 396.812 263.018C396.812 254.58 391.364 249.477 385.312 249.477Z" fill="#422B0D"/>
<path d="M384.78 255.121C383.796 254.653 382.667 254.593 381.638 254.954C380.61 255.314 379.765 256.067 379.289 257.048C378.527 258.643 378.872 260.555 380.152 261.791C382.193 262.769 384.651 261.906 385.643 259.865C386.405 258.269 386.06 256.358 384.78 255.121Z" fill="#896024"/>
<path d="M155.802 219.398C141.852 219.398 126.802 210.648 126.802 191.448C126.802 172.248 141.852 163.498 155.802 163.498C163.552 163.498 170.702 166.048 176.002 170.698C181.752 175.798 184.802 182.998 184.802 191.448C184.802 199.898 181.752 207.048 176.002 212.148C170.702 216.798 163.502 219.398 155.802 219.398Z" fill="url(#paint10_radial_6338_29464)"/>
<path d="M179.744 174.836C182.409 179.136 183.799 184.256 183.799 189.951C183.799 198.401 180.749 205.551 174.999 210.651C169.699 215.301 162.499 217.901 154.799 217.901C145.769 217.901 136.299 214.226 130.709 206.431C136.089 215.261 146.209 219.401 155.799 219.401C163.499 219.401 170.699 216.801 175.999 212.151C181.749 207.051 184.799 199.901 184.799 191.451C184.799 185.081 183.064 179.421 179.744 174.836Z" fill="#EB8F00"/>
<path d="M174.851 196.105C174.512 195.495 173.965 195.027 173.309 194.789C172.653 194.55 171.933 194.556 171.281 194.805C166.781 196.205 161.281 196.72 155.741 196.725C150.397 196.747 145.077 195.998 139.946 194.5C139.294 194.251 138.574 194.245 137.919 194.484C137.263 194.722 136.715 195.19 136.376 195.8C135.696 197.055 136.191 198.51 136.761 199.765C140.001 206.825 147.051 211.045 155.701 211.07H155.781C164.431 211.07 171.251 207.12 174.466 200.07C175.036 198.815 175.531 197.36 174.851 196.105Z" fill="white"/>
<path d="M148.501 188.443L148.426 188.343L148.211 188.068L147.946 187.783C147.836 187.658 147.706 187.538 147.581 187.408C147.456 187.278 147.301 187.153 147.161 187.048C147.031 186.948 146.891 186.853 146.741 186.778C146.641 186.723 146.531 186.678 146.416 186.653C146.382 186.648 146.346 186.648 146.311 186.653H146.226H146.361H146.086C146.011 186.653 146.061 186.653 146.086 186.653H146.126H146.071C145.956 186.678 145.846 186.718 145.741 186.778C145.596 186.858 145.451 186.948 145.321 187.048C145.176 187.158 145.036 187.278 144.906 187.408C144.641 187.663 144.406 187.908 144.256 188.103L143.996 188.403L143.881 188.538C143.533 188.926 143.053 189.172 142.535 189.228C142.016 189.285 141.495 189.147 141.071 188.843C140.797 188.652 140.582 188.387 140.452 188.079C140.322 187.771 140.282 187.433 140.336 187.103C140.336 187.103 140.371 186.903 140.466 186.548C140.616 186.043 140.826 185.553 141.091 185.093C141.516 184.343 142.091 183.688 142.781 183.168C143.236 182.818 143.741 182.538 144.281 182.343C144.431 182.283 144.586 182.238 144.741 182.198C144.906 182.148 145.071 182.113 145.241 182.083L145.546 182.038L145.801 182.008H146.726C146.896 182.008 147.061 182.053 147.226 182.078C147.546 182.133 147.866 182.218 148.171 182.333C148.711 182.528 149.216 182.808 149.671 183.158C150.361 183.678 150.936 184.333 151.361 185.083C151.516 185.343 151.651 185.618 151.761 185.898C151.856 186.123 151.936 186.348 152.001 186.583C152.036 186.703 152.066 186.823 152.081 186.943V187.068C152.231 188.088 151.521 189.038 150.501 189.188C150.476 189.193 150.451 189.193 150.426 189.198C149.696 189.303 148.966 189.013 148.501 188.443ZM168.231 188.443L168.151 188.343L167.936 188.068L167.671 187.783C167.561 187.658 167.431 187.538 167.306 187.408C167.181 187.278 167.026 187.153 166.886 187.048C166.756 186.948 166.616 186.853 166.466 186.778C166.366 186.723 166.256 186.678 166.141 186.653C166.107 186.648 166.071 186.648 166.036 186.653H165.951H166.086H165.811C165.736 186.653 165.786 186.653 165.811 186.653H165.851H165.796C165.681 186.678 165.571 186.718 165.466 186.778C165.321 186.853 165.181 186.948 165.051 187.048C164.901 187.158 164.761 187.278 164.631 187.408C164.366 187.663 164.131 187.908 163.981 188.103L163.721 188.403L163.611 188.538C163.262 188.926 162.782 189.172 162.262 189.228C161.743 189.285 161.221 189.147 160.796 188.843C160.522 188.652 160.307 188.387 160.177 188.079C160.047 187.771 160.007 187.433 160.061 187.103C160.061 187.103 160.096 186.903 160.196 186.548C160.346 186.038 160.551 185.548 160.821 185.093C161.246 184.343 161.816 183.688 162.506 183.168C162.961 182.818 163.466 182.538 164.006 182.343C164.156 182.283 164.311 182.238 164.466 182.198C164.631 182.148 164.796 182.113 164.966 182.083L165.276 182.038L165.526 182.008H166.451C166.621 182.008 166.786 182.053 166.951 182.078C167.276 182.133 167.591 182.218 167.896 182.333C168.436 182.528 168.941 182.808 169.396 183.158C170.086 183.678 170.661 184.333 171.086 185.083C171.241 185.343 171.376 185.618 171.486 185.898C171.581 186.118 171.661 186.343 171.726 186.573C171.761 186.693 171.791 186.813 171.806 186.933V187.058C171.883 187.548 171.761 188.048 171.468 188.448C171.176 188.849 170.736 189.116 170.246 189.193C170.231 189.193 170.216 189.198 170.201 189.198C169.456 189.323 168.701 189.033 168.231 188.443Z" fill="#422B0D"/>
<path d="M174.445 197.915C174.4 197.945 171.345 200.23 165.6 201.71V196.06C164.945 196.16 164.275 196.245 163.6 196.32V202.16C161.275 202.62 158.91 202.875 156.54 202.925V196.715H154.54V202.925C154.755 202.93 154.755 202.935 154.54 202.935L154.53 202.925C152.215 202.885 149.91 202.665 147.63 202.26V196.165C146.95 196.075 146.285 195.97 145.63 195.855V201.84C139.72 200.435 136.75 198.19 136.71 198.155C136.545 198.025 136.341 197.951 136.13 197.945C136.27 198.575 136.48 199.19 136.76 199.775C136.935 200.16 137.125 200.53 137.325 200.9C139.939 202.285 142.735 203.295 145.63 203.9V208.83C146.28 209.145 146.95 209.43 147.63 209.675V204.3C149.91 204.68 152.22 204.89 154.53 204.925L154.54 204.935H154.53V211.04C154.915 211.04 155.305 211.08 155.7 211.08H156.53V204.925C158.9 204.88 161.265 204.64 163.6 204.21V209.815C164.28 209.585 164.95 209.315 165.6 209.01V203.785C168.65 203.085 171.585 201.94 174.305 200.39C174.355 200.28 174.415 200.18 174.465 200.07C174.83 199.33 175.07 198.535 175.165 197.715C174.91 197.685 174.65 197.76 174.445 197.915Z" fill="#B3B3B3"/>
<path d="M175.055 195.817C174.712 195.204 174.161 194.735 173.501 194.494C172.842 194.252 172.118 194.255 171.46 194.502C166.33 195.997 161.01 196.742 155.67 196.717C150.326 196.742 145.006 195.996 139.875 194.502C139.224 194.254 138.505 194.249 137.851 194.488C137.196 194.727 136.649 195.193 136.31 195.802C135.63 197.057 136.12 198.512 136.695 199.767C136.95 200.332 137.235 200.887 137.55 201.422C137.55 201.422 136.5 197.532 137.41 196.402C137.563 196.166 137.769 195.969 138.013 195.828C138.256 195.687 138.529 195.606 138.81 195.592C139.045 195.592 139.275 195.632 139.5 195.702C144.72 197.237 150.135 198.012 155.58 198.002H155.755C161.2 198.012 166.615 197.237 171.835 195.702C172.06 195.632 172.29 195.592 172.525 195.592C173.095 195.622 173.62 195.922 173.93 196.402C174.855 197.532 173.79 201.437 173.79 201.437C174.1 200.902 174.41 200.352 174.67 199.782C175.24 198.527 175.735 197.077 175.055 195.817Z" fill="#EB8F00"/>
<path d="M559.802 217.402C545.852 217.402 530.802 208.652 530.802 189.452C530.802 170.252 545.852 161.502 559.802 161.502C567.552 161.502 574.702 164.052 580.002 168.702C585.752 173.802 588.802 181.002 588.802 189.452C588.802 197.902 585.752 205.052 580.002 210.152C574.702 214.802 567.502 217.402 559.802 217.402Z" fill="url(#paint11_radial_6338_29464)"/>
<path d="M583.743 172.836C586.408 177.136 587.798 182.256 587.798 187.951C587.798 196.401 584.748 203.551 578.998 208.651C573.698 213.301 566.498 215.901 558.798 215.901C549.768 215.901 540.298 212.226 534.708 204.431C540.088 213.261 550.208 217.401 559.798 217.401C567.498 217.401 574.698 214.801 579.998 210.151C585.748 205.051 588.798 197.901 588.798 189.451C588.798 183.081 587.063 177.421 583.743 172.836Z" fill="#EB8F00"/>
<path d="M560.3 200.801C562.205 200.806 564.105 200.706 566 200.501C566.025 197.186 563.355 194.481 560.04 194.461C556.725 194.441 554.025 197.101 554 200.416C556.09 200.676 558.195 200.806 560.3 200.801Z" fill="white"/>
<path d="M554.001 200.416V206.701C554.001 210.016 556.686 212.701 560.001 212.701C563.316 212.701 566.001 210.016 566.001 206.701V200.486C564.111 200.696 562.216 200.801 560.316 200.801C558.206 200.806 556.096 200.676 554.001 200.416ZM569.851 178.301C571.751 178.301 573.501 180.501 573.501 184.201C573.501 187.901 571.751 190.101 569.851 190.101C567.951 190.101 566.201 187.901 566.201 184.201C566.201 180.501 567.901 178.301 569.851 178.301ZM550.151 178.301C548.101 178.301 546.301 180.501 546.301 184.201C546.301 187.901 548.151 190.101 550.151 190.101C552.151 190.101 554.001 187.901 554.001 184.201C554.001 180.501 552.151 178.301 550.151 178.301ZM550.801 172.451C551.951 172.551 552.401 171.001 551.201 170.651C550.256 170.396 549.276 170.296 548.301 170.351C545.656 170.451 543.151 171.561 541.301 173.451C540.451 174.351 541.651 175.451 542.551 174.801C544.96 173.115 547.865 172.287 550.801 172.451ZM569.101 172.451C572.051 172.281 574.976 173.106 577.401 174.801C578.301 175.451 579.501 174.351 578.651 173.451C576.793 171.569 574.292 170.462 571.651 170.351C570.676 170.296 569.696 170.396 568.751 170.651C568.261 170.791 567.976 171.296 568.116 171.786C568.236 172.221 568.656 172.501 569.101 172.451Z" fill="#422B0D"/>
<path d="M550.138 180.436C549.795 180.273 549.402 180.252 549.045 180.378C548.687 180.503 548.393 180.765 548.228 181.106C547.963 181.661 548.083 182.326 548.528 182.756C549.238 183.096 550.093 182.796 550.438 182.086C550.703 181.531 550.583 180.866 550.138 180.436ZM569.653 180.436C569.309 180.275 568.916 180.257 568.559 180.385C568.202 180.514 567.91 180.778 567.748 181.121C567.488 181.676 567.608 182.331 568.048 182.756C568.763 183.091 569.613 182.786 569.953 182.071C570.213 181.521 570.093 180.861 569.653 180.436Z" fill="#896024"/>
<path d="M565.998 200.801C565.708 199.331 564.938 197.996 563.813 197.001C562.756 196.079 561.401 195.572 559.998 195.572C558.596 195.572 557.24 196.079 556.183 197.001C555.06 197.995 554.292 199.329 553.998 200.801C553.718 199.126 554.218 197.416 555.353 196.156C557.598 193.591 561.503 193.331 564.068 195.581C564.273 195.761 564.463 195.951 564.643 196.156C565.208 196.796 565.623 197.551 565.863 198.371C566.093 199.161 566.138 199.991 565.998 200.801Z" fill="#EB8F00"/>
<g clip-path="url(#clip1_6338_29464)">
<path d="M271.802 101.402C257.852 101.402 242.802 92.652 242.802 73.452C242.802 54.252 257.852 45.502 271.802 45.502C279.552 45.502 286.702 48.052 292.002 52.702C297.752 57.802 300.802 65.002 300.802 73.452C300.802 81.902 297.752 89.052 292.002 94.152C286.702 98.802 279.502 101.402 271.802 101.402Z" fill="url(#paint12_radial_6338_29464)"/>
<path d="M295.743 56.8359C298.408 61.1359 299.798 66.2559 299.798 71.9509C299.798 80.4009 296.748 87.5509 290.998 92.6509C285.698 97.3009 278.498 99.9009 270.798 99.9009C261.768 99.9009 252.298 96.2259 246.708 88.4309C252.088 97.2609 262.208 101.401 271.798 101.401C279.498 101.401 286.698 98.8009 291.998 94.1509C297.748 89.0509 300.798 81.9009 300.798 73.4509C300.798 67.0809 299.063 61.4209 295.743 56.8359Z" fill="#EB8F00"/>
<path d="M259.718 57.6059C259.612 57.3499 259.412 57.1444 259.159 57.0318C258.905 56.9192 258.619 56.9082 258.358 57.0009C257.548 57.2669 256.766 57.6101 256.023 58.0259C254.044 59.1163 252.349 60.658 251.078 62.5259C250.728 63.0009 250.818 63.6659 251.283 64.0259C251.528 64.2309 251.848 64.3309 252.168 64.2909C252.408 64.2559 252.628 64.1409 252.798 63.9659C254.718 62.0859 256.868 60.4559 259.193 59.1159L259.248 59.0859C259.503 58.9487 259.695 58.7174 259.783 58.4411C259.87 58.1648 259.847 57.8653 259.718 57.6059ZM285.343 57.1059C285.563 56.5759 286.163 56.3059 286.703 56.5009C287.508 56.7609 288.288 57.0959 289.033 57.5009C291.013 58.5909 292.708 60.1309 293.983 62.0009C294.328 62.4759 294.238 63.1359 293.778 63.5009C293.533 63.7059 293.213 63.8009 292.893 63.7659C292.653 63.73 292.431 63.6158 292.263 63.4409C290.343 61.5617 288.195 59.9322 285.868 58.5909L285.813 58.5609C285.564 58.424 285.376 58.1971 285.289 57.9267C285.201 57.6562 285.221 57.3626 285.343 57.1059ZM291.033 77.8109C290.695 77.1998 290.148 76.731 289.492 76.4904C288.836 76.2498 288.116 76.2535 287.463 76.5009C282.332 77.9955 277.012 78.7415 271.668 78.7159C266.324 78.7415 261.004 77.9955 255.873 76.5009C255.221 76.2533 254.503 76.2485 253.848 76.4872C253.194 76.7259 252.647 77.1922 252.308 77.8009C251.628 79.0559 252.118 80.5109 252.693 81.7659C255.903 88.8159 262.978 93.0359 271.628 93.0609H271.708C280.358 93.0609 287.433 88.8159 290.648 81.7659C291.218 80.5009 291.713 79.0659 291.033 77.8109Z" fill="#422B0D"/>
<path d="M279.676 91.0706C279.491 90.9006 279.301 90.7456 279.111 90.5706C277.069 88.775 274.429 87.8099 271.711 87.8656C268.911 87.8206 266.186 88.7506 264.001 90.5006C263.811 90.6556 263.611 90.8056 263.426 91.0006C263.241 91.1956 263.141 91.3356 263.021 91.5006C265.771 92.5756 268.701 93.1256 271.656 93.1106H271.736C274.566 93.1106 277.371 92.6056 280.021 91.6106C279.921 91.4206 279.806 91.2406 279.676 91.0706Z" fill="#ED7770"/>
<path d="M287.463 76.4997C282.332 77.9943 277.012 78.7403 271.668 78.7147C266.324 78.7403 261.004 77.9943 255.873 76.4997C255.221 76.2521 254.503 76.2473 253.848 76.486C253.194 76.7247 252.647 77.191 252.308 77.7997C252.208 77.9897 252.128 78.1897 252.078 78.3947C252.243 78.4797 252.433 78.5647 252.658 78.6547C258.678 81.669 265.331 83.1999 272.063 83.1197C278.518 83.1947 284.898 81.7897 290.728 79.0197C290.963 78.9197 291.158 78.8247 291.333 78.7347C291.293 78.4097 291.188 78.0897 291.033 77.7997C290.694 77.1897 290.146 76.7224 289.49 76.4836C288.834 76.2448 288.115 76.2505 287.463 76.4997Z" fill="white"/>
<path d="M291.054 77.8207C290.711 77.2081 290.16 76.7387 289.5 76.4975C288.841 76.2563 288.117 76.2592 287.459 76.5057C282.329 78.0007 277.009 78.7457 271.669 78.7207C266.325 78.7463 261.005 78.0003 255.874 76.5057C255.223 76.2581 254.505 76.2533 253.85 76.492C253.195 76.7307 252.649 77.197 252.309 77.8057C251.629 79.0607 252.119 80.5157 252.694 81.7707C252.949 82.3357 253.234 82.8907 253.549 83.4257C253.549 83.4257 252.499 79.5357 253.409 78.4057C253.562 78.1694 253.768 77.9728 254.012 77.8319C254.255 77.6911 254.529 77.6101 254.809 77.5957C255.044 77.5957 255.274 77.6357 255.499 77.7057C260.719 79.2407 266.134 80.0157 271.579 80.0057H271.754C277.199 80.0157 282.614 79.2407 287.834 77.7057C288.059 77.6357 288.289 77.5957 288.524 77.5957C289.094 77.6257 289.619 77.9257 289.929 78.4057C290.854 79.5357 289.789 83.4407 289.789 83.4407C290.099 82.9057 290.409 82.3557 290.669 81.7857C291.239 80.5307 291.734 79.0807 291.054 77.8207Z" fill="#EB8F00"/>
<path d="M290.343 70.5469C290.343 70.5469 298.843 70.7819 302.238 77.0469C303.658 79.6769 303.738 84.0469 300.798 85.6419C297.243 87.5969 293.908 84.8219 293.483 81.8619C292.338 73.8319 290.343 70.5469 290.343 70.5469Z" fill="#29B6F6"/>
<path d="M301.628 82.6382C301.467 82.9327 301.204 83.1582 300.888 83.2723C300.572 83.3865 300.225 83.3815 299.913 83.2582C299.338 82.9532 299.183 82.2182 299.093 81.5732L298.818 79.5732C298.703 78.7782 297.893 76.2032 298.743 75.7832C299.418 75.4532 300.713 76.3632 301.093 76.8882C301.928 78.0782 302.323 81.4682 301.628 82.6382Z" fill="#81D4FA"/>
<path d="M298.745 75.8047C299.42 75.4747 300.715 76.3847 301.095 76.9097C301.93 78.0747 302.325 81.4647 301.63 82.6347C301.468 82.9292 301.205 83.1546 300.889 83.2688C300.573 83.383 300.227 83.3779 299.915 83.2547C299.34 82.9497 299.185 82.2147 299.095 81.5697L298.82 79.5697" fill="#81D4FA"/>
<path d="M253.655 70.5469C253.655 70.5469 245.155 70.7819 241.76 77.0469C240.34 79.6519 240.285 84.0019 243.2 85.6169C246.755 87.5719 250.09 84.7969 250.515 81.8369C251.66 73.8319 253.655 70.5469 253.655 70.5469Z" fill="#29B6F6"/>
<path d="M242.373 82.6382C242.534 82.9327 242.797 83.1582 243.113 83.2723C243.429 83.3865 243.775 83.3815 244.088 83.2582C244.663 82.9532 244.818 82.2182 244.908 81.5732L245.183 79.5732C245.298 78.7782 246.108 76.2032 245.258 75.7832C244.583 75.4532 243.288 76.3632 242.908 76.8882C242.073 78.0782 241.678 81.4682 242.373 82.6382Z" fill="#81D4FA"/>
<path d="M264.073 69.9356L263.998 69.8256L263.893 69.6906C263.853 69.6356 263.813 69.5906 263.763 69.5456L263.458 69.2356C263.328 69.1056 263.183 68.9756 263.023 68.8406C262.693 68.5556 262.323 68.3256 261.923 68.1456C261.538 67.9756 261.118 67.8856 260.698 67.8856H260.783H260.498C260.448 67.8806 260.403 67.8806 260.353 67.8856C260.263 67.8956 260.173 67.9106 260.083 67.9306C259.878 67.9806 259.673 68.0456 259.478 68.1256C259.078 68.3006 258.708 68.5356 258.378 68.8206C258.108 69.0456 257.853 69.2906 257.618 69.5556L257.333 69.8756L257.183 70.0456C256.894 70.3766 256.485 70.5792 256.046 70.6092C255.608 70.6392 255.175 70.4941 254.843 70.2056C254.328 69.7556 254.143 69.0306 254.373 68.3856L254.428 68.2256C254.473 68.1206 254.513 67.9606 254.608 67.7706C254.838 67.2306 255.138 66.7156 255.498 66.2506C256.373 65.0956 257.603 64.2556 258.998 63.8556C259.283 63.7806 259.573 63.7256 259.868 63.6856C260.018 63.6856 260.238 63.6406 260.303 63.6406H260.683C261.248 63.6506 261.813 63.7306 262.363 63.8706C262.888 64.0156 263.388 64.2256 263.863 64.4956C264.638 64.9506 265.318 65.5506 265.863 66.2656C266.233 66.7506 266.548 67.2756 266.793 67.8356C266.833 67.9156 266.868 67.9956 266.888 68.0806C266.913 68.1456 266.928 68.2006 266.943 68.2456L266.988 68.3806C267.273 69.2656 266.788 70.2156 265.903 70.5006C265.238 70.7156 264.503 70.4956 264.068 69.9506L264.073 69.9356ZM286.738 69.9356L286.648 69.8256L286.543 69.6906C286.503 69.6356 286.463 69.5906 286.413 69.5456L286.103 69.2356C285.968 69.0956 285.823 68.9656 285.673 68.8406C285.343 68.5556 284.973 68.3256 284.573 68.1456C284.188 67.9756 283.768 67.8856 283.348 67.8856H283.433H283.143C283.093 67.8806 283.048 67.8806 282.998 67.8856C282.908 67.8956 282.818 67.9106 282.728 67.9306C282.523 67.9806 282.318 68.0456 282.123 68.1256C281.718 68.3106 281.338 68.5506 280.998 68.8406C280.728 69.0706 280.478 69.3156 280.243 69.5756L279.958 69.8956L279.808 70.0656C279.519 70.3966 279.11 70.5992 278.671 70.6292C278.233 70.6592 277.8 70.5141 277.468 70.2256C276.953 69.7756 276.768 69.0506 276.998 68.4056L277.053 68.2456C277.098 68.1406 277.138 67.9806 277.228 67.7906C277.468 67.2406 277.773 66.7256 278.143 66.2506C279.018 65.0956 280.248 64.2556 281.643 63.8556C281.928 63.7806 282.218 63.7256 282.513 63.6856C282.663 63.6856 282.883 63.6406 282.948 63.6406H283.328C283.893 63.6506 284.458 63.7306 285.008 63.8706C285.528 64.0206 286.028 64.2306 286.498 64.5006C287.273 64.9506 287.953 65.5556 288.498 66.2706C288.708 66.5406 288.893 66.8256 289.063 67.1206C289.198 67.3556 289.318 67.5956 289.428 67.8406C289.468 67.9206 289.498 68.0006 289.523 68.0856C289.523 68.1506 289.563 68.2056 289.578 68.2506L289.623 68.3856C289.908 69.2706 289.423 70.2206 288.538 70.5056C287.873 70.7206 287.138 70.5006 286.703 69.9556L286.738 69.9356Z" fill="#422B0D"/>
</g>
<path d="M441.802 95.402C427.852 95.402 412.802 86.652 412.802 67.452C412.802 48.252 427.852 39.502 441.802 39.502C449.552 39.502 456.702 42.052 462.002 46.702C467.752 51.802 470.802 59.002 470.802 67.452C470.802 75.902 467.752 83.052 462.002 88.152C456.702 92.802 449.502 95.402 441.802 95.402Z" fill="url(#paint13_radial_6338_29464)"/>
<path d="M465.743 50.8359C468.408 55.1359 469.798 60.2559 469.798 65.9509C469.798 74.4009 466.748 81.5509 460.998 86.6509C455.698 91.3009 448.498 93.9009 440.798 93.9009C431.768 93.9009 422.298 90.2259 416.708 82.4309C422.088 91.2609 432.208 95.4009 441.798 95.4009C449.498 95.4009 456.698 92.8009 461.998 88.1509C467.748 83.0509 470.798 75.9009 470.798 67.4509C470.798 61.0809 469.063 55.4209 465.743 50.8359Z" fill="#EB8F00"/>
<path d="M441.802 95.402C427.852 95.402 412.802 86.652 412.802 67.452C412.802 48.252 427.852 39.502 441.802 39.502C449.552 39.502 456.702 42.052 462.002 46.702C467.752 51.802 470.802 59.002 470.802 67.452C470.802 75.902 467.752 83.052 462.002 88.152C456.702 92.802 449.502 95.402 441.802 95.402Z" fill="url(#paint14_linear_6338_29464)"/>
<path d="M441.802 95.402C427.852 95.402 412.802 86.652 412.802 67.452C412.802 48.252 427.852 39.502 441.802 39.502C449.552 39.502 456.702 42.052 462.002 46.702C467.752 51.802 470.802 59.002 470.802 67.452C470.802 75.902 467.752 83.052 462.002 88.152C456.702 92.802 449.502 95.402 441.802 95.402Z" fill="url(#paint15_linear_6338_29464)"/>
<path d="M465.743 50.8359C468.408 55.1359 469.798 60.2559 469.798 65.9509C469.798 74.4009 466.748 81.5509 460.998 86.6509C455.698 91.3009 448.498 93.9009 440.798 93.9009C431.768 93.9009 422.298 90.2259 416.708 82.4309C422.088 91.2609 432.208 95.4009 441.798 95.4009C449.498 95.4009 456.698 92.8009 461.998 88.1509C467.748 83.0509 470.798 75.9009 470.798 67.4509C470.798 61.0809 469.063 55.4209 465.743 50.8359Z" fill="#EB8F00"/>
<path d="M442.002 90.8628C438.992 90.8428 436.557 88.4078 436.537 85.3978V79.0978C436.537 76.0778 438.982 73.6328 442.002 73.6328C445.022 73.6328 447.467 76.0778 447.467 79.0978V85.4028C447.447 88.4128 445.012 90.8428 442.002 90.8628Z" fill="#422B0D"/>
<path d="M431.644 56.9102C432.664 56.9102 433.664 57.2052 434.524 57.7552C437.344 59.5402 438.524 63.7552 436.249 68.1102C434.679 71.1102 432.319 72.4952 430.084 72.4952C429.063 72.4941 428.064 72.2009 427.204 71.6502C424.384 69.8652 423.204 65.6502 425.479 61.2952C427.049 58.2952 429.404 56.9102 431.644 56.9102Z" fill="white"/>
<path opacity="0.66" d="M469.472 72.4992C468.787 71.9992 468.872 71.4442 466.972 72.2092C466.187 72.5292 465.287 74.3292 465.287 74.3292C465.287 74.3292 463.932 71.6192 461.252 75.2242C456.382 81.7642 454.252 81.4642 451.387 84.4642C449.542 86.3842 447.947 88.2142 448.562 91.8492C448.907 93.8792 449.872 94.4342 449.872 94.4342C449.872 94.4342 450.462 94.4342 456.252 91.4342C462.042 88.4342 467.097 84.1892 469.877 77.3892" fill="url(#paint16_linear_6338_29464)"/>
<path d="M453.871 85.76C456.046 84.11 458.146 82.595 459.136 81.29C460.126 79.985 461.191 77.25 461.831 75.46C462.471 73.67 464.331 72.795 465.331 74.325C465.591 74.735 465.386 76.325 465.331 76.935C465.876 76.03 466.261 75.035 466.471 74C466.971 71.56 469.521 70.77 469.971 74.05C469.971 74.05 471.866 74.125 471.026 80.005C470.606 82.295 469.851 84.515 468.776 86.58C466.081 91.66 463.971 94.015 461.241 95.885C456.971 98.805 452.926 98.11 451.661 96.45C449.501 93.595 450.081 88.635 453.871 85.76Z" fill="url(#paint17_radial_6338_29464)"/>
<path d="M465.311 74.3255C465.311 75.3005 464.371 78.6955 464.016 79.5655C462.791 82.7905 460.556 84.2905 461.181 84.8005C461.806 85.3105 463.001 84.2255 464.726 80.1305C465.256 78.7355 465.566 77.2705 465.636 75.7805C465.631 75.2755 465.521 74.7805 465.311 74.3255ZM468.601 71.8555C469.236 72.1305 470.181 73.9405 468.766 79.0105C467.891 82.8405 464.981 85.8205 465.681 86.1555C466.506 86.7105 468.391 83.5855 469.726 79.2555C470.076 77.9455 470.296 76.6055 470.371 75.2555C470.391 74.5755 470.161 72.0405 468.601 71.8555Z" fill="#ED6C30"/>
<path opacity="0.66" d="M414.265 72.4992C414.95 71.9992 414.865 71.4442 416.765 72.2092C417.55 72.5292 418.45 74.3292 418.45 74.3292C418.45 74.3292 419.805 71.6192 422.485 75.2242C427.355 81.7642 429.485 81.4642 432.35 84.4642C434.19 86.3842 435.785 88.2142 435.17 91.8492C434.83 93.8792 433.865 94.4342 433.865 94.4342C433.865 94.4342 432.905 94.4342 428.3 92.0842C427.905 91.8842 427.94 91.6792 427.485 91.4392C421.695 88.4392 416.64 84.1942 413.86 77.3942" fill="url(#paint18_linear_6338_29464)"/>
<path d="M429.865 85.76C427.69 84.11 425.59 82.595 424.6 81.29C423.61 79.985 422.545 77.25 421.9 75.46C421.255 73.67 419.4 72.795 418.425 74.325C418.165 74.735 418.37 76.325 418.425 76.935C417.875 76.03 417.48 75.035 417.265 74C416.765 71.56 414.215 70.77 413.765 74.05C413.765 74.05 411.87 74.125 412.71 80.005C413.13 82.295 413.885 84.515 414.96 86.58C417.65 91.66 419.765 94.015 422.495 95.885C426.76 98.805 430.805 98.11 432.075 96.45C434.22 93.595 433.655 88.635 429.865 85.76Z" fill="url(#paint19_radial_6338_29464)"/>
<path d="M418.426 74.3255C418.426 75.3005 419.366 78.6955 419.721 79.5655C420.946 82.7905 423.176 84.2905 422.556 84.8005C421.936 85.3105 420.731 84.2255 419.006 80.1305C418.476 78.7374 418.171 77.2692 418.101 75.7805C418.101 75.2755 418.211 74.7805 418.426 74.3255ZM415.131 71.8555C414.501 72.1305 413.556 73.9405 414.971 79.0005C415.846 82.8305 418.756 85.8105 418.056 86.1455C417.231 86.7005 415.346 83.5755 414.011 79.2455C413.661 77.9355 413.441 76.5955 413.366 75.2455C413.346 74.5755 413.576 72.0405 415.131 71.8555Z" fill="#ED6C30"/>
<path d="M436.314 68.1466C435.944 69.4509 435.257 70.6432 434.314 71.6166C433.294 72.6702 431.951 73.3515 430.499 73.5516C428.944 73.7466 427.369 73.3416 426.099 72.4266C424.849 71.5166 423.909 70.2366 423.414 68.7716C423.299 68.4166 423.204 68.0516 423.134 67.6816C423.069 67.3166 423.024 66.9466 422.999 66.5766L422.964 66.0016L422.989 65.4516C423.004 65.0866 423.044 64.7266 423.114 64.3666C423.389 62.9866 423.934 61.6716 424.714 60.5016C425.469 59.3079 426.498 58.3106 427.714 57.5916C428.899 56.8766 430.304 56.6166 431.669 56.8566V57.0016C430.404 57.0266 429.174 57.4566 428.169 58.2266C427.169 58.9916 426.344 59.9666 425.749 61.0766C425.125 62.1659 424.702 63.358 424.499 64.5966C424.309 65.8366 424.414 67.1016 424.809 68.2916C425.189 69.4816 425.924 70.5316 426.919 71.2916C427.914 72.0666 429.159 72.4516 430.419 72.3716C431.669 72.2816 432.864 71.8016 433.829 71.0016C434.804 70.1966 435.604 69.2066 436.184 68.0816L436.314 68.1466Z" fill="#EB8F00"/>
<path d="M452.403 56.9102C454.643 56.9102 456.998 58.3102 458.568 61.2952C460.853 65.6302 459.663 69.8652 456.843 71.6502C455.983 72.2052 454.983 72.5002 453.963 72.5002C451.728 72.5002 449.368 71.1002 447.798 68.1152C445.498 63.7752 446.703 59.5402 449.523 57.7552C450.383 57.2045 451.382 56.9113 452.403 56.9102Z" fill="white"/>
<path d="M452.405 56.8331C453.77 56.5931 455.175 56.8531 456.36 57.5681C457.576 58.2872 458.604 59.2845 459.36 60.4781C460.145 61.6631 460.69 62.9881 460.96 64.3831C461.025 64.7431 461.07 65.1031 461.085 65.4681V66.5731C461.055 67.3181 460.915 68.0581 460.675 68.7681C460.18 70.2331 459.245 71.5081 457.99 72.4181C456.721 73.337 455.15 73.7392 453.595 73.5431C452.13 73.3481 450.775 72.6681 449.75 71.6081C448.804 70.6387 448.116 69.4473 447.75 68.1431L447.88 68.0731C448.455 69.1931 449.25 70.1881 450.22 70.9981C451.19 71.8031 452.385 72.2831 453.64 72.3731C454.9 72.4531 456.145 72.0681 457.14 71.2931C458.13 70.5281 458.865 69.4831 459.245 68.2931C459.64 67.1031 459.745 65.8381 459.555 64.5981C459.36 63.3581 458.945 62.1581 458.325 61.0631C457.73 59.9518 456.905 58.9801 455.905 58.2131C454.9 57.4431 453.67 57.0131 452.405 56.9881V56.8331Z" fill="#EB8F00"/>
</g>
<rect x="84" width="546" height="546" rx="273" fill="url(#paint20_linear_6338_29464)"/>
</g>
<defs>
<filter id="filter0_d_6338_29464" x="66.9999" y="-9" width="636" height="636" filterUnits="userSpaceOnUse" color-interpolation-filters="sRGB">
<feFlood flood-opacity="0" result="BackgroundImageFix"/>
<feColorMatrix in="SourceAlpha" type="matrix" values="0 0 0 0 0 0 0 0 0 0 0 0 0 0 0 0 0 0 127 0" result="hardAlpha"/>
<feOffset dx="28" dy="36"/>
<feGaussianBlur stdDeviation="22.5"/>
<feComposite in2="hardAlpha" operator="out"/>
<feColorMatrix type="matrix" values="0 0 0 0 0.400882 0 0 0 0 0.440817 0 0 0 0 0.520686 0 0 0 0.1 0"/>
<feBlend mode="normal" in2="BackgroundImageFix" result="effect1_dropShadow_6338_29464"/>
<feBlend mode="normal" in="SourceGraphic" in2="effect1_dropShadow_6338_29464" result="shape"/>
</filter>
<linearGradient id="paint0_linear_6338_29464" x1="612" y1="372" x2="506" y2="335" gradientUnits="userSpaceOnUse">
<stop stop-color="#0089FC"/>
<stop offset="1" stop-color="#6CBCFF"/>
</linearGradient>
<linearGradient id="paint1_linear_6338_29464" x1="463" y1="523" x2="422" y2="425" gradientUnits="userSpaceOnUse">
<stop stop-color="#5204FA"/>
<stop offset="1" stop-color="#5204FA" stop-opacity="0"/>
</linearGradient>
<linearGradient id="paint2_linear_6338_29464" x1="457" y1="526" x2="424" y2="421" gradientUnits="userSpaceOnUse">
<stop stop-color="#5204FA"/>
<stop offset="1" stop-color="#9969FF"/>
</linearGradient>
<linearGradient id="paint3_linear_6338_29464" x1="252" y1="525" x2="290" y2="423" gradientUnits="userSpaceOnUse">
<stop stop-color="#FF03F0"/>
<stop offset="1" stop-color="#FF68F6"/>
</linearGradient>
<linearGradient id="paint4_linear_6338_29464" x1="106" y1="380" x2="207" y2="336" gradientUnits="userSpaceOnUse">
<stop stop-color="#FF0029"/>
<stop offset="1" stop-color="#FF667F"/>
</linearGradient>
<linearGradient id="paint5_linear_6338_29464" x1="106" y1="170" x2="205" y2="212" gradientUnits="userSpaceOnUse">
<stop stop-color="#FF841A"/>
<stop offset="1" stop-color="#FFB270"/>
</linearGradient>
<linearGradient id="paint6_linear_6338_29464" x1="252" y1="21" x2="293" y2="122" gradientUnits="userSpaceOnUse">
<stop stop-color="#BAFF39"/>
<stop offset="1" stop-color="#D4FF83"/>
</linearGradient>
<linearGradient id="paint7_linear_6338_29464" x1="458" y1="20" x2="417" y2="123" gradientUnits="userSpaceOnUse">
<stop stop-color="#00FE41"/>
<stop offset="1" stop-color="#60FF88"/>
</linearGradient>
<linearGradient id="paint8_linear_6338_29464" x1="609" y1="165" x2="506" y2="211" gradientUnits="userSpaceOnUse">
<stop stop-color="#00FFDD"/>
<stop offset="1" stop-color="#8CFFF0"/>
</linearGradient>
<radialGradient id="paint9_radial_6338_29464" cx="0" cy="0" r="1" gradientUnits="userSpaceOnUse" gradientTransform="translate(357.425 272.419) scale(81.88 81.88)">
<stop offset="0.5" stop-color="#FDE030"/>
<stop offset="0.92" stop-color="#F7C02B"/>
<stop offset="1" stop-color="#F4A223"/>
</radialGradient>
<radialGradient id="paint10_radial_6338_29464" cx="0" cy="0" r="1" gradientUnits="userSpaceOnUse" gradientTransform="translate(155.802 191.448) scale(28.48 28.48)">
<stop offset="0.5" stop-color="#FDE030"/>
<stop offset="0.92" stop-color="#F7C02B"/>
<stop offset="1" stop-color="#F4A223"/>
</radialGradient>
<radialGradient id="paint11_radial_6338_29464" cx="0" cy="0" r="1" gradientUnits="userSpaceOnUse" gradientTransform="translate(559.802 189.452) scale(28.48 28.48)">
<stop offset="0.5" stop-color="#FDE030"/>
<stop offset="0.92" stop-color="#F7C02B"/>
<stop offset="1" stop-color="#F4A223"/>
</radialGradient>
<radialGradient id="paint12_radial_6338_29464" cx="0" cy="0" r="1" gradientUnits="userSpaceOnUse" gradientTransform="translate(271.802 73.452) scale(28.48 28.48)">
<stop offset="0.5" stop-color="#FDE030"/>
<stop offset="0.92" stop-color="#F7C02B"/>
<stop offset="1" stop-color="#F4A223"/>
</radialGradient>
<radialGradient id="paint13_radial_6338_29464" cx="0" cy="0" r="1" gradientUnits="userSpaceOnUse" gradientTransform="translate(441.802 67.452) scale(28.48 28.48)">
<stop offset="0.5" stop-color="#FDE030"/>
<stop offset="0.92" stop-color="#F7C02B"/>
<stop offset="1" stop-color="#F4A223"/>
</radialGradient>
<linearGradient id="paint14_linear_6338_29464" x1="441.802" y1="95.402" x2="441.802" y2="39.502" gradientUnits="userSpaceOnUse">
<stop offset="0.39" stop-color="#40C0E7" stop-opacity="0"/>
<stop offset="1" stop-color="#5F7AFF"/>
</linearGradient>
<linearGradient id="paint15_linear_6338_29464" x1="441.802" y1="95.402" x2="441.802" y2="39.502" gradientUnits="userSpaceOnUse">
<stop offset="0.16" stop-color="#F4A223"/>
<stop offset="0.33" stop-color="#F7C02B"/>
<stop offset="0.81" stop-color="#FDE030" stop-opacity="0"/>
</linearGradient>
<linearGradient id="paint16_linear_6338_29464" x1="459.152" y1="99.9092" x2="459.152" y2="75.0592" gradientUnits="userSpaceOnUse">
<stop stop-color="#ED6C30"/>
<stop offset="1" stop-color="#ED6C30" stop-opacity="0.2"/>
</linearGradient>
<radialGradient id="paint17_radial_6338_29464" cx="0" cy="0" r="1" gradientUnits="userSpaceOnUse" gradientTransform="translate(455.752 83.1408) rotate(141.52) scale(22.3491 20.5977)">
<stop offset="0.27" stop-color="#FFF176"/>
<stop offset="1" stop-color="#FFC400"/>
</radialGradient>
<linearGradient id="paint18_linear_6338_29464" x1="424.582" y1="99.9092" x2="424.582" y2="75.0592" gradientUnits="userSpaceOnUse">
<stop stop-color="#ED6C30"/>
<stop offset="1" stop-color="#ED6C30" stop-opacity="0.2"/>
</linearGradient>
<radialGradient id="paint19_radial_6338_29464" cx="0" cy="0" r="1" gradientUnits="userSpaceOnUse" gradientTransform="translate(427.959 83.1032) rotate(38.4802) scale(22.3491 20.5977)">
<stop offset="0.27" stop-color="#FFF176"/>
<stop offset="1" stop-color="#FFC400"/>
</radialGradient>
<linearGradient id="paint20_linear_6338_29464" x1="357" y1="0" x2="357" y2="546" gradientUnits="userSpaceOnUse">
<stop stop-color="white" stop-opacity="0.17"/>
<stop offset="0.332511" stop-color="white" stop-opacity="0.63"/>
<stop offset="1" stop-color="white"/>
</linearGradient>
<clipPath id="clip0_6338_29464">
<rect width="714" height="274" rx="31" fill="white"/>
</clipPath>
<clipPath id="clip1_6338_29464">
<rect width="64" height="64" fill="white" transform="translate(240 42)"/>
</clipPath>
</defs>
</svg>
