<svg width="154" height="52" viewBox="0 0 154 52" fill="none" xmlns="http://www.w3.org/2000/svg">
<rect width="52" height="52" rx="26" fill="url(#paint0_linear_689_8234)"/>
<rect x="18" y="9.25684" width="8" height="8" fill="url(#paint1_linear_689_8234)"/>
<path fill-rule="evenodd" clip-rule="evenodd" d="M18.0056 18.0566V28.453C18.0056 28.6415 18.0042 28.8317 18.0028 29.0239C17.991 30.6629 17.9783 32.4411 18.8052 34.451C20.3496 38.2045 24.4034 42.0483 30.0014 42.0483H34V34.0511H30.0014C28.6686 34.0511 26.0028 33.2514 26.0028 30.0525V26.0539H33.9999V18.0566H26.0028H26.0027H18.0056Z" fill="#1D2939"/>
<path d="M74.2 33.9228H69.688V17.8428H74.2V33.9228ZM79.864 21.8988H64V17.8428H79.864V21.8988Z" fill="#1D2939"/>
<path d="M85.4657 33.9228H80.9538V21.8268H85.1777V25.2828L85.4657 25.4028V33.9228ZM85.4657 26.6988H84.6257V24.9948H85.4177C85.5297 24.3228 85.7458 23.7308 86.0658 23.2188C86.3857 22.7068 86.8177 22.3068 87.3617 22.0188C87.9217 21.7308 88.6017 21.5868 89.4018 21.5868C90.2978 21.5868 91.0177 21.7708 91.5618 22.1388C92.1058 22.4908 92.4978 22.9788 92.7378 23.6028C92.9938 24.2268 93.1217 24.9468 93.1217 25.7628V28.1628H88.6098V26.7468C88.6098 26.2348 88.4977 25.8828 88.2738 25.6908C88.0498 25.4828 87.6418 25.3788 87.0497 25.3788C86.4417 25.3788 86.0257 25.4828 85.8018 25.6908C85.5778 25.8828 85.4657 26.2188 85.4657 26.6988Z" fill="#1D2939"/>
<path d="M99.0467 34.1628C97.9268 34.1628 96.9987 33.9628 96.2627 33.5628C95.5267 33.1628 94.9748 32.6188 94.6068 31.9308C94.2548 31.2428 94.0788 30.4588 94.0788 29.5788V21.8268H98.5908V27.9228C98.5908 28.7548 98.7828 29.3308 99.1668 29.6508C99.5668 29.9708 100.279 30.1308 101.303 30.1308C102.343 30.1308 103.031 29.9868 103.367 29.6988C103.719 29.3948 103.895 28.8508 103.895 28.0668H104.351L104.735 30.2508H103.943C103.863 30.9228 103.647 31.5548 103.295 32.1468C102.943 32.7388 102.423 33.2268 101.735 33.6108C101.047 33.9788 100.151 34.1628 99.0467 34.1628ZM108.407 33.9228H104.183V30.2028L103.895 30.0828V21.8268H108.407V33.9228Z" fill="#1D2939"/>
<path d="M116.262 34.1628C114.134 34.1628 112.51 33.7708 111.39 32.9868C110.27 32.2028 109.71 31.1148 109.71 29.7228V29.6268H114.222V29.8668C114.222 30.2028 114.358 30.4108 114.63 30.4908C114.918 30.5708 115.47 30.6108 116.286 30.6108C117.07 30.6108 117.566 30.5708 117.774 30.4908C117.982 30.3948 118.086 30.2428 118.086 30.0348C118.086 29.8428 118.006 29.7148 117.846 29.6508C117.686 29.5708 117.326 29.4988 116.766 29.4348L113.262 29.0508C112.014 28.9228 111.062 28.5708 110.406 27.9948C109.75 27.4028 109.422 26.5948 109.422 25.5708C109.422 24.8508 109.622 24.1948 110.022 23.6028C110.438 22.9948 111.102 22.5068 112.014 22.1388C112.942 21.7708 114.158 21.5868 115.662 21.5868C117.07 21.5868 118.246 21.7548 119.19 22.0908C120.15 22.4268 120.87 22.9308 121.35 23.6028C121.846 24.2588 122.094 25.0828 122.094 26.0748V26.1708H117.582V26.0268C117.582 25.8188 117.534 25.6508 117.438 25.5228C117.358 25.3788 117.166 25.2748 116.862 25.2108C116.574 25.1468 116.126 25.1148 115.518 25.1148C114.782 25.1148 114.318 25.1708 114.126 25.2828C113.95 25.3788 113.862 25.5388 113.862 25.7628C113.862 25.9228 113.95 26.0508 114.126 26.1468C114.318 26.2428 114.766 26.3308 115.47 26.4108L117.87 26.6748C119.63 26.8668 120.846 27.2588 121.518 27.8508C122.19 28.4428 122.526 29.2508 122.526 30.2748C122.526 31.0268 122.278 31.6988 121.782 32.2908C121.302 32.8668 120.598 33.3228 119.67 33.6588C118.742 33.9948 117.606 34.1628 116.262 34.1628Z" fill="#1D2939"/>
<path d="M132.658 33.9228H129.49C127.986 33.9228 126.802 33.5468 125.938 32.7948C125.09 32.0428 124.666 30.8828 124.666 29.3148V21.8268H129.178V28.6668C129.178 29.1468 129.266 29.4668 129.442 29.6268C129.634 29.7868 129.986 29.8668 130.498 29.8668H132.658V33.9228ZM132.658 25.5228H122.89V21.8268H132.658V25.5228Z" fill="#1D2939"/>
<path d="M138.247 33.9228H133.735V17.8428H138.247V33.9228Z" fill="#1D2939"/>
<path d="M146.432 34.1628C145.072 34.1628 143.864 33.9548 142.808 33.5388C141.752 33.1228 140.928 32.4508 140.336 31.5228C139.744 30.5948 139.448 29.3788 139.448 27.8748C139.448 26.5628 139.744 25.4428 140.336 24.5148C140.928 23.5708 141.736 22.8508 142.76 22.3548C143.8 21.8428 144.992 21.5868 146.336 21.5868C147.728 21.5868 148.936 21.8188 149.96 22.2828C150.984 22.7308 151.776 23.4028 152.336 24.2988C152.896 25.1788 153.176 26.2668 153.176 27.5628C153.176 27.7708 153.168 27.9628 153.152 28.1388C153.152 28.2988 153.136 28.4908 153.104 28.7148H142.4V26.4348H149.84L148.856 27.8508C148.856 27.7068 148.856 27.5708 148.856 27.4428C148.856 27.2988 148.856 27.1548 148.856 27.0108C148.856 26.2748 148.664 25.7628 148.28 25.4748C147.912 25.1868 147.232 25.0428 146.24 25.0428C145.216 25.0428 144.52 25.2028 144.152 25.5228C143.8 25.8428 143.624 26.4188 143.624 27.2508V28.4028C143.624 29.2508 143.808 29.8268 144.176 30.1308C144.544 30.4348 145.24 30.5868 146.264 30.5868C147.176 30.5868 147.784 30.5068 148.088 30.3468C148.408 30.1708 148.568 29.9068 148.568 29.5548V29.2908H153.08V29.5788C153.08 30.4748 152.808 31.2668 152.264 31.9548C151.72 32.6428 150.952 33.1868 149.96 33.5868C148.968 33.9708 147.792 34.1628 146.432 34.1628Z" fill="#1D2939"/>
<path d="M124.64 20.9229H129.178V17.8369H124.64V20.9229Z" fill="url(#paint2_linear_689_8234)"/>
<defs>
<linearGradient id="paint0_linear_689_8234" x1="60" y1="36.7805" x2="-8.09096" y2="35.6372" gradientUnits="userSpaceOnUse">
<stop stop-color="#EBE8F4"/>
<stop offset="1" stop-color="#E9F4EB"/>
</linearGradient>
<linearGradient id="paint1_linear_689_8234" x1="21.319" y1="14.5068" x2="24.4643" y2="14.5334" gradientUnits="userSpaceOnUse">
<stop stop-color="#7CCA68"/>
<stop offset="1" stop-color="#62CA9E"/>
</linearGradient>
<linearGradient id="paint2_linear_689_8234" x1="126.523" y1="19.8621" x2="128.307" y2="19.8843" gradientUnits="userSpaceOnUse">
<stop stop-color="#7CCA68"/>
<stop offset="1" stop-color="#62CA9E"/>
</linearGradient>
</defs>
</svg>
