<svg width="25" height="24" viewBox="0 0 25 24" fill="none" xmlns="http://www.w3.org/2000/svg">
<rect x="24.5" width="24" height="24" rx="6" transform="rotate(90 24.5 0)" fill="#F2F4F7"/>
<path d="M13.6074 6.46289C13.6074 5.85381 13.1091 5.35547 12.5 5.35547C11.8909 5.35547 11.3926 5.85381 11.3926 6.46289C11.3926 7.07197 11.8909 7.57031 12.5 7.57031C13.1091 7.57031 13.6074 7.07197 13.6074 6.46289ZM13.6074 17.5371C13.6074 16.928 13.1091 16.4297 12.5 16.4297C11.8909 16.4297 11.3926 16.928 11.3926 17.5371C11.3926 18.1462 11.8909 18.6445 12.5 18.6445C13.1091 18.6445 13.6074 18.1462 13.6074 17.5371ZM13.6074 12C13.6074 11.3909 13.1091 10.8926 12.5 10.8926C11.8909 10.8926 11.3926 11.3909 11.3926 12C11.3926 12.6091 11.8909 13.1074 12.5 13.1074C13.1091 13.1074 13.6074 12.6091 13.6074 12Z" fill="#667085"/>
</svg>
