<svg width="32" height="33" viewBox="0 0 32 33" fill="none" xmlns="http://www.w3.org/2000/svg">
<rect x="32" y="0.800049" width="32" height="32" rx="16" transform="rotate(90 32 0.800049)" fill="#ECFDF3"/>
<path d="M8.5 17.1752C8.5 16.3467 9.17157 15.6752 10 15.6752C11.2426 15.6752 12.25 16.6825 12.25 17.9252V20.9252C12.25 22.1678 11.2426 23.1752 10 23.1752C9.17157 23.1752 8.5 22.5036 8.5 21.6752V17.1752Z" stroke="#039855" stroke-width="1.5" stroke-linecap="round" stroke-linejoin="round"/>
<path d="M18.6091 13.6549L18.4093 14.2999C18.2457 14.8285 18.1638 15.0928 18.2268 15.3015C18.2777 15.4704 18.3894 15.6159 18.5418 15.7117C18.73 15.8301 19.0148 15.8301 19.5843 15.8301H19.8873C21.8149 15.8301 22.7786 15.8301 23.2339 16.4006C23.2859 16.4659 23.3322 16.5352 23.3722 16.6079C23.7224 17.2443 23.3243 18.1015 22.528 19.816C21.7973 21.3893 21.4319 22.176 20.7535 22.639C20.6878 22.6839 20.6204 22.7261 20.5512 22.7658C19.837 23.1752 18.9521 23.1752 17.1823 23.1752H16.7984C14.6543 23.1752 13.5822 23.1752 12.9161 22.5298C12.25 21.8844 12.25 20.8456 12.25 18.7681V18.0379C12.25 16.9461 12.25 16.4003 12.4438 15.9006C12.6375 15.401 13.0085 14.9902 13.7505 14.1685L16.8191 10.7706C16.896 10.6854 16.9345 10.6428 16.9685 10.6132C17.2852 10.3376 17.7739 10.3687 18.0508 10.6819C18.0805 10.7155 18.1129 10.7626 18.1777 10.8568C18.2791 11.0042 18.3298 11.0779 18.374 11.1509C18.7696 11.8045 18.8893 12.5809 18.7081 13.318C18.6879 13.4004 18.6616 13.4852 18.6091 13.6549Z" stroke="#039855" stroke-width="1.5" stroke-linecap="round" stroke-linejoin="round"/>
</svg>
