<svg width="32" height="33" viewBox="0 0 32 33" fill="none" xmlns="http://www.w3.org/2000/svg">
<rect x="32" y="0.800049" width="32" height="32" rx="16" transform="rotate(90 32 0.800049)" fill="#FEF3F2"/>
<path d="M8.5 16.425C8.5 17.2535 9.17157 17.925 10 17.925C11.2426 17.925 12.25 16.9177 12.25 15.675V12.675C12.25 11.4324 11.2426 10.425 10 10.425C9.17157 10.425 8.5 11.0966 8.5 11.925V16.425Z" stroke="#F04438" stroke-width="1.5" stroke-linecap="round" stroke-linejoin="round"/>
<path d="M18.6091 19.9454L18.4093 19.3003C18.2457 18.7717 18.1638 18.5074 18.2268 18.2987C18.2777 18.1298 18.3894 17.9843 18.5418 17.8885C18.73 17.7701 19.0148 17.7701 19.5843 17.7701H19.8873C21.8149 17.7701 22.7786 17.7701 23.2339 17.1996C23.2859 17.1344 23.3322 17.065 23.3722 16.9923C23.7224 16.3559 23.3243 15.4987 22.528 13.7842C21.7973 12.2109 21.4319 11.4242 20.7535 10.9612C20.6878 10.9164 20.6204 10.8741 20.5512 10.8344C19.837 10.425 18.9521 10.425 17.1823 10.425H16.7984C14.6543 10.425 13.5822 10.425 12.9161 11.0704C12.25 11.7158 12.25 12.7546 12.25 14.8321V15.5623C12.25 16.6541 12.25 17.2 12.4438 17.6996C12.6375 18.1992 13.0085 18.6101 13.7505 19.4317L16.8191 22.8296C16.896 22.9148 16.9345 22.9575 16.9685 22.987C17.2852 23.2626 17.7739 23.2316 18.0508 22.9183C18.0805 22.8847 18.1129 22.8376 18.1777 22.7434C18.2791 22.596 18.3298 22.5223 18.374 22.4493C18.7696 21.7957 18.8893 21.0193 18.7081 20.2822C18.6879 20.1999 18.6616 20.115 18.6091 19.9454Z" stroke="#F04438" stroke-width="1.5" stroke-linecap="round" stroke-linejoin="round"/>
</svg>
