<svg width="32" height="32" viewBox="0 0 32 32" fill="none" xmlns="http://www.w3.org/2000/svg">
<path d="M22.8373 22.3641L22.3659 22.8354C22.1056 23.0958 21.6835 23.0959 21.4231 22.8355L16.0019 17.4143L10.5808 22.8355C10.3205 23.0958 9.89834 23.0958 9.63799 22.8354L9.16663 22.3641C8.90627 22.1037 8.90627 21.6816 9.16656 21.4213L14.5877 16.0001L9.16659 10.579C8.90624 10.3186 8.90625 9.89648 9.16661 9.63613L9.63796 9.16477C9.89832 8.90441 10.3204 8.9044 10.5808 9.16475L16.0019 14.5859L21.4231 9.16474C21.6835 8.90439 22.1056 8.90441 22.3659 9.16476L22.8373 9.63612C23.0976 9.89648 23.0977 10.3186 22.8373 10.5789L17.4162 16.0001L22.8373 21.4213C23.0977 21.6816 23.0976 22.1037 22.8373 22.3641Z" fill="#667085"/>
</svg>
