<svg width="48" height="48" viewBox="0 0 48 48" fill="none" xmlns="http://www.w3.org/2000/svg">
<rect width="48" height="48" rx="24" fill="white"/>
<path d="M23.3216 28.2952L25.9316 28.7286C26.9512 28.8979 27.7718 27.9001 27.4088 26.9323L26.4794 24.4553C26.1163 23.4875 24.8416 23.276 24.185 24.0742L22.5048 26.1178C21.8479 26.9163 22.302 28.1259 23.3216 28.2952Z" stroke="#293DFF" stroke-width="0.153732" stroke-miterlimit="10"/>
<path d="M23.0498 28.6589L26.3951 29.0086C27.4342 29.1479 28.2345 28.11 27.8357 27.1404L26.4658 24.0685C26.0667 23.0989 24.7678 22.925 24.1276 23.7552L22.1521 26.4777C21.5118 27.3077 22.0104 28.5196 23.0498 28.6589Z" stroke="#4051FF" stroke-width="0.153732" stroke-miterlimit="10"/>
<path d="M22.7744 29.0231L26.8554 29.2887C27.9143 29.3978 28.6939 28.32 28.2593 27.3484L26.449 23.6813C26.0141 22.7097 24.6908 22.5732 24.0668 23.4358L21.7963 26.837C21.1718 27.6998 21.7155 28.914 22.7744 29.0231Z" stroke="#5764FF" stroke-width="0.153732" stroke-miterlimit="10"/>
<path d="M22.5027 29.3884L27.3191 29.5702C28.3975 29.6494 29.157 28.5314 28.686 27.5581L26.4353 23.2961C25.9647 22.3227 24.6166 22.2238 24.0092 23.1183L21.4435 27.1985C20.8361 28.0928 21.4246 29.3093 22.5027 29.3884Z" stroke="#6E78FF" stroke-width="0.153732" stroke-miterlimit="10"/>
<path d="M22.2315 29.7516L27.7836 29.8497C28.8814 29.8986 29.6206 28.7408 29.1139 27.7654L26.4228 22.9082C25.9163 21.9331 24.5438 21.8717 23.9527 22.7982L21.092 27.5574C20.5003 28.4839 21.1336 29.7028 22.2315 29.7516Z" stroke="#848CFF" stroke-width="0.153732" stroke-miterlimit="10"/>
<path d="M21.958 30.1161L28.2455 30.1301C29.3628 30.149 30.0817 28.9511 29.5391 27.9739L26.4076 22.5216C25.8651 21.5444 24.4684 21.5209 23.8933 22.4794L20.7374 27.9175C20.1625 28.876 20.8406 30.0972 21.958 30.1161Z" stroke="#9B9FFF" stroke-width="0.153732" stroke-miterlimit="10"/>
<path d="M21.6838 30.4449L28.707 30.3751C29.8439 30.3638 30.5423 29.126 29.964 28.1471L26.392 22.0999C25.8137 21.121 24.3927 21.1349 23.8338 22.1252L20.3826 28.2422C19.8241 29.2325 20.5467 30.4563 21.6838 30.4449Z" stroke="#B2B3FF" stroke-width="0.153732" stroke-miterlimit="10"/>
<path d="M21.7253 30.5777L28.8436 30.2833C29.9959 30.2356 30.6647 28.9585 30.0471 27.9843L26.2331 21.9667C25.6155 20.9925 24.1752 21.0521 23.6403 22.074L20.3359 28.386C19.8013 29.4077 20.573 30.6254 21.7253 30.5777Z" stroke="#94A0FD" stroke-width="0.153732" stroke-miterlimit="10"/>
<path d="M21.7625 30.7098L28.9763 30.1909C30.1439 30.1068 30.783 28.7902 30.1262 27.8209L26.0699 21.833C25.4133 20.8637 23.9536 20.9687 23.4424 22.0221L20.285 28.5287C19.7739 29.582 20.5945 30.7939 21.7625 30.7098Z" stroke="#778CFC" stroke-width="0.153732" stroke-miterlimit="10"/>
<path d="M21.7964 30.8432L29.1053 30.0997C30.2884 29.9792 30.8978 28.6234 30.202 27.6587L25.9036 21.7008C25.2078 20.7362 23.7289 20.8868 23.2413 21.9716L20.2308 28.6731C19.7435 29.7579 20.6133 30.9637 21.7964 30.8432Z" stroke="#5979FA" stroke-width="0.153732" stroke-miterlimit="10"/>
<path d="M21.8395 30.9753L29.2438 30.0072C30.4424 29.8504 31.0218 28.4549 30.287 27.4952L25.7466 21.567C25.0115 20.6073 23.5134 20.8031 23.0497 21.9195L20.1861 28.8159C19.7224 29.9324 20.641 31.1318 21.8395 30.9753Z" stroke="#3B66F8" stroke-width="0.153732" stroke-miterlimit="10"/>
<path d="M21.8761 31.1075L29.3755 29.9148C30.5894 29.7217 31.1392 28.2869 30.3651 27.3319L25.5827 21.4333C24.8086 20.4786 23.291 20.7197 22.8512 21.8676L20.1341 28.9586C19.6943 30.1068 20.6618 31.3004 21.8761 31.1075Z" stroke="#1E52F7" stroke-width="0.153732" stroke-miterlimit="10"/>
<path d="M21.9161 31.2408L29.5109 29.8235C30.7403 29.594 31.2604 28.1197 30.447 27.1696L25.4223 21.301C24.6089 20.3509 23.0721 20.6378 22.6561 21.8171L20.086 29.103C19.67 30.2826 20.6867 31.47 21.9161 31.2408Z" stroke="#003FF5" stroke-width="0.153732" stroke-miterlimit="10"/>
<path d="M21.9967 31.3484L29.6517 29.6699C30.891 29.3982 31.3712 27.8867 30.5163 26.9494L25.235 21.1593C24.38 20.222 22.831 20.5615 22.4467 21.7707L20.073 29.2396C19.689 30.4483 20.7574 31.6201 21.9967 31.3484Z" stroke="#0843F7" stroke-width="0.153732" stroke-miterlimit="10"/>
<path d="M22.0812 31.4579L29.7964 29.5179C31.0456 29.2037 31.486 27.6555 30.5897 26.7307L25.0518 21.0192C24.1553 20.0944 22.594 20.4871 22.2414 21.7258L20.0638 29.3776C19.7115 30.616 20.832 31.7718 22.0812 31.4579Z" stroke="#0F47F8" stroke-width="0.153732" stroke-miterlimit="10"/>
<path d="M22.1682 31.5652L29.9439 29.3636C31.2027 29.0073 31.6035 27.4219 30.6657 26.5099L24.8709 20.8766C23.9328 19.9646 22.3596 20.4103 22.0387 21.6786L20.0574 29.5131C19.7368 30.7815 20.9094 31.9215 22.1682 31.5652Z" stroke="#174CFA" stroke-width="0.153732" stroke-miterlimit="10"/>
<path d="M22.2508 31.6727L30.0868 29.2096C31.3554 28.8108 31.7164 27.1885 30.7369 26.2893L24.6859 20.7345C23.7064 19.8354 22.1207 20.3337 21.8316 21.6317L20.0466 29.6492C19.7577 30.9472 20.9821 32.0712 22.2508 31.6727Z" stroke="#1E50FC" stroke-width="0.153732" stroke-miterlimit="10"/>
<path d="M22.3345 31.7815L30.2307 29.0572C31.5089 28.6162 31.8304 26.9567 30.8093 26.0703L24.502 20.5938C23.4809 19.7074 21.883 20.2587 21.6259 21.586L20.0373 29.7865C19.7798 31.1145 21.0563 32.2225 22.3345 31.7815Z" stroke="#2554FD" stroke-width="0.153732" stroke-miterlimit="10"/>
<path d="M22.42 31.8886L30.3767 28.9028C31.6648 28.4194 31.9464 26.7231 30.884 25.8492L24.3198 20.4516C23.2572 19.5777 21.647 20.1819 21.4216 21.5393L20.0291 29.9227C19.8036 31.2798 21.1321 32.3721 22.42 31.8886Z" stroke="#2D58FF" stroke-width="0.153732" stroke-miterlimit="10"/>
<path d="M22.559 31.9972L30.5311 28.7167C31.8216 28.1855 32.0534 26.4567 30.9483 25.6047L24.1211 20.3411C23.016 19.489 21.4026 20.1529 21.2173 21.5361L20.0724 30.0805C19.8868 31.4631 21.2683 32.5281 22.559 31.9972Z" stroke="#4167FF" stroke-width="0.153732" stroke-miterlimit="10"/>
<path d="M22.6981 32.1053L30.6854 28.5299C31.9785 27.951 32.16 26.1896 31.0124 25.359L23.9225 20.2296C22.7746 19.3991 21.1584 20.1225 21.0132 21.5319L20.1158 30.2369C19.9704 31.646 21.4051 32.6839 22.6981 32.1053Z" stroke="#5576FF" stroke-width="0.153732" stroke-miterlimit="10"/>
<path d="M22.8361 32.2136L30.8388 28.3435C32.1345 27.7169 32.266 25.9229 31.0756 25.1142L23.7225 20.1186C22.5321 19.3099 20.9127 20.093 20.8077 21.5283L20.1578 30.3941C20.0528 31.8291 21.5404 32.8399 22.8361 32.2136Z" stroke="#6A85FF" stroke-width="0.153732" stroke-miterlimit="10"/>
<path d="M22.9787 32.3213L30.9968 28.1564C32.2948 27.4821 32.3762 25.6556 31.1434 24.8687L23.5273 20.0071C22.2945 19.2203 20.6719 20.063 20.6067 21.5242L20.2044 30.5506C20.1395 32.0118 21.6807 32.9956 22.9787 32.3213Z" stroke="#7E95FF" stroke-width="0.153732" stroke-miterlimit="10"/>
<path d="M23.1172 32.4306L31.1507 27.971C32.4513 27.249 32.4824 25.3902 31.2071 24.6248L23.3281 19.8974C22.0525 19.132 20.4269 20.0344 20.4019 21.5218L20.2471 30.709C20.2224 32.1958 21.8168 33.1526 23.1172 32.4306Z" stroke="#92A4FF" stroke-width="0.153732" stroke-miterlimit="10"/>
<path d="M23.3055 32.5375L31.3544 27.783C32.6574 27.0133 32.6388 25.1218 31.3207 24.3783L23.1787 19.7849C21.8606 19.0414 20.2318 20.0034 20.247 21.5167L20.3398 30.8645C20.3549 32.3775 22.0023 33.3072 23.3055 32.5375Z" stroke="#A6B3FF" stroke-width="0.153732" stroke-miterlimit="10"/>
<path d="M23.5124 32.6501L31.5404 27.5576C32.8329 26.7393 32.755 24.8286 31.3999 24.1185L22.9757 19.7126C21.6207 19.0025 20.0053 20.0253 20.0676 21.5537L20.4638 31.0522C20.5264 32.5809 22.22 33.4684 23.5124 32.6501Z" stroke="#9DAFFF" stroke-width="0.153732" stroke-miterlimit="10"/>
<path d="M23.7258 32.7629L31.7326 27.3323C33.0146 26.4654 32.8773 24.5359 31.4856 23.859L22.7792 19.64C21.3876 18.9634 19.785 20.047 19.8949 21.5905L20.5946 31.24C20.7042 32.7838 22.4438 33.6297 23.7258 32.7629Z" stroke="#94AAFF" stroke-width="0.153732" stroke-miterlimit="10"/>
<path d="M23.9332 32.8751L31.9191 27.1063C33.1906 26.1908 32.9939 24.2421 31.5653 23.5989L22.5765 19.5673C21.1479 18.9241 19.5587 20.0685 19.7158 21.6275L20.7188 31.4276C20.8759 32.9865 22.6617 33.7906 23.9332 32.8751Z" stroke="#8BA6FF" stroke-width="0.153732" stroke-miterlimit="10"/>
<path d="M24.1428 32.9871L32.1074 26.8803C33.3682 25.9159 33.1125 23.9486 31.6472 23.3385L22.3762 19.4943C20.9106 18.8846 19.3345 20.0898 19.5393 21.6638L20.8458 31.615C21.0503 33.189 22.8821 33.9515 24.1428 32.9871Z" stroke="#81A2FF" stroke-width="0.153732" stroke-miterlimit="10"/>
<path d="M24.3519 33.1008L32.2955 26.6556C33.5458 25.6427 33.2308 23.6561 31.7286 23.0798L22.1751 19.4229C20.6729 18.8466 19.1099 20.1126 19.3618 21.7018L20.9716 31.8037C21.2238 33.3931 23.1016 34.1134 24.3519 33.1008Z" stroke="#789DFF" stroke-width="0.153732" stroke-miterlimit="10"/>
<path d="M24.5628 33.2121L32.4852 26.4288C33.725 25.3673 33.3506 23.3619 31.8115 22.8187L21.9758 19.3492C20.4367 18.8064 18.887 20.1332 19.1864 21.7375L21.0993 31.9903C21.399 33.5949 23.323 34.2736 24.5628 33.2121Z" stroke="#6F99FF" stroke-width="0.153732" stroke-miterlimit="10"/>
<path d="M24.8213 33.3581L32.7154 26.1342C33.9212 25.0395 33.4901 23.0497 31.939 22.5529L21.7357 19.3282C20.1846 18.8311 18.6774 20.1995 19.0225 21.7913L21.3316 32.2399C21.6766 33.8314 23.6152 34.4528 24.8213 33.3581Z" stroke="#639CFA" stroke-width="0.153732" stroke-miterlimit="10"/>
<path d="M25.0814 33.5035L32.9474 25.8385C34.1194 24.7107 33.631 22.7369 32.0683 22.2857L21.4972 19.306C19.9345 18.8548 18.4692 20.2648 18.8602 21.8438L21.5653 32.4885C21.9557 34.0675 23.9091 34.6313 25.0814 33.5035Z" stroke="#589FF5" stroke-width="0.153732" stroke-miterlimit="10"/>
<path d="M25.338 33.6493L33.1757 25.5434C34.314 24.3824 33.7683 22.4246 32.1939 22.0194L21.2552 19.2846C19.6806 18.8794 18.2578 20.3307 18.6941 21.8969L21.7951 32.7376C22.2318 34.3038 24.2 34.8103 25.338 33.6493Z" stroke="#4CA2F1" stroke-width="0.153732" stroke-miterlimit="10"/>
<path d="M25.5949 33.7953L33.4044 25.2483C34.5087 24.0541 33.9062 22.1121 32.3196 21.7528L21.0132 19.263C19.4269 18.9037 18.0463 20.3967 18.5283 21.9501L22.0252 32.9868C22.5075 34.5403 24.4906 34.9894 25.5949 33.7953Z" stroke="#40A5EC" stroke-width="0.153732" stroke-miterlimit="10"/>
<path d="M25.856 33.9408L33.6373 24.9531C34.7078 23.7258 34.0481 21.7997 32.4499 21.4864L20.7754 19.2412C19.1772 18.9279 17.8391 20.4622 18.3668 22.0031L22.2596 33.2359C22.7879 34.7765 24.7855 35.1681 25.856 33.9408Z" stroke="#35A8E7" stroke-width="0.153732" stroke-miterlimit="10"/>
<path d="M26.1128 34.0874L33.8659 24.6587C34.9023 23.3979 34.1856 21.4878 32.5757 21.2205L20.5336 19.2203C18.9234 18.9529 17.6278 20.5287 18.2011 22.0569L22.4899 33.4858C23.0635 35.0139 25.0763 35.3481 26.1128 34.0874Z" stroke="#29ABE2" stroke-width="0.153732" stroke-miterlimit="10"/>
<path d="M26.4172 34.2394L34.038 24.3263C35.0355 23.0388 34.2652 21.1543 32.6515 20.9341L20.2563 19.2908C18.6426 19.0706 17.3955 20.6799 18.012 22.1876L22.7865 33.7439C23.4026 35.2514 25.4197 35.5266 26.4172 34.2394Z" stroke="#22A1DC" stroke-width="0.153732" stroke-miterlimit="10"/>
<path d="M26.7237 34.3919L34.2121 23.9945C35.1706 22.6802 34.3468 20.8213 32.7294 20.6485L19.9809 19.3622C18.3635 19.1894 17.1656 20.8321 17.8245 22.3192L23.0846 34.0029C23.7434 35.49 25.7652 35.7061 26.7237 34.3919Z" stroke="#1B98D5" stroke-width="0.153732" stroke-miterlimit="10"/>
<path d="M27.0297 34.5439L34.3857 23.6621C35.305 22.3211 34.4279 20.4878 32.8067 20.3622L19.7048 19.4324C18.0839 19.3068 16.9346 20.9832 17.6365 22.45L23.3824 34.2614C24.0841 35.7278 26.1105 35.8849 27.0297 34.5439Z" stroke="#158ECF" stroke-width="0.153732" stroke-miterlimit="10"/>
<path d="M27.335 34.6974L34.5587 23.3313C35.4389 21.9635 34.5083 20.1559 32.8834 20.0773L19.4283 19.5045C17.8036 19.4263 16.7035 21.1359 17.4479 22.5823L23.6793 34.5211C24.424 35.9675 26.4547 36.0652 27.335 34.6974Z" stroke="#0E84C9" stroke-width="0.153732" stroke-miterlimit="10"/>
<path d="M27.644 34.8499L34.7353 22.9995C35.5763 21.6049 34.5921 19.8226 32.964 19.7917L19.1558 19.5756C17.5273 19.5445 16.476 21.2878 17.2635 22.7136L23.9804 34.7798C24.7676 36.2058 26.803 36.2445 27.644 34.8499Z" stroke="#077BC2" stroke-width="0.153732" stroke-miterlimit="10"/>
<path d="M27.9508 35.0745L34.9097 22.74C35.7117 21.3184 34.6741 19.5619 33.0421 19.5782L18.8805 19.719C17.2485 19.7353 16.2461 21.5121 17.076 22.9175L24.2787 35.1112C25.1087 36.5162 27.1488 36.4959 27.9508 35.0745Z" stroke="#0071BC" stroke-width="0.153732" stroke-miterlimit="10"/>
<path d="M28.3012 35.2509L35.0047 22.4082C35.7634 20.9671 34.6777 19.2449 33.0502 19.3083L18.5761 19.9245C16.9488 19.9879 16.0002 21.7891 16.8688 23.1669L24.6393 35.3937C25.5083 36.7711 27.5425 36.692 28.3012 35.2509Z" stroke="#0071BC" stroke-width="0.153732" stroke-miterlimit="10"/>
<path d="M28.6559 35.4281L35.104 22.0772C35.8196 20.6166 34.6857 18.9288 33.0627 19.0393L18.2762 20.1305C16.6533 20.241 15.7588 22.067 16.6661 23.4171L25.0045 35.6768C25.9118 37.0269 27.9402 36.8887 28.6559 35.4281Z" stroke="#0071BC" stroke-width="0.153732" stroke-miterlimit="10"/>
<path d="M29.0016 35.605L35.1943 21.7459C35.8668 20.2655 34.6846 18.6123 33.0663 18.7703L17.9674 20.3368C16.3491 20.4944 15.5087 22.3449 16.4544 23.6676L25.3603 35.9602C26.3064 37.2826 28.329 37.0854 29.0016 35.605Z" stroke="#0071BC" stroke-width="0.153732" stroke-miterlimit="10"/>
<path d="M29.3547 35.784L35.292 21.4167C35.9212 19.9168 34.691 18.2979 33.0774 18.503L17.666 20.5448C16.0524 20.7499 15.2658 22.6248 16.2502 23.9196L25.724 36.2453C26.7084 37.5401 28.7255 37.2839 29.3547 35.784Z" stroke="#0071BC" stroke-width="0.153732" stroke-miterlimit="10"/>
<path d="M29.7041 35.9608L35.3863 21.0853C35.9724 19.5656 34.6936 17.9817 33.0847 18.2336L17.3609 20.7505C15.7519 21.0027 15.0191 22.902 16.0422 24.1694L26.0838 36.5281C27.1067 37.7955 29.1179 37.4802 29.7041 35.9608Z" stroke="#0071BC" stroke-width="0.153732" stroke-miterlimit="10"/>
<path d="M30.0527 36.1383L35.4794 20.7546C36.0222 19.2154 34.6954 17.6658 33.0911 17.9651L17.0549 20.957C15.4506 21.2564 14.7719 23.1804 15.8334 24.4202L26.4429 36.8117C27.5041 38.0516 29.5095 37.6775 30.0527 36.1383Z" stroke="#0071BC" stroke-width="0.153732" stroke-miterlimit="10"/>
<path d="M30.4438 36.3207L35.4761 20.43C35.9733 18.8789 34.6049 17.3718 33.0131 17.7168L16.7352 21.3042C15.1433 21.6492 14.5223 23.588 15.6169 24.7938L26.8626 37.0975C27.9572 38.3032 29.947 37.8718 30.4438 36.3207Z" stroke="#0866B5" stroke-width="0.153732" stroke-miterlimit="10"/>
<path d="M30.8346 36.5031L35.4724 20.1053C35.9236 18.5426 34.5136 17.0773 32.9346 17.4683L16.4146 21.6506C14.8356 22.0412 14.2719 23.9946 15.3997 25.167L27.2818 37.3825C28.4099 38.5542 30.3837 38.0658 30.8346 36.5031Z" stroke="#0F5CAE" stroke-width="0.153732" stroke-miterlimit="10"/>
<path d="M31.2268 36.6854L35.4704 19.7806C35.8757 18.2059 34.4243 16.7831 32.8581 17.2195L16.0961 21.9969C14.5299 22.4333 14.0235 24.4015 15.1845 25.5398L27.7028 37.6675C28.8638 38.8055 30.8215 38.26 31.2268 36.6854Z" stroke="#1751A7" stroke-width="0.153732" stroke-miterlimit="10"/>
<path d="M31.6177 36.8676L35.4669 19.4554C35.8262 17.8691 34.3333 16.4885 32.7799 16.9705L15.7758 22.3429C14.2224 22.8249 13.7733 24.808 14.9674 25.9123L28.122 37.9518C29.3167 39.0566 31.2585 38.4541 31.6177 36.8676Z" stroke="#1F46A0" stroke-width="0.153732" stroke-miterlimit="10"/>
<path d="M32.0033 37.0503L35.4581 19.1311C35.7714 17.5329 34.2372 16.1947 32.6963 16.7224L15.4505 22.69C13.9096 23.2177 13.518 25.2156 14.7454 26.2861L28.5364 38.2377C29.7643 39.3083 31.69 38.6485 32.0033 37.0503Z" stroke="#263C99" stroke-width="0.153732" stroke-miterlimit="10"/>
<path d="M32.396 37.2328L35.4566 18.8065C35.7239 17.1964 34.1481 15.9007 32.62 16.4741L15.1322 23.0368C13.6041 23.6102 13.2699 25.6229 14.5306 26.6594L28.9578 38.5229C30.2183 39.5597 32.1287 38.8429 32.396 37.2328Z" stroke="#2E3192" stroke-width="0.153732" stroke-miterlimit="10"/>
<path d="M32.8145 37.3418L35.3296 18.4399C35.5498 16.8263 33.9406 15.5792 32.4328 16.1956L14.806 23.4682C13.2986 24.0843 13.0234 26.1014 14.3106 27.0989L29.4223 38.7279C30.7098 39.7257 32.5943 38.9554 32.8145 37.3418Z" stroke="#2B2C8A" stroke-width="0.153732" stroke-miterlimit="10"/>
<path d="M33.2271 37.4489L35.1967 18.0721C35.3695 16.4548 33.7269 15.2569 32.2398 15.9158L14.4743 23.8984C12.9873 24.5572 12.7712 26.5789 14.0854 27.5374L29.8813 38.9315C31.1952 39.8897 33.054 39.0662 33.2271 37.4489Z" stroke="#282783" stroke-width="0.153732" stroke-miterlimit="10"/>
<path d="M33.6444 37.5575L35.0689 17.7052C35.1946 16.0843 33.5182 14.935 32.0515 15.6369L14.1467 24.3296C12.68 25.0312 12.5232 27.0575 13.8642 27.9768L30.3446 39.1364C31.6856 40.0556 33.5187 39.1786 33.6444 37.5575Z" stroke="#25237B" stroke-width="0.153732" stroke-miterlimit="10"/>
<path d="M34.0633 37.666L34.9424 17.338C35.0206 15.7134 33.3111 14.6133 31.8648 15.3576L13.8209 24.7604C12.3749 25.5047 12.2769 27.5357 13.6446 28.4157L30.8094 39.3409C32.1772 40.2214 33.9848 39.2906 34.0633 37.666Z" stroke="#211E73" stroke-width="0.153732" stroke-miterlimit="10"/>
<path d="M34.4799 37.7742L34.8136 16.9707C34.8447 15.3423 33.1014 14.291 31.6757 15.0784L13.4925 25.1912C12.0669 25.9784 12.0279 28.0137 13.4227 28.855L31.272 39.5457C32.6668 40.3867 34.4488 39.4026 34.4799 37.7742Z" stroke="#1E196C" stroke-width="0.153732" stroke-miterlimit="10"/>
<path d="M34.7938 37.8832L34.5823 16.6041C34.566 14.9722 32.7893 13.9698 31.384 14.7997L13.0617 25.6225C11.6564 26.4524 11.6768 28.4924 13.0981 29.2944L31.6321 39.7507C33.0537 40.5527 34.8101 39.5151 34.7938 37.8832Z" stroke="#1B1464" stroke-width="0.153732" stroke-miterlimit="10"/>
<path d="M35.1803 37.8943L34.266 16.2061C34.2026 14.5789 32.4014 13.6303 31.0237 14.4989L12.6986 26.1348C11.3209 27.0034 11.4003 29.0376 12.8411 29.7965L32.0805 39.8488C33.5216 40.6074 35.2437 39.5215 35.1803 37.8943Z" stroke="#273276" stroke-width="0.153732" stroke-miterlimit="10"/>
<path d="M35.5698 37.9042L33.9527 15.8071C33.8422 14.1842 32.0163 13.2897 30.6663 14.197L12.3382 26.6459C10.9882 27.5532 11.1263 29.5816 12.5872 30.2972L32.5323 39.9454C33.9929 40.661 35.6806 39.5268 35.5698 37.9042Z" stroke="#345088" stroke-width="0.153732" stroke-miterlimit="10"/>
<path d="M35.9622 37.9155L33.6423 15.4096C33.4847 13.7914 31.6343 12.951 30.3117 13.8967L11.981 27.1587C10.6586 28.1043 10.8558 30.1272 12.3361 30.7994L32.987 40.0433C34.467 40.7159 36.1201 39.5337 35.9622 37.9155Z" stroke="#406E9A" stroke-width="0.153732" stroke-miterlimit="10"/>
<path d="M36.3558 37.925L33.3329 15.0102C33.1278 13.3966 31.2531 12.6101 29.9583 13.5944L11.6247 27.6697C10.33 28.6541 10.5859 30.6708 12.0861 31.3003L33.4423 40.1398C34.9424 40.7687 36.5609 39.5386 36.3558 37.925Z" stroke="#4C8CAC" stroke-width="0.153732" stroke-miterlimit="10"/>
<path d="M36.7419 37.9373L33.0162 14.6135C32.764 13.0046 30.8647 12.2718 29.5973 13.2949L11.2611 28.1832C9.99372 29.206 10.309 31.2172 11.8286 31.8033L33.8906 40.2388C35.4099 40.8247 36.9941 39.5462 36.7419 37.9373Z" stroke="#59AABE" stroke-width="0.153732" stroke-miterlimit="10"/>
<path d="M37.1355 37.9463L32.707 14.2135C32.4077 12.6093 30.4837 11.9306 29.244 12.9921L10.9048 28.6937C9.66508 29.7552 10.0395 31.7606 11.5785 32.3037L34.3462 40.3348C35.8853 40.8773 37.4348 39.5506 37.1355 37.9463Z" stroke="#65C8D0" stroke-width="0.153732" stroke-miterlimit="10"/>
<path d="M37.4997 37.8329L32.2113 13.797C31.8663 12.2053 29.9276 11.5842 28.7218 12.6788L10.5503 29.2767C9.34452 30.3713 9.77562 32.361 11.3266 32.8578L34.7866 40.2959C36.3373 40.793 37.8447 39.4247 37.4997 37.8329Z" stroke="#54D1D8" stroke-width="0.153732" stroke-miterlimit="10"/>
<path d="M37.8571 37.7202L31.7086 13.3812C31.3179 11.8023 29.3646 11.2385 28.1923 12.3663L10.1883 29.8607C9.01631 30.9885 9.50471 32.9622 11.0674 33.4133L35.2199 40.258C36.7829 40.7088 38.2478 39.2992 37.8571 37.7202Z" stroke="#43DAE0" stroke-width="0.153732" stroke-miterlimit="10"/>
<path d="M38.2189 37.6064L31.2105 12.9643C30.7742 11.3982 28.806 10.8917 27.6678 12.0527L9.8313 30.4433C8.69305 31.6042 9.23876 33.5619 10.8131 33.9671L35.6579 40.2186C37.2325 40.6238 38.6552 39.1726 38.2189 37.6064Z" stroke="#33E3E8" stroke-width="0.153732" stroke-miterlimit="10"/>
<path d="M38.5807 37.4934L30.7121 12.5482C30.2301 10.9949 28.2471 10.5457 27.1429 11.7398L9.47401 31.0267C8.3698 32.2208 8.97223 34.1628 10.5587 34.522L36.0962 40.1801C37.6824 40.5396 39.063 39.0468 38.5807 37.4934Z" stroke="#22EDEF" stroke-width="0.153732" stroke-miterlimit="10"/>
<path d="M38.9419 37.3804L30.2135 12.1321C29.6858 10.5912 27.688 10.1997 26.6175 11.4269L9.11612 31.6103C8.04565 32.8376 8.70539 34.7636 10.3035 35.0768L36.5333 40.1418C38.1315 40.4554 39.4696 38.9212 38.9419 37.3804Z" stroke="#11F6F7" stroke-width="0.153732" stroke-miterlimit="10"/>
<path d="M39.2991 37.2668L29.7105 11.7156C29.1372 10.1876 27.1245 9.85334 26.0881 11.1141L8.75424 32.1936C7.7178 33.4544 8.43456 35.3643 10.0443 35.6317L36.9667 40.1032C38.5768 40.3705 39.8724 38.7948 39.2991 37.2668Z" stroke="#00FFFF" stroke-width="0.153732" stroke-miterlimit="10"/>
<path d="M39.7008 37.0012L29.1034 11.295C28.4873 9.78757 26.4703 9.51239 25.4728 10.7996L8.50934 32.8304C7.51188 34.1179 8.28215 36.0022 9.89572 36.2224L37.4566 39.8978C39.0702 40.118 40.3169 38.5085 39.7008 37.0012Z" stroke="#00D4FF" stroke-width="0.153732" stroke-miterlimit="10"/>
<path d="M40.1017 36.7363L28.4955 10.8753C27.8366 9.38828 25.8149 9.17215 24.8565 10.4864L8.26324 33.4681C7.30476 34.7824 8.12856 36.6411 9.74591 36.8139L37.9453 39.6931C39.5627 39.8662 40.7608 38.2233 40.1017 36.7363Z" stroke="#00AAFF" stroke-width="0.153732" stroke-miterlimit="10"/>
<path d="M40.5014 36.4711L27.8864 10.4554C27.1848 8.98875 25.1585 8.83196 24.2393 10.173L8.01635 34.1056C7.09714 35.4466 7.97417 37.2798 9.5953 37.4055L38.4332 39.4885C40.054 39.6142 41.2031 37.9378 40.5014 36.4711Z" stroke="#0080FF" stroke-width="0.153732" stroke-miterlimit="10"/>
<path d="M40.9033 36.2049L27.2795 10.0345C26.5351 8.58847 24.5041 8.49044 23.6242 9.8582L7.77157 34.7421C6.89134 36.1098 7.82189 37.9174 9.4468 37.9959L38.9229 39.2828C40.5478 39.3611 41.648 37.6512 40.9033 36.2049Z" stroke="#0055FF" stroke-width="0.153732" stroke-miterlimit="10"/>
<path d="M41.3023 35.94L26.6697 9.61446C25.8826 8.18881 23.8472 8.14983 23.006 9.54464L7.52369 35.3794C6.68273 36.7739 7.6668 38.5562 9.29491 38.587L39.4095 39.0775C41.0382 39.1089 42.0895 37.3656 41.3023 35.94Z" stroke="#002BFF" stroke-width="0.153732" stroke-miterlimit="10"/>
<path d="M41.7021 35.5221L26.0607 9.04189C25.2308 7.6366 23.1908 7.65697 22.3888 9.07825L7.2768 35.8642C6.47482 37.2855 7.51242 39.0422 9.14431 39.0259L39.8974 38.7202C41.5299 38.7042 42.5323 36.9274 41.7021 35.5221Z" stroke="#0000FF" stroke-width="0.153732" stroke-miterlimit="10"/>
</svg>
