<svg width="48" height="48" viewBox="0 0 48 48" fill="none" xmlns="http://www.w3.org/2000/svg">
<rect width="48" height="48" rx="24" fill="white"/>
<path opacity="0.05" d="M24.7478 6.1752C25.3568 6.1253 25.9687 6.20015 26.5806 6.39085C27.1919 6.65461 27.8014 6.99442 28.4038 7.38057C29.0014 7.76315 29.5866 8.13801 30.1503 8.48317C30.7005 8.75882 31.2197 8.98159 31.6991 9.1509C32.3549 9.27506 33.3399 9.3713 33.6554 9.4521C33.8853 9.61903 34.1972 10.3753 34.3896 10.9759C34.6035 11.45 34.8863 11.9811 35.2576 12.5567C35.7412 13.1621 36.3233 13.7936 36.9958 14.4411C37.7426 15.0946 38.5268 15.751 39.3032 16.4033C40.0339 17.0485 40.6613 17.6847 41.1353 18.3103C41.4413 18.9246 41.5393 19.5299 41.4235 20.1282C41.1502 20.7163 40.7284 21.302 40.2169 21.8878C39.7262 22.4682 39.2943 23.0534 38.9913 23.6451C38.8998 24.2344 39.0151 24.8338 39.3329 25.4421C39.8403 26.0504 40.4337 26.6534 41.0272 27.2493C41.5755 27.8434 41.9676 28.4261 42.1524 28.9917C42.1322 29.5507 41.8738 30.0854 41.4044 30.5886C40.786 31.0763 40.0547 31.5236 39.2765 31.9228C38.519 32.2977 37.824 32.6173 37.2299 32.8781C36.3798 33.4015 36.274 33.9064 36.293 34.1571C36.2527 34.4269 36.1249 34.7762 35.9057 35.2199C35.6212 35.7754 35.2457 36.4271 34.7912 37.1631C34.2821 37.9651 33.7136 38.7968 33.1023 39.6155C32.4625 40.3842 31.7995 41.0496 31.1264 41.5634C30.445 41.911 29.7654 42.0506 29.0947 41.9722C28.4257 41.7226 27.7693 41.3032 27.1277 40.762C26.4903 40.2024 25.8671 39.6571 25.2587 39.1978C24.6528 38.9198 24.0593 38.8319 23.4801 38.9561C22.9003 39.3101 22.3466 39.8157 21.8173 40.4074C21.2874 41.0478 20.7806 41.6222 20.2971 42.0636C19.8111 42.3541 19.3459 42.4242 18.901 42.265C18.4501 41.9098 18.0146 41.3615 17.5928 40.6658C17.1586 39.8834 16.7314 39.0559 16.3073 38.2354C15.8629 37.4721 15.4156 36.7924 14.9611 36.218C14.4823 35.7712 13.9939 35.4392 13.4961 35.2069C12.9787 35.0827 12.4583 35.0197 11.9408 34.9888C11.4204 35.0013 10.9184 34.9989 10.4444 34.9603C9.99227 34.908 9.58474 34.791 9.23067 34.6039C8.91462 34.3764 8.65798 34.074 8.46016 33.7039C8.29263 33.2934 8.17084 32.8252 8.08589 32.3102C7.99916 31.7684 7.9249 31.1933 7.85242 30.5963C7.7443 29.9856 7.62133 29.363 7.4835 28.7368C7.30528 28.1059 7.12112 27.4774 6.9429 26.856C6.75814 26.2334 6.60843 25.6203 6.51041 25.018C6.44922 24.4162 6.46051 23.8381 6.54487 23.2845C6.67081 22.7278 6.85735 22.192 7.09023 21.6733C7.33201 21.1488 7.59162 20.6367 7.85658 20.1335C8.09064 19.6178 8.31223 19.104 8.51778 18.5871C8.68175 18.0519 8.83561 17.5065 8.9865 16.9493C9.11779 16.3689 9.26691 15.7736 9.44394 15.1635C9.63345 14.5362 9.8693 13.9011 10.1545 13.2643C10.4729 12.6298 10.846 12.0108 11.2683 11.4208C11.7234 10.863 12.2206 10.3563 12.7505 9.91428C13.2983 9.53051 13.8668 9.22457 14.4484 9.00298C15.0312 8.83901 15.6175 8.74812 16.2039 8.72198C16.7813 8.71367 17.3558 8.73386 17.9267 8.76179C18.4863 8.74693 19.0442 8.7 19.6032 8.60554C20.1521 8.42911 20.7058 8.19564 21.2666 7.91226C21.822 7.57008 22.3888 7.21542 22.968 6.8768C23.5448 6.55956 24.1377 6.31659 24.7473 6.1752" stroke="url(#paint0_angular_1069_5833)" stroke-width="0.314905" stroke-linecap="round"/>
<path opacity="0.09" d="M26.0788 6.92598C26.6696 6.91649 27.2462 7.0257 27.8072 7.24399C28.362 7.53509 28.9002 7.90065 29.42 8.31436C29.9332 8.73056 30.4251 9.14467 30.89 9.53484C31.3462 9.86423 31.769 10.143 32.1527 10.3685C32.6819 10.5744 33.4711 10.7671 33.7321 10.8487C33.9504 10.979 34.3517 11.5874 34.6342 12.0987C34.9126 12.5174 35.259 13.001 35.6854 13.5403C36.2041 14.1219 36.7986 14.7445 37.4541 15.3965C38.1523 16.0682 38.855 16.7515 39.5225 17.4365C40.1217 18.1184 40.605 18.7892 40.931 19.4429C41.0981 20.0794 41.0755 20.6948 40.8643 21.2892C40.5251 21.8685 40.0653 22.4328 39.5407 22.9883C39.052 23.5422 38.6267 24.0993 38.3254 24.6635C38.2197 25.2409 38.3006 25.8326 38.5635 26.4366C38.9994 27.0528 39.5144 27.6609 40.0349 28.2521C40.5235 28.8393 40.8796 29.3963 41.0549 29.9161C41.0511 30.4167 40.8296 30.8703 40.4117 31.2738C39.8452 31.6542 39.158 31.9827 38.4065 32.2595C37.6496 32.5199 36.9282 32.7334 36.2808 32.9027C35.5312 33.1362 34.7661 33.5044 34.664 33.7014C34.6767 34.0031 34.5771 34.9829 34.3473 35.7236C34.1143 36.3325 33.7949 37.0097 33.3962 37.7391C32.9446 38.5005 32.4295 39.2585 31.865 39.9738C31.2729 40.6163 30.6534 41.1407 30.0224 41.5077C29.3878 41.7148 28.7568 41.728 28.1378 41.5455C27.526 41.2188 26.9285 40.749 26.348 40.1827C25.7681 39.6153 25.1972 39.0717 24.6339 38.6156C24.0597 38.3297 23.4851 38.2189 22.9105 38.301C22.3218 38.5929 21.7475 39.0252 21.1923 39.541C20.6317 40.1089 20.096 40.6273 19.5902 41.0353C19.0885 41.3167 18.6184 41.4044 18.1789 41.2852C17.7434 40.9846 17.3329 40.4977 16.9408 39.8595C16.5421 39.1215 16.1505 38.3166 15.7591 37.4921C15.3468 36.6936 14.9248 35.9485 14.4906 35.283C14.0288 34.7203 13.5529 34.2579 13.066 33.8912C12.5604 33.6292 12.0528 33.4379 11.5531 33.296C11.055 33.2138 10.5819 33.1416 10.1446 33.0595C9.55454 32.9315 8.70943 32.4174 8.46365 32.0016C8.34607 31.6765 8.27169 31.296 8.23042 30.8685C8.18266 30.4149 8.14417 29.9226 8.10494 29.3988C8.02938 28.858 7.93933 28.2948 7.83428 27.7163C7.69109 27.1297 7.54311 26.535 7.40241 25.9384C7.25646 25.3403 7.14607 24.7447 7.08643 24.1556C7.06293 23.5692 7.11001 23.0037 7.22708 22.4593C7.38698 21.9156 7.60644 21.3885 7.87256 20.8755C8.1509 20.358 8.45025 19.8467 8.7565 19.3389C9.03683 18.8185 9.30675 18.2938 9.56164 17.7627C9.77617 17.2127 9.97838 16.6517 10.1737 16.0783C10.3446 15.4882 10.5264 14.8883 10.7282 14.2825C10.9346 13.6706 11.1788 13.0625 11.465 12.4669C11.7775 11.8875 12.1386 11.3377 12.546 10.8305C12.9827 10.3646 13.4598 9.95881 13.9701 9.62322C14.4989 9.34493 15.0504 9.14328 15.6153 9.02C16.1865 8.94302 16.764 8.92902 17.3427 8.96512C17.9192 9.00703 18.4959 9.06443 19.0708 9.11934C19.6422 9.12455 20.2149 9.09354 20.7899 9.01444C21.3633 8.85602 21.9421 8.64558 22.5264 8.39205C23.1101 8.08786 23.6996 7.77634 24.2943 7.48483C24.8862 7.21694 25.4818 7.02258 26.0782 6.92594" stroke="url(#paint1_angular_1069_5833)" stroke-width="0.314905" stroke-linecap="round"/>
<path opacity="0.13" d="M27.1314 7.74607C27.697 7.77355 28.2336 7.91154 28.7401 8.15205C29.235 8.46171 29.7009 8.84407 30.1373 9.27385C30.5666 9.71161 30.968 10.1514 31.339 10.5725C31.7056 10.9407 32.0413 11.2638 32.3419 11.5345C32.7689 11.8105 33.4353 12.1038 33.6879 12.2014C33.9408 12.3177 34.5055 12.8329 34.8962 13.2802C35.2415 13.6544 35.6466 14.0978 36.1154 14.6035C36.6525 15.1568 37.239 15.7591 37.8562 16.3987C38.4856 17.0629 39.0908 17.7447 39.6368 18.43C40.0996 19.1131 40.4385 19.7823 40.6233 20.4283C40.6623 21.0543 40.5312 21.6519 40.2389 22.2194C39.8445 22.7701 39.3569 23.3009 38.8263 23.8178C38.3418 24.3394 37.9247 24.8641 37.6256 25.3988C37.5048 25.9583 37.5524 26.5357 37.7635 27.1285C38.1292 27.7432 38.5703 28.3471 39.0219 28.9278C39.4525 29.5043 39.7734 30.0377 39.9409 30.5187C39.9527 30.9722 39.7712 31.3635 39.409 31.6913C38.9041 31.9892 38.2755 32.2282 37.5699 32.4142C36.8378 32.5881 36.1149 32.7225 35.4406 32.8272C34.8454 32.9449 34.3432 33.0506 33.939 33.1546C33.536 33.3812 33.1613 34.0721 33.0533 34.5962C32.9811 35.0455 32.8624 35.5609 32.6837 36.1392C32.4669 36.7828 32.1776 37.4678 31.8182 38.174C31.4169 38.8833 30.9571 39.5602 30.4512 40.1694C29.9248 40.6905 29.3735 41.0833 28.8115 41.3179C28.2522 41.4029 27.6978 41.3098 27.1554 41.0432C26.6228 40.6574 26.1028 40.1527 25.5946 39.5736C25.084 39.0067 24.5733 38.4709 24.0587 38.0211C23.5223 37.7295 22.9717 37.5967 22.4066 37.6383C21.8145 37.8693 21.2264 38.2292 20.6486 38.6686C20.0608 39.1618 19.4965 39.6199 18.963 39.9882C18.4389 40.2522 17.9525 40.3482 17.5035 40.2604C17.0683 40.0078 16.6654 39.5786 16.288 39C15.9115 38.3129 15.5468 37.5429 15.1844 36.7312C14.806 35.9179 14.4191 35.1309 14.0187 34.3972C13.5935 33.7404 13.1547 33.1669 12.7044 32.6782C12.2381 32.2856 11.7716 31.9667 11.3156 31.7088C10.8636 31.5198 10.4397 31.3612 10.0535 31.2158C9.54109 31.0339 8.8468 30.5567 8.66721 30.2156C8.58583 29.9562 8.54355 29.6496 8.53056 29.2973C8.50679 28.9237 8.4903 28.5074 8.47243 28.0542C8.41757 27.5826 8.35034 27.0798 8.27032 26.5531C8.15475 26.0146 8.0379 25.4598 7.93046 24.8937C7.82024 24.3261 7.74597 23.7545 7.72195 23.1841C7.73389 22.6181 7.81474 22.0698 7.96348 21.5377C8.15474 21.0104 8.40524 20.4969 8.70356 19.9932C9.01657 19.4875 9.3532 18.9844 9.70075 18.4805C10.0277 17.9653 10.3473 17.4425 10.6532 16.9111C10.9217 16.3636 11.1763 15.8045 11.4201 15.2367C11.6362 14.6571 11.8558 14.0739 12.0865 13.4928C12.3132 12.9147 12.5672 12.3514 12.8536 11.813C13.1563 11.2997 13.4992 10.8282 13.8804 10.4089C14.2851 10.0349 14.726 9.7273 15.1969 9.49174C15.6853 9.30967 16.197 9.20051 16.724 9.16132C17.2609 9.15833 17.8079 9.20658 18.3601 9.29397C18.9174 9.3749 19.4799 9.46195 20.0452 9.5374C20.6163 9.55967 21.1928 9.54312 21.7748 9.47994C22.3638 9.34273 22.9587 9.15897 23.5577 8.938C24.1603 8.67434 24.7651 8.40857 25.3667 8.16516C25.964 7.94755 26.5537 7.80026 27.1309 7.74598" stroke="url(#paint2_angular_1069_5833)" stroke-width="0.314905" stroke-linecap="round"/>
<path opacity="0.16" d="M27.9167 8.59237C28.4511 8.65306 28.9451 8.81443 29.3969 9.07005C29.8328 9.39151 30.2304 9.7813 30.5901 10.217C30.9421 10.6657 31.2621 11.1197 31.551 11.5596C31.8418 11.9569 32.1043 12.3134 32.3408 12.6212C32.6927 12.9629 33.3048 13.3721 33.5844 13.5074C33.9016 13.6406 34.6631 14.1292 35.1616 14.5412C35.5669 14.8865 36.0179 15.2987 36.5126 15.7738C37.0503 16.2945 37.6105 16.8663 38.1721 17.4766C38.7195 18.1106 39.2195 18.7618 39.6414 19.4169C39.9715 20.0669 40.1751 20.7006 40.2326 21.3072C40.1597 21.893 39.9377 22.4457 39.5807 22.9651C39.1466 23.4698 38.6423 23.9533 38.1137 24.4231C37.6373 24.9041 37.2312 25.3917 36.9353 25.8926C36.8014 26.4284 36.8179 26.9854 36.9793 27.5609C37.2801 28.1662 37.6504 28.7592 38.0364 29.327C38.4112 29.8905 38.6964 30.4044 38.8549 30.8577C38.8799 31.2787 38.7368 31.6283 38.4304 31.9064C37.9895 32.1514 37.4261 32.333 36.7781 32.4618C36.0849 32.5803 35.3792 32.6663 34.6958 32.7335C34.0628 32.8236 33.4975 32.9179 33.0101 33.0283C32.6104 33.1922 32.2862 33.3917 32.0232 33.6373C31.8251 33.9544 31.6554 34.3287 31.4936 34.7625C31.3471 35.2693 31.1748 35.8308 30.9627 36.4397C30.7316 37.0913 30.4462 37.7609 30.1079 38.4253C29.7446 39.0704 29.3348 39.6599 28.8901 40.1634C28.4372 40.5717 27.9657 40.846 27.4883 40.9671C27.0208 40.9511 26.5586 40.7747 26.1085 40.4459C25.6681 40.0208 25.2365 39.4986 24.809 38.9201C24.3737 38.3636 23.9277 37.8431 23.4661 37.4037C22.9727 37.1094 22.4511 36.9579 21.9012 36.9607C21.3143 37.133 20.7194 37.4221 20.1249 37.7853C19.5169 38.2029 18.9281 38.5965 18.3668 38.9183C17.8193 39.1562 17.3112 39.2501 16.8449 39.1833C16.4015 38.9702 15.9958 38.5933 15.6231 38.0709C15.2617 37.4392 14.9182 36.7128 14.5842 35.9283C14.2435 35.1212 13.8988 34.3156 13.5465 33.54C13.1758 32.8157 12.7943 32.1559 12.4056 31.5669C12.0043 31.0615 11.6051 30.6288 11.2176 30.26C10.8351 29.9646 10.48 29.7139 10.1619 29.4944C9.74349 29.2331 9.20432 28.7248 9.08134 28.4232C9.01818 28.0779 8.99867 27.1671 8.98912 26.5975C8.94578 26.1854 8.89291 25.7384 8.83105 25.2597C8.7372 24.7686 8.64602 24.2538 8.56767 23.7217C8.48808 23.187 8.4467 22.644 8.45607 22.0967C8.49971 21.5568 8.61097 21.0302 8.78858 20.5172C9.00825 20.0121 9.28696 19.5178 9.61438 19.0315C9.95856 18.5464 10.3306 18.0618 10.7165 17.5748C11.0866 17.0794 11.4525 16.5753 11.8081 16.0623C12.128 15.5374 12.4341 15.0034 12.727 14.4629C12.9883 13.9169 13.2461 13.3725 13.5063 12.8372C13.7534 12.3118 14.0167 11.8099 14.3002 11.3416C14.59 10.9031 14.9088 10.5135 15.256 10.1815C15.6187 9.89606 16.0114 9.67719 16.429 9.52929C16.863 9.42928 17.3182 9.39517 17.7905 9.42247C18.276 9.47629 18.7753 9.57016 19.2844 9.69225C19.8076 9.79973 20.3409 9.90515 20.8834 9.99368C21.4411 10.0278 22.0088 10.0239 22.5863 9.97477C23.178 9.85939 23.7772 9.7031 24.38 9.51657C24.9903 9.29461 25.5978 9.07448 26.1963 8.87915C26.7891 8.71054 27.3646 8.6081 27.9161 8.59224" stroke="url(#paint3_angular_1069_5833)" stroke-width="0.314905" stroke-linecap="round"/>
<path opacity="0.2" d="M28.4681 9.42775C28.9687 9.51653 29.4194 9.6966 29.8201 9.96176C30.2016 10.2888 30.538 10.6795 30.8326 11.1143C31.1188 11.5652 31.3714 12.0256 31.5957 12.4765C31.8248 12.8942 32.0333 13.2781 32.2243 13.6199C32.5298 14.0257 33.1378 14.5742 33.4645 14.7703C33.7206 14.8853 33.9913 15.0182 34.2843 15.1811C34.6233 15.3646 34.993 15.5979 35.3965 15.8874C35.8446 16.217 36.3228 16.6073 36.8242 17.0544C37.3439 17.5403 37.8614 18.0725 38.3554 18.6387C38.8146 19.2227 39.2084 19.8211 39.5127 20.4189C39.7218 21.0077 39.8069 21.5785 39.7568 22.1206C39.5934 22.6398 39.3024 23.1276 38.9004 23.582C38.4422 24.0257 37.9341 24.4512 37.4161 24.8664C36.9552 25.3001 36.5629 25.7449 36.2735 26.2078C36.1281 26.7137 36.1158 27.2451 36.2325 27.7985C36.4714 28.3872 36.7756 28.9659 37.0994 29.5199C37.4187 30.072 37.668 30.5716 37.8126 31.0093C37.8467 31.4126 37.7352 31.7421 37.4789 31.9969C37.0982 32.2156 36.5992 32.371 36.0107 32.4744C35.3639 32.5678 34.6861 32.6337 34.0069 32.6873C33.3507 32.7681 32.7363 32.8628 32.1769 32.9853C31.6831 33.1656 31.2508 33.3917 30.8729 33.6712C30.5529 34.022 30.2667 34.4314 29.9979 34.8978C29.7557 35.4263 29.5051 35.9988 29.2348 36.6027C28.9648 37.2314 28.6626 37.8582 28.328 38.4602C27.988 39.0272 27.6195 39.5241 27.231 39.9236C26.8484 40.2278 26.4585 40.3993 26.0694 40.4251C25.6972 40.3309 25.3318 40.0933 24.9773 39.7245C24.6334 39.2804 24.2913 38.7576 23.9467 38.1926C23.5885 37.6571 23.2092 37.1581 22.8014 36.7338C22.3548 36.4417 21.8672 36.2738 21.3379 36.2411C20.7652 36.3584 20.1718 36.5792 19.57 36.8675C18.9507 37.2094 18.3446 37.536 17.7615 37.8062C17.194 38.0104 16.6658 38.0936 16.1811 38.0373C15.7269 37.8543 15.3161 37.5219 14.9434 37.0533C14.5944 36.4778 14.2715 35.8034 13.967 35.059C13.6673 34.2769 13.3721 33.477 13.0782 32.6855C12.7754 31.9248 12.4689 31.2088 12.1608 30.5493C11.8448 29.958 11.5337 29.433 11.2356 28.9718C10.9418 28.5811 10.6729 28.2434 10.4365 27.9492C9.94289 27.2984 9.65734 26.3905 9.67147 26.0173C9.66759 25.7447 9.66769 25.4348 9.66549 25.086C9.62875 24.7197 9.58489 24.3161 9.5361 23.8783C9.45953 23.4274 9.38943 22.95 9.33671 22.4511C9.28448 21.9504 9.27163 21.4377 9.31078 20.9183C9.3832 20.408 9.5211 19.9086 9.72433 19.4208C9.96733 18.945 10.2695 18.4784 10.6208 18.0198C10.9911 17.5655 11.3916 17.1119 11.8098 16.6573C12.2158 16.1973 12.622 15.7305 13.0202 15.257C13.3855 14.7753 13.7365 14.2876 14.0726 13.798C14.374 13.3064 14.6661 12.8214 14.9524 12.352C15.217 11.8956 15.4871 11.4673 15.7651 11.0777C16.0385 10.7191 16.3299 10.4114 16.6389 10.1626C16.9553 9.95674 17.2931 9.81529 17.6509 9.73959C18.0215 9.70287 18.4118 9.72441 18.8195 9.79864C19.2437 9.88877 19.6848 10.0098 20.1416 10.1496C20.6179 10.269 21.1112 10.3811 21.62 10.4735C22.1516 10.5131 22.6992 10.5165 23.2605 10.4794C23.8417 10.3837 24.4328 10.2544 25.0272 10.1006C25.6316 9.9189 26.2304 9.74358 26.8151 9.59325C27.3933 9.47007 27.9464 9.40956 28.4674 9.42816" stroke="url(#paint4_angular_1069_5833)" stroke-width="0.314905" stroke-linecap="round"/>
<path opacity="0.24" d="M28.8504 10.2371C29.3142 10.3495 29.724 10.5433 30.0803 10.8137C30.4139 11.1422 30.6995 11.529 30.9417 11.958C31.1752 12.4072 31.3772 12.8683 31.5536 13.3263C31.7387 13.7609 31.9096 14.1688 32.0721 14.5426C32.3521 15.0152 32.9842 15.7264 33.36 16.0058C33.6576 16.1723 33.9771 16.35 34.323 16.5506C34.7107 16.763 35.1251 17.0148 35.5633 17.3121C36.0333 17.6382 36.516 18.0139 37.0018 18.4364C37.4874 18.8853 37.9485 19.3715 38.368 19.8829C38.7382 20.4027 39.0315 20.9303 39.2293 21.4525C39.3347 21.9609 39.3228 22.4491 39.1882 22.9078C38.9584 23.3449 38.6211 23.7525 38.1948 24.1318C37.7305 24.5041 37.2326 24.8647 36.735 25.2209C36.2961 25.6019 35.9222 26.0005 35.6413 26.4232C35.4883 26.8942 35.4512 27.3958 35.5261 27.9234C35.709 28.4914 35.9507 29.0526 36.2137 29.5937C36.4782 30.1341 36.6889 30.6263 36.8141 31.0585C36.8483 31.4578 36.7587 31.7838 36.5422 32.0383C36.213 32.2552 35.7718 32.4101 35.2393 32.5154C34.6401 32.6077 33.9941 32.6757 33.3273 32.7349C32.6609 32.8188 32.0112 32.921 31.3939 33.0553C30.8201 33.2436 30.2903 33.481 29.8039 33.7724C29.3671 34.1288 28.9638 34.5401 28.584 35.0011C28.238 35.5131 27.8989 36.058 27.5585 36.6202C27.2354 37.1939 26.9025 37.7512 26.5585 38.2697C26.2279 38.745 25.8898 39.1428 25.5485 39.4407C25.0691 39.6891 24.1832 39.3853 23.7823 38.8561C23.5283 38.4107 23.2713 37.9015 23.0036 37.3612C22.7181 36.8554 22.4025 36.3848 22.0483 35.9798C21.6485 35.6934 21.1981 35.5138 20.6958 35.4493C20.1444 35.5167 19.5633 35.6732 18.964 35.8895C18.3447 36.1585 17.7317 36.4172 17.1374 36.6321C16.5584 36.7983 16.017 36.8624 15.5197 36.8086C15.0577 36.6481 14.6435 36.3546 14.2741 35.9357C13.9375 35.4175 13.6359 34.8007 13.3632 34.1086C13.1078 33.3696 12.8673 32.5987 12.6393 31.8198C12.4129 31.0535 12.191 30.3147 11.9753 29.6176C11.7568 28.9725 11.5472 28.3846 11.3513 27.8555C11.1585 27.3902 10.9873 26.9797 10.843 26.6183C10.6581 26.173 10.4669 25.4608 10.4547 25.1411C10.4572 24.8229 10.4954 24.0654 10.4993 23.599C10.4674 23.2606 10.4316 22.8866 10.3947 22.4793C10.3332 22.0598 10.2823 21.6132 10.252 21.145C10.224 20.6758 10.2373 20.1939 10.3026 19.7052C10.3992 19.2274 10.5593 18.7596 10.7823 18.3049C11.0438 17.8643 11.3629 17.4341 11.7308 17.0137C12.1195 16.6009 12.5392 16.1914 12.9797 15.7837C13.412 15.3744 13.8467 14.962 14.2762 14.5466C14.6763 14.1266 15.062 13.7045 15.4307 13.2857C15.7641 12.8665 16.0827 12.4583 16.3881 12.0687C16.6652 11.6921 16.9373 11.3466 17.2074 11.0408C17.5945 10.6477 18.4078 10.1835 18.8472 10.123C19.1537 10.1314 19.4788 10.1889 19.8211 10.2889C20.1806 10.3959 20.5608 10.5256 20.9607 10.6671C21.3852 10.7846 21.8321 10.8914 22.301 10.9779C22.7973 11.0155 23.3146 11.0204 23.8502 10.9909C24.4092 10.9117 24.9799 10.8058 25.5553 10.682C26.1414 10.5375 26.7207 10.4031 27.283 10.2941C27.8372 10.2125 28.3625 10.1886 28.8499 10.2369" stroke="url(#paint5_angular_1069_5833)" stroke-width="0.314905" stroke-linecap="round"/>
<path opacity="0.28" d="M29.1465 11.0237C29.5739 11.1556 29.9462 11.3603 30.2644 11.6346C30.5577 11.9614 30.8037 12.3426 31.0078 12.7648C31.2018 13.2092 31.3671 13.6699 31.5116 14.1331C31.666 14.5818 31.8133 15.0129 31.9598 15.4196C32.1336 15.7904 32.3176 16.1313 32.5162 16.4441C32.7537 16.7211 33.0122 16.9789 33.2948 17.2267C33.6195 17.4563 33.9697 17.6915 34.3455 17.9421C34.7578 18.1955 35.1899 18.4774 35.6358 18.7922C36.101 19.1221 36.5639 19.4889 37.0137 19.8876C37.4487 20.299 37.8451 20.7355 38.1851 21.1857C38.4708 21.6336 38.6726 22.0808 38.7792 22.5171C38.8009 22.9347 38.7149 23.3299 38.5205 23.6978C38.249 24.0447 37.8891 24.3667 37.4577 24.6663C37.0045 24.9639 36.529 25.2573 36.0611 25.5542C35.6503 25.8806 35.2997 26.2323 35.0304 26.6133C34.8731 27.0468 34.8148 27.5163 34.8518 28.0171C34.9821 28.5598 35.1653 29.1022 35.3691 29.6305C35.5786 30.1607 35.7463 30.6493 35.8461 31.0845C35.8716 31.4882 35.7916 31.8248 35.6018 32.0944C35.3124 32.3264 34.9184 32.4995 34.4338 32.6253C33.8793 32.7339 33.2664 32.8189 32.6175 32.8955C31.9505 32.9893 31.2801 33.1006 30.6208 33.2409C29.986 33.4267 29.3779 33.6572 28.801 33.9356C28.2642 34.2685 27.7576 34.6483 27.2775 35.0693C26.8345 35.5279 26.4102 36.0086 26.0006 36.4958C25.6213 36.9837 25.2519 37.4468 24.8923 37.8634C24.4028 38.3818 23.5386 38.8442 23.1732 38.7312C22.9638 38.5333 22.7675 38.2299 22.5807 37.8331C22.4038 37.3984 22.2195 36.9134 22.0189 36.4054C21.7972 35.9356 21.5379 35.497 21.2329 35.1153C20.8794 34.8382 20.4674 34.6508 19.9964 34.5579C19.4738 34.5813 18.9133 34.6801 18.3283 34.8291C17.7203 35.029 17.1132 35.2228 16.5201 35.3824C15.941 35.5081 15.3976 35.5501 14.8975 35.493C14.4354 35.3488 14.0241 35.0887 13.6629 34.7175C13.3416 34.2575 13.0644 33.704 12.8259 33.0748C12.6153 32.3949 12.4318 31.6738 12.2707 30.9334C12.1225 30.1918 11.9882 29.4628 11.8672 28.762C11.7504 28.0983 11.6457 27.4798 11.5557 26.9129C11.4681 26.3985 11.3983 25.9371 11.3499 25.525C11.2929 24.999 11.2934 24.1588 11.3417 23.7968C11.3829 23.4492 11.4587 22.6761 11.4734 22.2208C11.4495 21.8934 11.4238 21.5352 11.3998 21.1472C11.3546 20.7483 11.3228 20.3255 11.3147 19.8834C11.3092 19.4411 11.3457 18.9897 11.433 18.5326C11.55 18.0888 11.7272 17.6578 11.9644 17.2408C12.2377 16.8407 12.5656 16.4541 12.9415 16.0807C13.3379 15.7184 13.7665 15.3641 14.2169 15.015C14.662 14.6688 15.1123 14.3243 15.5589 13.982C15.9794 13.6371 16.3861 13.2952 16.7748 12.96C17.1282 12.6253 17.4627 12.3049 17.7778 12.0044C18.1968 11.5845 18.9479 10.9526 19.3009 10.7675C19.6463 10.6703 20.3902 10.7459 20.8056 10.8926C21.1056 10.999 21.4286 11.1223 21.775 11.2515C22.148 11.3536 22.5484 11.4453 22.9744 11.5179C23.4313 11.5464 23.9134 11.5478 24.4165 11.5216C24.9448 11.4539 25.4869 11.367 26.0351 11.2692C26.5927 11.158 27.1436 11.0588 27.677 10.9869C28.2003 10.9417 28.6926 10.9496 29.146 11.0235" stroke="url(#paint6_angular_1069_5833)" stroke-width="0.314905" stroke-linecap="round"/>
<path opacity="0.32" d="M29.4214 11.8143C29.8133 11.9624 30.1522 12.1764 30.4389 12.4521C30.6995 12.7765 30.915 13.1521 31.0921 13.5678C31.2578 14.0071 31.3982 14.4671 31.5221 14.9352C31.6556 15.3969 31.7871 15.8508 31.9228 16.2894C32.0862 16.7018 32.2664 17.0929 32.4663 17.4635C32.7046 17.8042 32.9689 18.1292 33.2598 18.4449C33.5901 18.74 33.9457 19.0372 34.3233 19.3422C34.7305 19.6409 35.1509 19.9568 35.5759 20.2927C36.0092 20.6297 36.4296 20.9881 36.8247 21.3646C37.1968 21.7388 37.5204 22.1241 37.7815 22.5114C38.0482 23.0678 38.0308 24.0757 37.7301 24.5042C37.4399 24.7615 37.0768 25 36.6581 25.224C36.2298 25.4496 35.7873 25.679 35.3562 25.92C34.9798 26.1944 34.6557 26.4997 34.4009 26.8416C34.2424 27.2366 34.1658 27.6723 34.1684 28.1453C34.251 28.6612 34.3781 29.1836 34.5235 29.6983C34.6783 30.218 34.8004 30.7047 34.8666 31.1457C34.874 31.5585 34.7929 31.9122 34.6162 32.2057C34.3536 32.4617 33.9946 32.6626 33.549 32.8188C33.0341 32.9533 32.4546 33.0625 31.8278 33.1604C31.1721 33.2657 30.4957 33.382 29.8143 33.5201C29.1401 33.691 28.4793 33.8974 27.8381 34.1413C27.2265 34.4255 26.6415 34.7455 26.0837 35.0951C25.5632 35.4708 25.07 35.8584 24.6034 36.2429C24.1761 36.6221 23.7749 36.9716 23.4001 37.2732C22.5269 37.7189 21.6318 37.2211 21.4373 36.6685C21.319 36.2514 21.1915 35.7962 21.0448 35.3254C20.8738 34.8934 20.6618 34.4886 20.3998 34.1318C20.0877 33.8667 19.7136 33.6743 19.2777 33.5592C18.7881 33.544 18.2569 33.5908 17.6969 33.6801C17.112 33.8167 16.5233 33.9506 15.9451 34.0585C15.3793 34.1447 14.8458 34.1632 14.3546 34.1007C13.9022 33.9699 13.5013 33.7408 13.1551 33.4162C12.8535 33.0152 12.6025 32.5287 12.3994 31.9708C12.2321 31.3627 12.1023 30.71 12.0051 30.0304C11.9293 29.34 11.8771 28.6508 11.846 27.9777C11.824 27.3277 11.8188 26.7117 11.8291 26.1371C11.8419 25.6029 11.8693 25.1144 11.9125 24.6716C11.9808 24.087 12.1722 23.1295 12.285 22.7166C12.3717 22.3235 12.5026 21.4946 12.5362 21.0297C12.5267 20.6988 12.5163 20.3444 12.5085 19.9665C12.4829 19.579 12.4727 19.1728 12.4858 18.7522C12.5031 18.3338 12.5605 17.91 12.6673 17.4858C12.8005 17.0765 12.9898 16.6832 13.2346 16.3083C13.5124 15.9525 13.8412 15.6146 14.2152 15.2944C14.6087 14.988 15.0343 14.6948 15.4808 14.4129C15.9255 14.1368 16.3763 13.868 16.8241 13.6063C17.25 13.345 17.6624 13.09 18.0562 12.8458C18.417 12.6014 18.7569 12.3721 19.0731 12.1631C19.4901 11.8721 20.1997 11.4646 20.512 11.3668C20.806 11.332 21.4198 11.4639 21.7637 11.6071C22.1537 11.7535 23.1 12.0272 23.6659 12.1151C24.0836 12.1287 24.5287 12.1226 24.9979 12.0957C25.4909 12.0358 25.9991 11.9638 26.5146 11.8883C27.0375 11.8041 27.5544 11.7361 28.0556 11.6961C28.5435 11.682 29.0012 11.7177 29.4209 11.814" stroke="url(#paint7_angular_1069_5833)" stroke-width="0.314905" stroke-linecap="round"/>
<path opacity="0.35" d="M29.7226 12.6461C30.0815 12.8078 30.3905 13.0293 30.652 13.3072C30.8855 13.6293 31.0786 13.9996 31.2359 14.4099C31.3806 14.8445 31.5035 15.3025 31.6134 15.7755C31.7297 16.2484 31.847 16.7219 31.9719 17.189C32.122 17.6383 32.2904 18.0745 32.4803 18.4976C32.7056 18.896 32.9569 19.2821 33.2334 19.6595C33.5449 20.0161 33.8777 20.3701 34.2286 20.7243C34.602 21.0653 34.9815 21.4122 35.3581 21.7658C35.7358 22.1088 36.0934 22.458 36.4185 22.8099C36.8409 23.3155 37.3086 24.2574 37.3084 24.6678C37.1359 25.017 36.3349 25.5809 35.7667 25.819C35.3733 25.982 34.9718 26.1554 34.5813 26.347C34.2422 26.5753 33.9467 26.839 33.7076 27.1447C33.5501 27.5026 33.4587 27.906 33.4296 28.3508C33.4686 28.8381 33.5424 29.3382 33.6319 29.8377C33.7319 30.3453 33.8051 30.8274 33.8319 31.2739C33.8143 31.6951 33.7217 32.066 33.547 32.3843C33.2994 32.6656 32.9656 32.8966 32.5504 33.0839C32.0709 33.2451 31.5253 33.3787 30.9258 33.495C30.2911 33.6094 29.6255 33.7247 28.9426 33.8508C28.2566 33.9961 27.5717 34.1631 26.8979 34.3548C26.245 34.5723 25.6136 34.8125 25.009 35.0704C24.4403 35.3426 23.9036 35.6175 23.401 35.883C22.9424 36.139 22.5211 36.3639 22.1385 36.5429C21.3027 36.6862 20.5553 35.9476 20.424 35.3984C20.3456 35.0023 20.2575 34.5782 20.1499 34.1439C20.0153 33.7487 19.8395 33.3767 19.614 33.0442C19.3371 32.7917 18.9992 32.5969 18.5995 32.4642C18.1461 32.4164 17.6506 32.4185 17.1244 32.4568C16.5726 32.5379 16.0138 32.6189 15.4632 32.6803C14.922 32.7302 14.4112 32.7276 13.9402 32.6609C13.506 32.5416 13.1248 32.3419 12.7985 32.0631C12.5196 31.7207 12.2963 31.3046 12.1266 30.8239C11.9977 30.2966 11.9151 29.7249 11.8734 29.1242C11.8591 28.5056 11.8767 27.8799 11.9214 27.2614C11.9806 26.6535 12.0599 26.0682 12.1569 25.5137C12.2562 24.9868 12.3689 24.4964 12.4932 24.0443C12.6108 23.6217 12.7362 23.2335 12.8681 22.8762C13.0435 22.3812 13.3586 21.4776 13.4864 21.0333C13.5622 20.5723 13.6417 19.5633 13.6608 19.0087C13.6599 18.6257 13.6727 18.231 13.7089 17.8293C13.7496 17.4305 13.8271 17.0324 13.9491 16.6407C14.0957 16.2646 14.2927 15.9098 14.5389 15.5784C14.8147 15.2671 15.1366 14.9793 15.4986 14.7149C15.8801 14.4663 16.2905 14.2366 16.7202 14.0241C17.1512 13.8195 17.5881 13.6277 18.0224 13.4491C18.4391 13.2705 18.8432 13.103 19.2288 12.949C19.7531 12.7226 20.6374 12.3604 21.0012 12.2398C21.5839 12.1466 22.3842 12.2972 22.6801 12.424C23.0207 12.5389 23.8671 12.7356 24.3835 12.7895C24.7676 12.7879 25.1794 12.7714 25.6151 12.7427C26.073 12.6879 26.5462 12.6288 27.027 12.5723C27.5132 12.5116 27.9943 12.4701 28.4596 12.458C28.9115 12.4704 29.3348 12.5302 29.7221 12.6458" stroke="url(#paint8_angular_1069_5833)" stroke-width="0.314905" stroke-linecap="round"/>
<path opacity="0.39" d="M30.0712 13.5564C30.3988 13.7297 30.6816 13.9578 30.9209 14.238C31.1321 14.5572 31.3058 14.9226 31.4476 15.3272C31.5752 15.7561 31.6836 16.2121 31.7795 16.687C31.8796 17.1664 31.9807 17.6532 32.0894 18.1419C32.2188 18.6186 32.3644 19.0902 32.53 19.5536C32.7257 19.9972 32.9434 20.4319 33.1835 20.8573C33.4516 21.2627 33.7373 21.6603 34.0343 22.0524C34.348 22.425 34.6627 22.7931 34.9689 23.1558C35.2722 23.4993 35.552 23.8358 35.7962 24.1624C36.2307 24.9921 36.0729 25.9219 35.7264 26.122C35.4457 26.2348 35.1195 26.3391 34.7595 26.4414C34.4073 26.554 34.0492 26.6828 33.701 26.8351C33.3997 27.0249 33.1323 27.2538 32.9088 27.5274C32.7538 27.8522 32.6488 28.2242 32.5913 28.64C32.5899 29.0978 32.6151 29.5737 32.6504 30.0548C32.6973 30.5453 32.7212 31.0188 32.707 31.465C32.659 31.8899 32.5481 32.273 32.3673 32.6098C32.1272 32.9119 31.8108 33.1673 31.4209 33.3804C30.9741 33.5634 30.4631 33.7154 29.898 33.8446C29.2962 33.9607 28.6586 34.0682 27.9967 34.1747C27.3251 34.2853 26.6473 34.4044 25.973 34.5336C25.3141 34.6741 24.6729 34.8246 24.0567 34.9803C23.473 35.1408 22.9226 35.2963 22.4116 35.4372C21.9443 35.566 21.5204 35.6648 21.1426 35.7231C20.671 35.7374 20.021 35.4168 19.8255 35.0692C19.7345 34.7868 19.6643 34.4534 19.6068 34.0776C19.5508 33.7007 19.4869 33.3055 19.404 32.9051C19.2928 32.5421 19.1426 32.2 18.9452 31.8909C18.6972 31.6486 18.3923 31.4536 18.0288 31.307C17.6134 31.232 17.1577 31.1976 16.673 31.1926C16.1607 31.2271 15.6413 31.2623 15.1283 31.2859C14.6217 31.3046 14.1426 31.2839 13.702 31.2141C13.2935 31.1066 12.9374 30.9359 12.6363 30.7017C12.381 30.4171 12.1836 30.0711 12.0432 29.6705C11.9454 29.2282 11.8992 28.7449 11.9 28.2328C11.9316 27.6998 12.0012 27.1543 12.1036 26.6085C12.223 26.0635 12.3661 25.5314 12.5288 25.0198C12.6951 24.5233 12.8736 24.0534 13.0614 23.6119C13.2411 23.1894 13.424 22.7937 13.6082 22.4232C13.7742 22.0645 13.9358 21.7238 14.0916 21.3959C14.282 20.9098 14.5714 19.9285 14.6719 19.4153C14.7112 19.0592 14.7478 18.6929 14.7872 18.3177C14.8139 17.9367 14.8538 17.5508 14.9134 17.1653C14.9783 16.7845 15.0754 16.4111 15.2109 16.0506C15.3684 15.7055 15.5687 15.3882 15.8108 15.0995C16.0795 14.8318 16.3877 14.5925 16.73 14.382C17.0906 14.1878 17.4762 14.0187 17.8794 13.8729C18.2846 13.7353 18.6958 13.6167 19.1046 13.5142C19.5003 13.4138 19.884 13.3274 20.2512 13.2555C20.7544 13.1501 21.6075 13.0124 21.9577 12.9877C22.5135 13.0162 23.2617 13.2225 23.5347 13.3276C23.8502 13.4101 24.6374 13.5322 25.1194 13.5559C25.4774 13.5406 25.8617 13.5166 26.2685 13.4871C26.6939 13.4373 27.1345 13.3899 27.5815 13.3509C28.0317 13.3105 28.4769 13.293 28.9081 13.3065C29.3235 13.3415 29.7131 13.4226 30.0707 13.556" stroke="url(#paint9_angular_1069_5833)" stroke-width="0.314905" stroke-linecap="round"/>
<path opacity="0.43" d="M30.4597 14.574C30.7585 14.7573 31.0167 14.9911 31.2354 15.2731C31.426 15.5891 31.5821 15.9482 31.7098 16.3454C31.9197 17.2051 32.0799 18.159 32.2381 19.1564C32.4549 20.1281 32.7336 21.0884 33.0788 22.0156C33.5109 22.8608 33.9738 23.6635 34.4144 24.4106C34.8409 25.0544 35.1413 25.6244 35.2531 26.0971C35.2375 26.449 34.9887 26.7029 34.518 26.871C33.9846 26.999 33.3483 27.1409 32.6992 27.3591C32.3119 27.6208 31.7706 28.4356 31.628 28.9945C31.5907 29.4214 31.5707 29.8693 31.5565 30.3269C31.5538 30.7957 31.5308 31.2536 31.4758 31.6912C31.283 32.5062 30.8521 33.1637 30.1679 33.6533C29.2943 34.0152 28.2085 34.2581 26.9879 34.43C25.7198 34.5708 24.4414 34.6998 23.231 34.8141C22.1341 34.9141 21.1858 34.9504 20.4256 34.8674C19.8433 34.6901 19.4471 34.3334 19.2145 33.7844C19.0749 33.1694 18.9851 32.4417 18.8664 31.6737C18.7007 31.1792 18.0951 30.3994 17.6292 30.1448C17.2517 30.0467 16.8382 29.9826 16.398 29.9434C15.9307 29.9389 15.4565 29.9378 14.9881 29.93C14.0674 29.9063 13.2843 29.7375 12.6978 29.3881C12.2753 28.8873 12.0822 28.2004 12.1007 27.383C12.2489 26.4793 12.5434 25.5411 12.9418 24.6321C13.3601 23.7391 13.8132 22.9171 14.2704 22.1736C14.6577 21.4454 15.0077 20.7564 15.3106 20.0843C15.5106 19.3754 15.6726 18.6497 15.8222 17.9103C15.8798 17.5319 15.9478 17.156 16.0318 16.7868C16.121 16.4226 16.2365 16.0724 16.3835 15.742C16.6507 15.286 17.3883 14.5696 17.8504 14.3099C18.5325 14.0355 19.278 13.868 20.0325 13.7909C20.7543 13.721 21.4206 13.7108 22.0042 13.7574C22.5057 13.7731 22.9289 13.8423 23.2895 13.9659C23.6183 14.0406 23.9462 14.1558 24.3076 14.2949C24.7282 14.3478 25.2393 14.3935 25.8508 14.4202C26.5521 14.3524 27.3368 14.2838 28.1648 14.2466C28.5817 14.227 28.9926 14.2319 29.3913 14.2685C29.7725 14.3246 30.1304 14.4248 30.4589 14.5741" stroke="url(#paint10_angular_1069_5833)" stroke-width="0.314905" stroke-linecap="round"/>
<path opacity="0.47" d="M30.8534 15.7063C31.3678 16.1201 31.7358 16.7156 31.9779 17.4656C32.1499 18.2991 32.2662 19.2309 32.3674 20.2163C32.5021 21.1888 32.6758 22.1596 32.8908 23.0985C33.1677 23.9582 33.4574 24.7591 33.7144 25.4795C33.9602 26.0858 34.0949 26.5924 34.071 26.9825C33.9615 27.2537 33.6687 27.4258 33.205 27.5219C32.718 27.5943 32.1539 27.6919 31.5785 27.8739C31.1448 28.1966 30.7942 28.6915 30.5361 29.3653C30.4274 30.1856 30.3216 31.0571 30.1458 31.8998C29.9049 32.6902 29.4685 33.3431 28.8234 33.8388C28.028 34.2054 27.0485 34.4347 25.947 34.5584C24.7994 34.6154 23.637 34.6138 22.5354 34.5586C21.5283 34.4638 20.663 34.2942 19.9772 34.0186C19.4458 33.673 19.0916 33.1942 18.8915 32.582C18.7609 31.943 18.6771 31.236 18.571 30.5178C18.3484 29.9251 17.9826 29.4234 17.4433 29.0442C16.7181 28.8539 15.9012 28.7501 15.07 28.6738C14.233 28.6144 13.5219 28.4587 12.9923 28.1757C12.6041 27.7817 12.4371 27.2435 12.4791 26.5983C12.6463 25.8694 12.9664 25.095 13.3966 24.3237C13.8527 23.5354 14.3473 22.7815 14.8445 22.0743C15.2815 21.3512 15.6797 20.6517 16.0275 19.9635C16.2884 19.2325 16.5093 18.4973 16.713 17.7685C16.8877 17.0254 17.1073 16.3255 17.4083 15.7079C17.7747 15.1536 18.2471 14.7465 18.8096 14.4844C19.4336 14.2917 20.105 14.2188 20.7808 14.245C21.442 14.2801 22.0563 14.3783 22.6013 14.5259C23.0905 14.6337 23.5128 14.7757 23.8838 14.9464C24.2377 15.0514 24.5925 15.1714 24.9777 15.2953C25.4187 15.3309 25.9378 15.3565 26.5421 15.3716C27.2195 15.3087 27.9647 15.2615 28.741 15.2615C29.5069 15.2721 30.2266 15.4062 30.853 15.7059" stroke="url(#paint11_angular_1069_5833)" stroke-width="0.314905" stroke-linecap="round"/>
<path opacity="0.51" d="M31.2023 16.9332C31.6652 17.3549 31.9904 17.9382 32.1948 18.6602C32.325 19.4542 32.39 20.3432 32.4236 21.2854C32.4681 22.222 32.5259 23.1602 32.5993 24.064C32.7146 24.8951 32.8269 25.6573 32.9029 26.3239C32.9635 27.0995 32.4527 27.9135 31.835 28.0295C31.3868 28.078 30.8833 28.1572 30.3683 28.3212C29.974 28.6187 29.6311 29.0739 29.3419 29.6917C29.1716 30.4431 28.9927 31.2457 28.7527 32.0295C28.4739 32.7747 28.0394 33.3997 27.441 33.8772C26.7326 34.2306 25.8743 34.4359 24.9181 34.512C23.9253 34.4984 22.9205 34.3914 21.9717 34.2016C21.0986 33.9566 20.353 33.6288 19.7696 33.2083C19.3076 32.7366 19.0033 32.1697 18.8355 31.5169C18.7095 30.862 18.625 30.1759 18.5217 29.5C18.3036 28.9346 17.966 28.4503 17.4859 28.0685C16.8341 27.8386 16.1097 27.6881 15.3768 27.5745C14.6247 27.485 13.9851 27.3388 13.5078 27.1115C13.1443 26.8049 12.9862 26.3934 13.0247 25.8991C13.1761 25.3263 13.4807 24.7051 13.8965 24.0689C14.3447 23.3912 14.8379 22.7196 15.3385 22.0654C15.7934 21.3738 16.2173 20.6875 16.5946 20.0059C16.9053 19.2778 17.1783 18.5521 17.4313 17.8465C17.6641 17.1309 17.9263 16.4735 18.2459 15.9105C18.6206 15.4098 19.0689 15.062 19.5792 14.8641C20.1456 14.734 20.7439 14.7296 21.344 14.8275C21.9442 14.9373 22.5081 15.11 23.0185 15.3271C23.4985 15.5019 23.9286 15.6972 24.3205 15.9033C24.7117 16.0369 25.1073 16.1683 25.5316 16.2917C26.0074 16.3299 26.5469 16.3577 27.1548 16.382C27.8192 16.3429 28.532 16.3307 29.2621 16.3738C29.9719 16.4308 30.6326 16.6053 31.2023 16.9332Z" stroke="url(#paint12_angular_1069_5833)" stroke-width="0.314905" stroke-linecap="round"/>
<path opacity="0.54" d="M31.4473 18.2087C31.8597 18.6343 32.1405 19.1968 32.3016 19.8765C32.3882 20.6171 32.3985 21.4409 32.3605 22.31C32.3154 23.1778 32.2595 24.0441 32.1972 24.8727C32.1602 25.6377 32.1079 26.3291 32.0205 26.9201C31.9345 27.4113 31.7791 27.7895 31.5329 28.0494C31.2691 28.2247 30.9107 28.3176 30.466 28.3576C30.0461 28.4056 29.5871 28.4865 29.119 28.6463C28.7504 28.929 28.4098 29.3489 28.0965 29.9088C27.8757 30.5894 27.6403 31.3133 27.3565 32.022C27.0515 32.7051 26.6309 33.2813 26.0912 33.7206C25.4759 34.0487 24.7492 34.2248 23.9545 34.2593C23.1337 34.1955 22.3103 34.016 21.5393 33.7358C20.827 33.3927 20.2232 32.9625 19.758 32.4516C19.381 31.9022 19.1344 31.2858 18.9993 30.6176C18.8811 29.9626 18.7944 29.3007 18.6911 28.6642C18.4776 28.1212 18.1664 27.6509 17.7405 27.2693C17.16 27.0062 16.5239 26.818 15.8844 26.6743C15.2156 26.5568 14.6441 26.4148 14.2116 26.2276C13.8656 25.9854 13.7019 25.6722 13.7149 25.2977C13.8252 24.8538 14.082 24.3627 14.4473 23.8453C14.8486 23.2733 15.3037 22.6863 15.7749 22.0951C16.2179 21.4515 16.6416 20.8003 17.0309 20.1462C17.3722 19.4451 17.6834 18.7497 17.975 18.0815C18.2546 17.4082 18.5523 16.7997 18.8863 16.2912C19.2661 15.8414 19.6914 15.5437 20.1558 15.3927C20.6689 15.3062 21.2028 15.3445 21.7355 15.4847C22.2808 15.6393 22.8008 15.8567 23.283 16.1136C23.7579 16.3326 24.2002 16.5639 24.6192 16.7951C25.0511 16.958 25.4922 17.1086 25.9593 17.2453C26.4733 17.3063 27.0372 17.3583 27.6507 17.4096C28.3054 17.413 28.9893 17.4478 29.6739 17.539C30.3317 17.6462 30.9345 17.8592 31.4473 18.2087Z" stroke="url(#paint13_angular_1069_5833)" stroke-width="0.314905" stroke-linecap="round"/>
<path opacity="0.58" d="M31.5434 19.4655C31.9062 19.8887 32.1403 20.4211 32.2577 21.0463C32.3005 21.7192 32.2591 22.4585 32.1552 23.2305C32.0309 24.0017 31.8753 24.7665 31.6968 25.4902C31.5303 26.1619 31.3412 26.7595 31.1194 27.2613C30.9046 27.6821 30.6401 27.9985 30.3143 28.2101C29.9913 28.3614 29.6071 28.4436 29.1698 28.4854C28.766 28.5477 28.3377 28.6419 27.9031 28.8043C27.5478 29.078 27.2062 29.4652 26.8766 29.9655C26.6163 30.5717 26.3431 31.2113 26.0361 31.8341C25.7212 32.4429 25.3273 32.9557 24.8545 33.3448C24.3355 33.6391 23.7442 33.7862 23.1135 33.7905C22.468 33.6992 21.8304 33.483 21.243 33.1583C20.6978 32.7694 20.2427 32.2947 19.8994 31.7468C19.6134 31.1704 19.4276 30.5441 19.3275 29.8891C19.2222 29.2531 19.1369 28.6238 19.0351 28.0276C18.8294 27.507 18.5454 27.051 18.1707 26.6712C17.6589 26.3813 17.1059 26.1627 16.5528 25.9926C15.9629 25.8475 15.454 25.7009 15.0607 25.5356C14.6385 25.21 14.6724 24.2522 15.059 23.6345C15.388 23.1538 15.7767 22.6451 16.1933 22.118C16.5973 21.5343 16.9976 20.9319 17.3785 20.3229C17.7292 19.6692 18.0609 19.0222 18.3765 18.4059C18.6878 17.7874 19.0092 17.2349 19.3531 16.78C19.7341 16.3803 20.1391 16.1235 20.566 16.0046C21.035 15.9462 21.5154 16.0063 21.9945 16.1626C22.4938 16.3376 22.9785 16.5735 23.4412 16.8461C23.9128 17.0892 24.3678 17.3426 24.8134 17.5916C25.2815 17.7829 25.7625 17.9593 26.2663 18.1207C26.8119 18.2203 27.3935 18.3118 28.0067 18.4059C28.6482 18.4643 29.3004 18.5539 29.9379 18.6968C30.5443 18.8538 31.0892 19.1033 31.5434 19.4655Z" stroke="url(#paint14_angular_1069_5833)" stroke-width="0.314905" stroke-linecap="round"/>
<path opacity="0.62" d="M31.457 20.6278C31.7698 21.0414 31.9589 21.5343 32.0339 22.0934C32.0384 22.6896 31.9528 23.3303 31.7961 23.9887C31.6103 24.6478 31.3797 25.2926 31.1142 25.8949C30.8516 26.4575 30.5606 26.9515 30.2422 27.3593C29.9325 27.7077 29.5887 27.9676 29.2075 28.1394C28.8397 28.2757 28.4378 28.3576 28.0066 28.4103C27.6104 28.4938 27.2017 28.6048 26.791 28.7714C26.441 29.0361 26.0981 29.3896 25.7598 29.8298C25.4732 30.3608 25.18 30.9127 24.8688 31.4447C24.5584 31.9721 24.2013 32.4154 23.8015 32.7477C23.3775 33.0057 22.9151 33.1279 22.4392 33.1158C21.9574 33.0183 21.494 32.7987 21.0778 32.4714C20.6894 32.0847 20.3741 31.6146 20.1441 31.0793C19.9446 30.5208 19.8184 29.9229 19.7515 29.308C19.664 28.711 19.585 28.1267 19.4891 27.5753C19.2971 27.082 19.042 26.6427 18.7154 26.2676C18.2711 25.9595 17.7957 25.716 17.3219 25.5213C16.8071 25.3484 16.3565 25.1877 15.9982 25.0261C15.5802 24.7345 15.4683 23.9405 15.7335 23.4249C15.9781 23.0156 16.2861 22.5734 16.6319 22.1065C16.9774 21.5845 17.3351 21.0407 17.6889 20.4874C18.0283 19.8952 18.3608 19.3103 18.6853 18.7559C19.0103 18.2024 19.344 17.7116 19.6915 17.3106C20.0673 16.9597 20.4554 16.7384 20.8535 16.6402C21.2863 16.5975 21.7258 16.6635 22.1646 16.8178C22.629 16.9946 23.0865 17.2292 23.5356 17.4998C24.0035 17.7517 24.4682 18.0149 24.933 18.276C25.426 18.4926 25.9336 18.6975 26.4605 18.8895C27.0218 19.0349 27.6075 19.1754 28.2084 19.3196C28.8261 19.4393 29.4388 19.5864 30.024 19.7776C30.576 19.9828 31.0622 20.2611 31.457 20.6278Z" stroke="url(#paint15_angular_1069_5833)" stroke-width="0.314905" stroke-linecap="round"/>
<path opacity="0.66" d="M31.188 21.6265C31.451 22.0219 31.5983 22.4688 31.6365 22.9556C31.6108 23.4687 31.4945 24.0057 31.303 24.5462C31.079 25.0876 30.8023 25.6079 30.4846 26.0859C30.162 26.5373 29.8102 26.9282 29.4334 27.2455C29.0655 27.5264 28.6747 27.7353 28.2634 27.8757C27.8693 28.0013 27.4585 28.0876 27.0349 28.1536C26.6437 28.2562 26.2485 28.3823 25.8567 28.5503C25.5092 28.8031 25.1668 29.1212 24.8299 29.5005C24.5288 29.9568 24.2315 30.4211 23.9317 30.8637C23.6372 31.309 23.3243 31.6808 22.997 31.9582C22.4863 32.2318 21.4738 32.0832 21.0452 31.6868C20.7905 31.3394 20.5928 30.9138 20.4576 30.4289C20.3329 29.9246 20.2579 29.3862 20.2209 28.8338C20.152 28.2958 20.0831 27.7677 19.9958 27.2673C19.8234 26.8093 19.5997 26.3927 19.3204 26.0267C18.9407 25.7084 18.5386 25.4453 18.1374 25.2272C17.6946 25.0269 17.3001 24.8464 16.9766 24.6729C16.57 24.3838 16.3302 23.6671 16.4798 23.2142C16.6399 22.8557 16.8649 22.4663 17.1343 22.0513C17.4117 21.5892 17.7147 21.1064 18.0288 20.6136C18.3387 20.0913 18.6551 19.5758 18.9734 19.0891C19.295 18.6066 19.6273 18.1802 19.9716 17.8329C20.3378 17.5305 20.7093 17.3393 21.086 17.2561C21.4896 17.2226 21.8983 17.2846 22.3096 17.4256C22.7446 17.5915 23.1818 17.8122 23.6189 18.0686C24.0792 18.3171 24.5454 18.5807 25.0179 18.8466C25.5188 19.0838 26.0345 19.3147 26.5648 19.5373C27.1215 19.7284 27.6917 19.9177 28.2646 20.1109C28.8447 20.289 29.4081 20.4887 29.9344 20.7211C30.4272 20.9661 30.8522 21.265 31.188 21.6265Z" stroke="url(#paint16_angular_1069_5833)" stroke-width="0.314905" stroke-linecap="round"/>
<path opacity="0.7" d="M30.755 22.4053C30.9716 22.7755 31.0814 23.1713 31.0919 23.5837C31.0459 24.0149 30.9135 24.4517 30.7078 24.8789C30.4696 25.3079 30.1764 25.7119 29.8407 26.0757C29.4951 26.4236 29.1201 26.7211 28.7233 26.9608C28.3328 27.1808 27.9258 27.3472 27.5088 27.4634C27.1077 27.5811 26.6998 27.6714 26.2911 27.7486C25.9067 27.8649 25.526 27.9988 25.1526 28.163C24.8093 28.3978 24.4739 28.6773 24.1467 28.9975C23.844 29.3803 23.5547 29.7617 23.2769 30.1201C22.8723 30.639 22.0896 31.2512 21.7308 31.286C21.4009 31.145 20.9332 30.3551 20.8134 29.7673C20.7455 29.3416 20.7081 28.883 20.6927 28.4089C20.6411 27.945 20.5834 27.4835 20.5073 27.04C20.3575 26.6253 20.167 26.2385 19.933 25.8873C19.6171 25.568 19.2835 25.2933 18.9502 25.0554C18.408 24.7281 17.571 24.1244 17.3452 23.8025C17.2439 23.4236 17.461 22.5029 17.7337 21.9564C17.9427 21.549 18.1865 21.1248 18.4534 20.6941C18.7235 20.2424 19.0102 19.7989 19.3091 19.3819C19.6133 18.9717 19.9325 18.6099 20.2666 18.3156C20.6161 18.0593 20.9701 17.8976 21.328 17.8261C21.7065 17.7976 22.0911 17.8516 22.4801 17.974C22.8909 18.123 23.3082 18.323 23.7314 18.5577C24.1773 18.7949 24.6337 19.0511 25.0988 19.3147C25.5888 19.5635 26.0912 19.8132 26.6026 20.06C27.1331 20.2885 27.6678 20.5179 28.1955 20.7507C28.7228 20.976 29.2263 21.217 29.6864 21.4793C30.1153 21.7513 30.4776 22.0589 30.755 22.4053Z" stroke="url(#paint17_angular_1069_5833)" stroke-width="0.314905" stroke-linecap="round"/>
<path opacity="0.73" d="M30.2006 22.9396C30.4916 23.633 30.4183 24.3395 30.0538 24.9936C29.5661 25.6561 28.8947 26.1935 28.1284 26.5544C27.3696 26.895 26.5719 27.1045 25.7869 27.243C25.0688 27.5267 24.3785 27.8957 23.743 28.3647C23.1687 29.0305 22.6687 29.6091 22.2534 29.9841C21.8462 30.2731 21.5334 30.2335 21.3569 29.8903C21.1833 29.4322 21.1255 28.7584 21.1465 27.9798C21.0261 27.2209 20.8322 26.4637 20.5217 25.7813C19.9494 25.1798 19.373 24.6847 18.8989 24.2567C18.4141 23.8022 18.1749 23.3235 18.1878 22.7987C18.2758 22.1697 18.5707 21.4677 19.0054 20.7432C19.4628 19.9695 20.0168 19.2664 20.6404 18.7533C21.3047 18.3687 22.003 18.2933 22.7216 18.4735C23.5061 18.7552 24.3377 19.1946 25.1985 19.7039C26.1333 20.1988 27.1007 20.7148 28.0309 21.233C28.9432 21.7437 29.7094 22.3085 30.2006 22.9396Z" stroke="url(#paint18_angular_1069_5833)" stroke-width="0.314905" stroke-linecap="round"/>
<path opacity="0.77" d="M29.5732 23.2395C29.7961 23.8523 29.7125 24.4255 29.3811 24.9209C28.9432 25.4255 28.3384 25.8199 27.6476 26.0819C26.9492 26.356 26.2173 26.5447 25.5055 26.689C24.8324 26.9591 24.191 27.2833 23.6145 27.6606C23.0735 28.1883 22.6341 28.6346 22.3034 28.923C21.8772 29.1685 21.5657 28.3606 21.5791 27.5018C21.4782 26.8993 21.3172 26.2616 21.0724 25.6442C20.6259 25.0743 20.1773 24.5659 19.8013 24.1039C19.3942 23.6266 19.1655 23.1342 19.1352 22.6189C19.1522 22.0376 19.3539 21.414 19.7017 20.7939C20.0735 20.151 20.5589 19.5785 21.1349 19.1659C21.7355 18.8574 22.3819 18.7981 23.0553 18.9497C23.7727 19.1922 24.5387 19.5814 25.3267 20.049C26.1613 20.53 27.0103 21.0492 27.8034 21.5748C28.5667 22.1056 29.1902 22.665 29.5732 23.2395Z" stroke="url(#paint19_angular_1069_5833)" stroke-width="0.314905" stroke-linecap="round"/>
<path opacity="0.81" d="M28.9205 23.3475C29.0846 23.874 29.0041 24.3354 28.7252 24.7128C28.3587 25.0995 27.8503 25.3937 27.2657 25.5931C26.6626 25.819 26.0267 25.9912 25.4076 26.1336C24.8048 26.3762 24.2314 26.6484 23.7228 26.9415C22.6379 27.8081 22.0035 27.5846 22.0032 26.9516C21.9108 26.4923 21.7785 25.9727 21.5943 25.4302C21.2618 24.9117 20.9335 24.4155 20.6581 23.9449C20.3446 23.4661 20.1587 22.9762 20.1225 22.4814C20.1106 21.9507 20.2534 21.4058 20.5331 20.8845C20.8305 20.3609 21.2443 19.9063 21.7588 19.5864C22.2864 19.3475 22.8682 19.3057 23.4788 19.4342C24.1137 19.6383 24.7908 19.9734 25.4795 20.3872C26.1887 20.8273 26.8959 21.3145 27.5404 21.812C28.1493 22.32 28.6344 22.8408 28.9205 23.3475Z" stroke="url(#paint20_angular_1069_5833)" stroke-width="0.314905" stroke-linecap="round"/>
<path opacity="0.85" d="M28.2827 23.3246C28.3975 23.7634 28.3283 24.1335 28.1086 24.4283C27.8232 24.7297 27.4236 24.9608 26.9588 25.1245C26.4709 25.3165 25.9494 25.4739 25.4379 25.6084C24.9275 25.8155 24.4384 26.0339 24.0053 26.2519C23.066 26.8813 22.4781 26.7781 22.4438 26.3255C22.3536 25.9871 22.2456 25.5769 22.1146 25.1175C21.8814 24.668 21.6619 24.2124 21.4837 23.7656C21.2695 23.3149 21.1457 22.8561 21.1311 22.4035C21.1236 21.9371 21.237 21.4753 21.466 21.052C21.7052 20.6361 22.05 20.287 22.4922 20.0509C22.9401 19.8726 23.4414 19.8488 23.9691 19.9581C24.5054 20.1244 25.0738 20.4011 25.641 20.7507C26.2119 21.1275 26.7686 21.5526 27.2627 21.9911C27.7226 22.4399 28.0804 22.8943 28.2827 23.3246Z" stroke="url(#paint21_angular_1069_5833)" stroke-width="0.314905" stroke-linecap="round"/>
<path opacity="0.89" d="M27.6786 23.2499C27.7696 23.9522 27.3596 24.4368 26.6916 24.7059C25.9398 25.0623 25.0861 25.3707 24.3797 25.621C23.4722 26.1563 22.8343 25.716 22.6628 24.7241C22.302 23.9878 22.0875 23.1679 22.1309 22.4082C22.1658 21.6381 22.5576 20.9513 23.2802 20.5919C24.0064 20.3858 24.9098 20.6385 25.7829 21.1705C26.6322 21.7861 27.3614 22.5526 27.6786 23.2499Z" stroke="url(#paint22_angular_1069_5833)" stroke-width="0.314905" stroke-linecap="round"/>
<path opacity="0.92" d="M27.1047 23.1927C27.1606 23.7172 26.884 24.1034 26.426 24.3465C25.909 24.6402 25.2957 24.8861 24.7589 25.0532C24.0407 25.3723 23.3959 25.023 23.2612 24.2934C23.0554 23.7332 22.9852 23.0926 23.0886 22.5107C23.1702 21.9361 23.4918 21.4517 24.0435 21.2246C24.5912 21.0866 25.2527 21.2726 25.8653 21.6608C26.4455 22.0984 26.9194 22.6615 27.1047 23.1927Z" stroke="url(#paint23_angular_1069_5833)" stroke-width="0.314905" stroke-linecap="round"/>
<path opacity="0.96" d="M26.5441 23.2052C26.5401 23.9002 25.793 24.3919 25.0733 24.5315C24.3319 24.8491 23.9177 24.6196 23.9199 23.8951C23.6734 23.1397 23.9463 22.2184 24.6952 21.9418C25.4245 21.8261 26.3159 22.4813 26.5441 23.2052Z" stroke="url(#paint24_angular_1069_5833)" stroke-width="0.314905" stroke-linecap="round"/>
<defs>
<radialGradient id="paint0_angular_1069_5833" cx="0" cy="0" r="1" gradientUnits="userSpaceOnUse" gradientTransform="translate(1790.51 1815.57) rotate(90) scale(1809.41 1784.03)">
<stop stop-color="#6DDA18"/>
<stop offset="1" stop-color="#AA910E"/>
</radialGradient>
<radialGradient id="paint1_angular_1069_5833" cx="0" cy="0" r="1" gradientUnits="userSpaceOnUse" gradientTransform="translate(1598.08 1866.02) rotate(94.04) scale(1743.74 1716.85)">
<stop stop-color="#6DDA18"/>
<stop offset="1" stop-color="#AA910E"/>
</radialGradient>
<radialGradient id="paint2_angular_1069_5833" cx="0" cy="0" r="1" gradientUnits="userSpaceOnUse" gradientTransform="translate(1407.95 1898.85) rotate(98.08) scale(1678.26 1650.01)">
<stop stop-color="#6DDA18"/>
<stop offset="1" stop-color="#AA910E"/>
</radialGradient>
<radialGradient id="paint3_angular_1069_5833" cx="0" cy="0" r="1" gradientUnits="userSpaceOnUse" gradientTransform="translate(1221.58 1914.34) rotate(102.12) scale(1612.67 1583.43)">
<stop stop-color="#6DDA18"/>
<stop offset="1" stop-color="#AA910E"/>
</radialGradient>
<radialGradient id="paint4_angular_1069_5833" cx="0" cy="0" r="1" gradientUnits="userSpaceOnUse" gradientTransform="translate(1040.69 1912.34) rotate(106.16) scale(1546.03 1517.11)">
<stop stop-color="#6DDA18"/>
<stop offset="1" stop-color="#AA910E"/>
</radialGradient>
<radialGradient id="paint5_angular_1069_5833" cx="0" cy="0" r="1" gradientUnits="userSpaceOnUse" gradientTransform="translate(866.828 1893.62) rotate(110.2) scale(1478.22 1450.97)">
<stop stop-color="#6DDA18"/>
<stop offset="1" stop-color="#AA910E"/>
</radialGradient>
<radialGradient id="paint6_angular_1069_5833" cx="0" cy="0" r="1" gradientUnits="userSpaceOnUse" gradientTransform="translate(701.007 1860.27) rotate(114.24) scale(1410.4 1384.99)">
<stop stop-color="#6DDA18"/>
<stop offset="1" stop-color="#AA910E"/>
</radialGradient>
<radialGradient id="paint7_angular_1069_5833" cx="0" cy="0" r="1" gradientUnits="userSpaceOnUse" gradientTransform="translate(544.134 1813.66) rotate(118.28) scale(1342.95 1319.1)">
<stop stop-color="#6DDA18"/>
<stop offset="1" stop-color="#AA910E"/>
</radialGradient>
<radialGradient id="paint8_angular_1069_5833" cx="0" cy="0" r="1" gradientUnits="userSpaceOnUse" gradientTransform="translate(397.052 1754.7) rotate(122.32) scale(1275.81 1253.08)">
<stop stop-color="#6DDA18"/>
<stop offset="1" stop-color="#AA910E"/>
</radialGradient>
<radialGradient id="paint9_angular_1069_5833" cx="0" cy="0" r="1" gradientUnits="userSpaceOnUse" gradientTransform="translate(260.111 1683.94) rotate(126.36) scale(1208.82 1186.13)">
<stop stop-color="#6DDA18"/>
<stop offset="1" stop-color="#AA910E"/>
</radialGradient>
<radialGradient id="paint10_angular_1069_5833" cx="0" cy="0" r="1" gradientUnits="userSpaceOnUse" gradientTransform="translate(130.15 1598.14) rotate(130.4) scale(1141.37 1112.26)">
<stop stop-color="#6DDA18"/>
<stop offset="1" stop-color="#AA910E"/>
</radialGradient>
<radialGradient id="paint11_angular_1069_5833" cx="0" cy="0" r="1" gradientUnits="userSpaceOnUse" gradientTransform="translate(21.9118 1507.1) rotate(134.44) scale(1071.11 1047.5)">
<stop stop-color="#6DDA18"/>
<stop offset="1" stop-color="#AA910E"/>
</radialGradient>
<radialGradient id="paint12_angular_1069_5833" cx="0" cy="0" r="1" gradientUnits="userSpaceOnUse" gradientTransform="translate(-74.2791 1408.4) rotate(138.48) scale(1001.37 981.336)">
<stop stop-color="#6DDA18"/>
<stop offset="1" stop-color="#AA910E"/>
</radialGradient>
<radialGradient id="paint13_angular_1069_5833" cx="0" cy="0" r="1" gradientUnits="userSpaceOnUse" gradientTransform="translate(-157.151 1303.95) rotate(142.52) scale(932.039 914.809)">
<stop stop-color="#6DDA18"/>
<stop offset="1" stop-color="#AA910E"/>
</radialGradient>
<radialGradient id="paint14_angular_1069_5833" cx="0" cy="0" r="1" gradientUnits="userSpaceOnUse" gradientTransform="translate(-222.305 1191.37) rotate(146.56) scale(857.643 847.07)">
<stop stop-color="#6DDA18"/>
<stop offset="1" stop-color="#AA910E"/>
</radialGradient>
<radialGradient id="paint15_angular_1069_5833" cx="0" cy="0" r="1" gradientUnits="userSpaceOnUse" gradientTransform="translate(-275.93 1076.88) rotate(150.6) scale(786.346 778.088)">
<stop stop-color="#6DDA18"/>
<stop offset="1" stop-color="#AA910E"/>
</radialGradient>
<radialGradient id="paint16_angular_1069_5833" cx="0" cy="0" r="1" gradientUnits="userSpaceOnUse" gradientTransform="translate(-315.784 960.389) rotate(154.64) scale(715.641 708.02)">
<stop stop-color="#6DDA18"/>
<stop offset="1" stop-color="#AA910E"/>
</radialGradient>
<radialGradient id="paint17_angular_1069_5833" cx="0" cy="0" r="1" gradientUnits="userSpaceOnUse" gradientTransform="translate(-347.411 845.495) rotate(158.68) scale(651.574 636.998)">
<stop stop-color="#6DDA18"/>
<stop offset="1" stop-color="#AA910E"/>
</radialGradient>
<radialGradient id="paint18_angular_1069_5833" cx="0" cy="0" r="1" gradientUnits="userSpaceOnUse" gradientTransform="translate(-353.613 728.849) rotate(162.72) scale(576.186 566.949)">
<stop stop-color="#6DDA18"/>
<stop offset="1" stop-color="#AA910E"/>
</radialGradient>
<radialGradient id="paint19_angular_1069_5833" cx="0" cy="0" r="1" gradientUnits="userSpaceOnUse" gradientTransform="translate(-348.67 612.591) rotate(166.76) scale(503.184 493.035)">
<stop stop-color="#6DDA18"/>
<stop offset="1" stop-color="#AA910E"/>
</radialGradient>
<radialGradient id="paint20_angular_1069_5833" cx="0" cy="0" r="1" gradientUnits="userSpaceOnUse" gradientTransform="translate(-330.834 483.956) rotate(170.8) scale(428.789 402.11)">
<stop stop-color="#6DDA18"/>
<stop offset="1" stop-color="#AA910E"/>
</radialGradient>
<radialGradient id="paint21_angular_1069_5833" cx="0" cy="0" r="1" gradientUnits="userSpaceOnUse" gradientTransform="translate(-293.696 387.27) rotate(174.84) scale(353.43 337.385)">
<stop stop-color="#6DDA18"/>
<stop offset="1" stop-color="#AA910E"/>
</radialGradient>
<radialGradient id="paint22_angular_1069_5833" cx="0" cy="0" r="1" gradientUnits="userSpaceOnUse" gradientTransform="translate(-244.579 292.169) rotate(178.88) scale(277.471 266.351)">
<stop stop-color="#6DDA18"/>
<stop offset="1" stop-color="#AA910E"/>
</radialGradient>
<radialGradient id="paint23_angular_1069_5833" cx="0" cy="0" r="1" gradientUnits="userSpaceOnUse" gradientTransform="translate(-186.933 210.684) rotate(-177.08) scale(204.225 200.028)">
<stop stop-color="#6DDA18"/>
<stop offset="1" stop-color="#AA910E"/>
</radialGradient>
<radialGradient id="paint24_angular_1069_5833" cx="0" cy="0" r="1" gradientUnits="userSpaceOnUse" gradientTransform="translate(-124.012 143.826) rotate(-173.04) scale(134.837 139.049)">
<stop stop-color="#6DDA18"/>
<stop offset="1" stop-color="#AA910E"/>
</radialGradient>
</defs>
</svg>
