<svg width="90" height="17" viewBox="0 0 90 17" fill="none" xmlns="http://www.w3.org/2000/svg">
<path d="M10.2 16.0859H5.688V0.00585938H10.2V16.0859ZM15.864 4.06186H0V0.00585938H15.864V4.06186Z" fill="#1D2939"/>
<path d="M21.4657 16.0859H16.9538V3.98986H21.1777V7.44586L21.4657 7.56586V16.0859ZM21.4657 8.86186H20.6257V7.15786H21.4177C21.5297 6.48586 21.7458 5.89386 22.0658 5.38186C22.3857 4.86986 22.8177 4.46986 23.3617 4.18186C23.9217 3.89386 24.6017 3.74986 25.4018 3.74986C26.2978 3.74986 27.0177 3.93386 27.5618 4.30186C28.1058 4.65386 28.4978 5.14186 28.7378 5.76586C28.9938 6.38986 29.1217 7.10986 29.1217 7.92586V10.3259H24.6098V8.90986C24.6098 8.39786 24.4977 8.04586 24.2738 7.85386C24.0498 7.64586 23.6418 7.54186 23.0497 7.54186C22.4417 7.54186 22.0257 7.64586 21.8018 7.85386C21.5778 8.04586 21.4657 8.38186 21.4657 8.86186Z" fill="#1D2939"/>
<path d="M35.0467 16.3259C33.9268 16.3259 32.9987 16.1259 32.2627 15.7259C31.5267 15.3259 30.9748 14.7819 30.6068 14.0939C30.2548 13.4059 30.0788 12.6219 30.0788 11.7419V3.98986H34.5908V10.0859C34.5908 10.9179 34.7828 11.4939 35.1668 11.8139C35.5668 12.1339 36.2787 12.2939 37.3027 12.2939C38.3428 12.2939 39.0308 12.1499 39.3667 11.8619C39.7188 11.5579 39.8947 11.0139 39.8947 10.2299H40.3507L40.7348 12.4139H39.9427C39.8627 13.0859 39.6468 13.7179 39.2948 14.3099C38.9427 14.9019 38.4227 15.3899 37.7347 15.7739C37.0467 16.1419 36.1507 16.3259 35.0467 16.3259ZM44.4067 16.0859H40.1828V12.3659L39.8947 12.2459V3.98986H44.4067V16.0859Z" fill="#1D2939"/>
<path d="M52.2624 16.3259C50.1344 16.3259 48.5104 15.9339 47.3904 15.1499C46.2704 14.3659 45.7104 13.2779 45.7104 11.8859V11.7899H50.2224V12.0299C50.2224 12.3659 50.3584 12.5739 50.6304 12.6539C50.9184 12.7339 51.4704 12.7739 52.2864 12.7739C53.0704 12.7739 53.5664 12.7339 53.7744 12.6539C53.9824 12.5579 54.0864 12.4059 54.0864 12.1979C54.0864 12.0059 54.0064 11.8779 53.8464 11.8139C53.6864 11.7339 53.3264 11.6619 52.7664 11.5979L49.2624 11.2139C48.0144 11.0859 47.0624 10.7339 46.4064 10.1579C45.7504 9.56586 45.4224 8.75786 45.4224 7.73386C45.4224 7.01386 45.6224 6.35786 46.0224 5.76586C46.4384 5.15786 47.1024 4.66986 48.0144 4.30186C48.9424 3.93386 50.1584 3.74986 51.6624 3.74986C53.0704 3.74986 54.2464 3.91786 55.1904 4.25386C56.1504 4.58986 56.8704 5.09386 57.3504 5.76586C57.8464 6.42186 58.0944 7.24586 58.0944 8.23786V8.33386H53.5824V8.18986C53.5824 7.98186 53.5344 7.81386 53.4384 7.68586C53.3584 7.54186 53.1664 7.43786 52.8624 7.37386C52.5744 7.30986 52.1264 7.27786 51.5184 7.27786C50.7824 7.27786 50.3184 7.33386 50.1264 7.44586C49.9504 7.54186 49.8624 7.70186 49.8624 7.92586C49.8624 8.08586 49.9504 8.21386 50.1264 8.30986C50.3184 8.40586 50.7664 8.49386 51.4704 8.57386L53.8704 8.83786C55.6304 9.02986 56.8464 9.42186 57.5184 10.0139C58.1904 10.6059 58.5264 11.4139 58.5264 12.4379C58.5264 13.1899 58.2784 13.8619 57.7824 14.4539C57.3024 15.0299 56.5984 15.4859 55.6704 15.8219C54.7424 16.1579 53.6064 16.3259 52.2624 16.3259Z" fill="#1D2939"/>
<path d="M68.658 16.0859H65.49C63.986 16.0859 62.802 15.7099 61.938 14.9579C61.09 14.2059 60.666 13.0459 60.666 11.4779V3.98986H65.178V10.8299C65.178 11.3099 65.266 11.6299 65.442 11.7899C65.634 11.9499 65.986 12.0299 66.498 12.0299H68.658V16.0859ZM68.658 7.68586H58.89V3.98986H68.658V7.68586Z" fill="#1D2939"/>
<path d="M74.247 16.0859H69.735V0.00585938H74.247V16.0859Z" fill="#1D2939"/>
<path d="M82.4321 16.3259C81.0721 16.3259 79.8641 16.1179 78.8081 15.7019C77.7521 15.2859 76.9281 14.6139 76.3361 13.6859C75.7441 12.7579 75.4481 11.5419 75.4481 10.0379C75.4481 8.72586 75.7441 7.60586 76.3361 6.67786C76.9281 5.73386 77.7361 5.01386 78.7601 4.51786C79.8001 4.00586 80.9921 3.74986 82.3361 3.74986C83.7281 3.74986 84.9361 3.98186 85.9601 4.44586C86.9841 4.89386 87.7761 5.56586 88.3361 6.46186C88.8961 7.34186 89.1761 8.42986 89.1761 9.72586C89.1761 9.93386 89.1681 10.1259 89.1521 10.3019C89.1521 10.4619 89.1361 10.6539 89.1041 10.8779H78.4001V8.59786H85.8401L84.8561 10.0139C84.8561 9.86986 84.8561 9.73386 84.8561 9.60586C84.8561 9.46186 84.8561 9.31786 84.8561 9.17386C84.8561 8.43786 84.6641 7.92586 84.2801 7.63786C83.9121 7.34986 83.2321 7.20586 82.2401 7.20586C81.2161 7.20586 80.5201 7.36586 80.1521 7.68586C79.8001 8.00586 79.6241 8.58186 79.6241 9.41386V10.5659C79.6241 11.4139 79.8081 11.9899 80.1761 12.2939C80.5441 12.5979 81.2401 12.7499 82.2641 12.7499C83.1761 12.7499 83.7841 12.6699 84.0881 12.5099C84.4081 12.3339 84.5681 12.0699 84.5681 11.7179V11.4539H89.0801V11.7419C89.0801 12.6379 88.8081 13.4299 88.2641 14.1179C87.7201 14.8059 86.9521 15.3499 85.9601 15.7499C84.9681 16.1339 83.7921 16.3259 82.4321 16.3259Z" fill="#1D2939"/>
<path d="M60.6396 3.08594H65.1776V0H60.6396V3.08594Z" fill="url(#paint0_linear_3741_15119)"/>
<defs>
<linearGradient id="paint0_linear_3741_15119" x1="62.5224" y1="2.02515" x2="64.3063" y2="2.04734" gradientUnits="userSpaceOnUse">
<stop stop-color="#7CCA68"/>
<stop offset="1" stop-color="#62CA9E"/>
</linearGradient>
</defs>
</svg>
